%TF.GenerationSoftware,KiCad,Pcbnew,(6.0.7)*%
%TF.CreationDate,2022-09-10T12:27:55+10:00*%
%TF.ProjectId,Christmas_2022_PCB,43687269-7374-46d6-9173-5f323032325f,v01*%
%TF.SameCoordinates,Original*%
%TF.FileFunction,Profile,NP*%
%FSLAX46Y46*%
G04 Gerber Fmt 4.6, Leading zero omitted, Abs format (unit mm)*
G04 Created by KiCad (PCBNEW (6.0.7)) date 2022-09-10 12:27:55*
%MOMM*%
%LPD*%
G01*
G04 APERTURE LIST*
%TA.AperFunction,Profile*%
%ADD10C,0.100000*%
%TD*%
G04 APERTURE END LIST*
D10*
X66626158Y-90998123D02*
X71759218Y-91009913D01*
X65600000Y-88900000D02*
X78268521Y-72974817D01*
X113373842Y-90998119D02*
G75*
G03*
X114400000Y-88900000I-42J1300019D01*
G01*
X89300000Y-49900000D02*
X73600000Y-69900000D01*
X119400000Y-110000000D02*
G75*
G03*
X120426158Y-107901877I0J1300000D01*
G01*
X73599997Y-69899998D02*
G75*
G03*
X74626158Y-71998123I1026203J-798102D01*
G01*
X78268521Y-72974817D02*
G75*
G03*
X77800000Y-72000000I-468521J374817D01*
G01*
X105373842Y-71998119D02*
G75*
G03*
X106400000Y-69900000I-42J1300019D01*
G01*
X108240782Y-91009913D02*
X113373842Y-90998123D01*
X120426158Y-107901877D02*
X107772261Y-91984730D01*
X59573842Y-107901877D02*
G75*
G03*
X60600000Y-110000000I1026158J-798123D01*
G01*
X65599997Y-88899998D02*
G75*
G03*
X66626158Y-90998123I1026203J-798102D01*
G01*
X101731479Y-72974817D02*
X114400000Y-88900000D01*
X60600000Y-110000000D02*
X90000000Y-110000000D01*
X90700000Y-49900000D02*
X106400000Y-69900000D01*
X72227739Y-91984730D02*
X59573842Y-107901877D01*
X72227712Y-91984708D02*
G75*
G03*
X71759218Y-91009913I-468512J374808D01*
G01*
X90000000Y-110000000D02*
X119400000Y-110000000D01*
X90700000Y-49900000D02*
G75*
G03*
X89300000Y-49900000I-700000J-499999D01*
G01*
X77800000Y-72000000D02*
X74626158Y-71998123D01*
X102200000Y-72000000D02*
G75*
G03*
X101731479Y-72974817I0J-600000D01*
G01*
X105373842Y-71998123D02*
X102200000Y-72000000D01*
X108240782Y-91009878D02*
G75*
G03*
X107772261Y-91984730I18J-600022D01*
G01*
M02*
