%TF.GenerationSoftware,KiCad,Pcbnew,(6.0.7)*%
%TF.CreationDate,2022-09-10T12:27:54+10:00*%
%TF.ProjectId,Christmas_2022_PCB,43687269-7374-46d6-9173-5f323032325f,v01*%
%TF.SameCoordinates,Original*%
%TF.FileFunction,Copper,L1,Top*%
%TF.FilePolarity,Positive*%
%FSLAX46Y46*%
G04 Gerber Fmt 4.6, Leading zero omitted, Abs format (unit mm)*
G04 Created by KiCad (PCBNEW (6.0.7)) date 2022-09-10 12:27:54*
%MOMM*%
%LPD*%
G01*
G04 APERTURE LIST*
G04 Aperture macros list*
%AMRoundRect*
0 Rectangle with rounded corners*
0 $1 Rounding radius*
0 $2 $3 $4 $5 $6 $7 $8 $9 X,Y pos of 4 corners*
0 Add a 4 corners polygon primitive as box body*
4,1,4,$2,$3,$4,$5,$6,$7,$8,$9,$2,$3,0*
0 Add four circle primitives for the rounded corners*
1,1,$1+$1,$2,$3*
1,1,$1+$1,$4,$5*
1,1,$1+$1,$6,$7*
1,1,$1+$1,$8,$9*
0 Add four rect primitives between the rounded corners*
20,1,$1+$1,$2,$3,$4,$5,0*
20,1,$1+$1,$4,$5,$6,$7,0*
20,1,$1+$1,$6,$7,$8,$9,0*
20,1,$1+$1,$8,$9,$2,$3,0*%
G04 Aperture macros list end*
%TA.AperFunction,SMDPad,CuDef*%
%ADD10RoundRect,0.250000X0.325000X0.450000X-0.325000X0.450000X-0.325000X-0.450000X0.325000X-0.450000X0*%
%TD*%
%TA.AperFunction,SMDPad,CuDef*%
%ADD11RoundRect,0.250000X-0.450000X0.350000X-0.450000X-0.350000X0.450000X-0.350000X0.450000X0.350000X0*%
%TD*%
%TA.AperFunction,SMDPad,CuDef*%
%ADD12RoundRect,0.250000X-0.325000X-0.450000X0.325000X-0.450000X0.325000X0.450000X-0.325000X0.450000X0*%
%TD*%
%TA.AperFunction,SMDPad,CuDef*%
%ADD13RoundRect,0.250000X0.350000X0.450000X-0.350000X0.450000X-0.350000X-0.450000X0.350000X-0.450000X0*%
%TD*%
%TA.AperFunction,SMDPad,CuDef*%
%ADD14RoundRect,0.250000X-0.350000X-0.450000X0.350000X-0.450000X0.350000X0.450000X-0.350000X0.450000X0*%
%TD*%
%TA.AperFunction,SMDPad,CuDef*%
%ADD15R,1.500000X0.700000*%
%TD*%
%TA.AperFunction,SMDPad,CuDef*%
%ADD16R,0.800000X1.000000*%
%TD*%
%TA.AperFunction,SMDPad,CuDef*%
%ADD17R,1.250000X2.100000*%
%TD*%
%TA.AperFunction,SMDPad,CuDef*%
%ADD18R,1.250000X2.000000*%
%TD*%
%TA.AperFunction,SMDPad,CuDef*%
%ADD19R,2.000000X1.500000*%
%TD*%
%TA.AperFunction,SMDPad,CuDef*%
%ADD20R,2.000000X3.800000*%
%TD*%
%TA.AperFunction,ComponentPad*%
%ADD21O,1.900000X3.500000*%
%TD*%
%TA.AperFunction,SMDPad,CuDef*%
%ADD22R,1.100000X2.500000*%
%TD*%
%TA.AperFunction,SMDPad,CuDef*%
%ADD23RoundRect,0.250000X0.337500X0.475000X-0.337500X0.475000X-0.337500X-0.475000X0.337500X-0.475000X0*%
%TD*%
%TA.AperFunction,SMDPad,CuDef*%
%ADD24RoundRect,0.250000X-0.129454X0.555195X-0.569978X0.011193X0.129454X-0.555195X0.569978X-0.011193X0*%
%TD*%
%TA.AperFunction,SMDPad,CuDef*%
%ADD25RoundRect,0.125000X-0.353553X-0.530330X0.530330X0.353553X0.353553X0.530330X-0.530330X-0.353553X0*%
%TD*%
%TA.AperFunction,SMDPad,CuDef*%
%ADD26RoundRect,0.125000X0.353553X-0.530330X0.530330X-0.353553X-0.353553X0.530330X-0.530330X0.353553X0*%
%TD*%
%TA.AperFunction,SMDPad,CuDef*%
%ADD27RoundRect,0.250000X-0.450000X0.325000X-0.450000X-0.325000X0.450000X-0.325000X0.450000X0.325000X0*%
%TD*%
%TA.AperFunction,SMDPad,CuDef*%
%ADD28RoundRect,0.250000X0.450000X-0.350000X0.450000X0.350000X-0.450000X0.350000X-0.450000X-0.350000X0*%
%TD*%
%TA.AperFunction,SMDPad,CuDef*%
%ADD29RoundRect,0.162500X-0.550064X-0.635972X0.750154X0.379869X0.550064X0.635972X-0.750154X-0.379869X0*%
%TD*%
%TA.AperFunction,SMDPad,CuDef*%
%ADD30RoundRect,0.250000X0.450000X-0.325000X0.450000X0.325000X-0.450000X0.325000X-0.450000X-0.325000X0*%
%TD*%
%TA.AperFunction,SMDPad,CuDef*%
%ADD31RoundRect,0.250000X-0.337500X-0.475000X0.337500X-0.475000X0.337500X0.475000X-0.337500X0.475000X0*%
%TD*%
%TA.AperFunction,ViaPad*%
%ADD32C,0.800000*%
%TD*%
%TA.AperFunction,Conductor*%
%ADD33C,0.250000*%
%TD*%
G04 APERTURE END LIST*
D10*
%TO.P,D11,1,K*%
%TO.N,Net-(D11-Pad1)*%
X65025000Y-106250000D03*
%TO.P,D11,2,A*%
%TO.N,/LED12*%
X62975000Y-106250000D03*
%TD*%
D11*
%TO.P,R5,1*%
%TO.N,Net-(D1-Pad1)*%
X88900000Y-62900000D03*
%TO.P,R5,2*%
%TO.N,/LED1*%
X88900000Y-64900000D03*
%TD*%
D12*
%TO.P,D5,1,K*%
%TO.N,Net-(D5-Pad1)*%
X101225000Y-68250000D03*
%TO.P,D5,2,A*%
%TO.N,/LED6*%
X103275000Y-68250000D03*
%TD*%
D13*
%TO.P,R4,1*%
%TO.N,GND*%
X82000000Y-102200000D03*
%TO.P,R4,2*%
%TO.N,/SW_LEFT*%
X80000000Y-102200000D03*
%TD*%
%TO.P,R6,1*%
%TO.N,/LED3*%
X81250000Y-70500000D03*
%TO.P,R6,2*%
%TO.N,Net-(D4-Pad2)*%
X79250000Y-70500000D03*
%TD*%
%TO.P,R19,1*%
%TO.N,Net-(D13-Pad1)*%
X113000000Y-106250000D03*
%TO.P,R19,2*%
%TO.N,/LED13*%
X111000000Y-106250000D03*
%TD*%
D14*
%TO.P,R9,1*%
%TO.N,Net-(D3-Pad1)*%
X80750000Y-68250000D03*
%TO.P,R9,2*%
%TO.N,/LED3*%
X82750000Y-68250000D03*
%TD*%
D13*
%TO.P,R18,1*%
%TO.N,/LED11*%
X67500000Y-108500000D03*
%TO.P,R18,2*%
%TO.N,Net-(D12-Pad2)*%
X65500000Y-108500000D03*
%TD*%
D14*
%TO.P,R8,1*%
%TO.N,GND*%
X98000000Y-102200000D03*
%TO.P,R8,2*%
%TO.N,/SW_RIGHT*%
X100000000Y-102200000D03*
%TD*%
D15*
%TO.P,SW3,3,C*%
%TO.N,/VREG*%
X94595000Y-92750000D03*
%TO.P,SW3,2,B*%
%TO.N,Net-(R11-Pad1)*%
X94595000Y-94250000D03*
%TO.P,SW3,1,A*%
%TO.N,/VBATT*%
X94595000Y-97250000D03*
D16*
%TO.P,SW3,*%
%TO.N,*%
X97455000Y-98650000D03*
X95245000Y-91350000D03*
X97455000Y-91350000D03*
X95245000Y-98650000D03*
%TD*%
D11*
%TO.P,R11,1*%
%TO.N,Net-(R11-Pad1)*%
X89750000Y-93500000D03*
%TO.P,R11,2*%
%TO.N,+3V3*%
X89750000Y-95500000D03*
%TD*%
D10*
%TO.P,D3,1,K*%
%TO.N,Net-(D3-Pad1)*%
X78775000Y-68250000D03*
%TO.P,D3,2,A*%
%TO.N,/LED4*%
X76725000Y-68250000D03*
%TD*%
D12*
%TO.P,D4,1,K*%
%TO.N,/LED4*%
X75225000Y-70500000D03*
%TO.P,D4,2,A*%
%TO.N,Net-(D4-Pad2)*%
X77275000Y-70500000D03*
%TD*%
D17*
%TO.P,SW1,1,1*%
%TO.N,+3V3*%
X69125000Y-102200000D03*
D18*
%TO.P,SW1,2,2*%
%TO.N,/SW_LEFT*%
X76875000Y-102200000D03*
%TD*%
D19*
%TO.P,U2,1,GND*%
%TO.N,GND*%
X84900000Y-97300000D03*
%TO.P,U2,2,VO*%
%TO.N,/VREG*%
X84900000Y-95000000D03*
D20*
X78600000Y-95000000D03*
D19*
%TO.P,U2,3,VI*%
%TO.N,Net-(J1-Pad1)*%
X84900000Y-92700000D03*
%TD*%
D13*
%TO.P,R14,1*%
%TO.N,/LED7*%
X73250000Y-89500000D03*
%TO.P,R14,2*%
%TO.N,Net-(D8-Pad2)*%
X71250000Y-89500000D03*
%TD*%
D21*
%TO.P,J1,5,Shield*%
%TO.N,GND*%
X84300000Y-106600000D03*
X95700000Y-106600000D03*
D22*
%TO.P,J1,4,GND*%
X86500000Y-103850000D03*
%TO.P,J1,3,D+*%
%TO.N,unconnected-(J1-Pad3)*%
X89000000Y-103850000D03*
%TO.P,J1,2,D-*%
%TO.N,unconnected-(J1-Pad2)*%
X91000000Y-103850000D03*
%TO.P,J1,1,VBUS*%
%TO.N,Net-(J1-Pad1)*%
X93500000Y-103850000D03*
%TD*%
D23*
%TO.P,C3,1*%
%TO.N,+3V3*%
X83287500Y-75000000D03*
%TO.P,C3,2*%
%TO.N,GND*%
X81212500Y-75000000D03*
%TD*%
D12*
%TO.P,D8,1,K*%
%TO.N,/LED8*%
X67225000Y-89500000D03*
%TO.P,D8,2,A*%
%TO.N,Net-(D8-Pad2)*%
X69275000Y-89500000D03*
%TD*%
%TO.P,D9,1,K*%
%TO.N,Net-(D9-Pad1)*%
X108975000Y-87250000D03*
%TO.P,D9,2,A*%
%TO.N,/LED10*%
X111025000Y-87250000D03*
%TD*%
D10*
%TO.P,D6,1,K*%
%TO.N,/LED6*%
X104775000Y-70500000D03*
%TO.P,D6,2,A*%
%TO.N,Net-(D6-Pad2)*%
X102725000Y-70500000D03*
%TD*%
D13*
%TO.P,R15,1*%
%TO.N,Net-(D9-Pad1)*%
X107000000Y-87250000D03*
%TO.P,R15,2*%
%TO.N,/LED9*%
X105000000Y-87250000D03*
%TD*%
D17*
%TO.P,SW2,1,1*%
%TO.N,+3V3*%
X110875000Y-102200000D03*
D18*
%TO.P,SW2,2,2*%
%TO.N,/SW_RIGHT*%
X103125000Y-102200000D03*
%TD*%
D24*
%TO.P,R1,1*%
%TO.N,Net-(R1-Pad1)*%
X78629320Y-77022854D03*
%TO.P,R1,2*%
%TO.N,GND*%
X77370680Y-78577146D03*
%TD*%
D14*
%TO.P,R16,1*%
%TO.N,/LED9*%
X106750000Y-89500000D03*
%TO.P,R16,2*%
%TO.N,Net-(D10-Pad2)*%
X108750000Y-89500000D03*
%TD*%
%TO.P,R20,1*%
%TO.N,/LED13*%
X112750000Y-108500000D03*
%TO.P,R20,2*%
%TO.N,Net-(D14-Pad2)*%
X114750000Y-108500000D03*
%TD*%
D12*
%TO.P,D12,1,K*%
%TO.N,/LED12*%
X61475000Y-108500000D03*
%TO.P,D12,2,A*%
%TO.N,Net-(D12-Pad2)*%
X63525000Y-108500000D03*
%TD*%
D25*
%TO.P,U1,1,VDD*%
%TO.N,+3V3*%
X85067930Y-75972272D03*
%TO.P,U1,2,PF0*%
%TO.N,unconnected-(U1-Pad2)*%
X85633616Y-76537957D03*
%TO.P,U1,3,PF1*%
%TO.N,unconnected-(U1-Pad3)*%
X86199301Y-77103643D03*
%TO.P,U1,4,NRST*%
%TO.N,/NRST*%
X86764986Y-77669328D03*
%TO.P,U1,5,VDDA*%
%TO.N,+3V3*%
X87330672Y-78235014D03*
%TO.P,U1,6,PA0*%
%TO.N,/LED12*%
X87896357Y-78800699D03*
%TO.P,U1,7,PA1*%
%TO.N,/LED11*%
X88462043Y-79366384D03*
%TO.P,U1,8,PA2*%
%TO.N,/SW_LEFT*%
X89027728Y-79932070D03*
D26*
%TO.P,U1,9,PA3*%
%TO.N,/SW_RIGHT*%
X90972272Y-79932070D03*
%TO.P,U1,10,PA4*%
%TO.N,/LED13*%
X91537957Y-79366384D03*
%TO.P,U1,11,PA5*%
%TO.N,/LED14*%
X92103643Y-78800699D03*
%TO.P,U1,12,PA6*%
%TO.N,/LED9*%
X92669328Y-78235014D03*
%TO.P,U1,13,PA7*%
%TO.N,/LED10*%
X93235014Y-77669328D03*
%TO.P,U1,14,PB0*%
%TO.N,/LED6*%
X93800699Y-77103643D03*
%TO.P,U1,15,PB1*%
%TO.N,/LED5*%
X94366384Y-76537957D03*
%TO.P,U1,16,VSS*%
%TO.N,GND*%
X94932070Y-75972272D03*
D25*
%TO.P,U1,17,VDD*%
%TO.N,+3V3*%
X94932070Y-74027728D03*
%TO.P,U1,18,PA8*%
%TO.N,unconnected-(U1-Pad18)*%
X94366384Y-73462043D03*
%TO.P,U1,19,PA9*%
%TO.N,unconnected-(U1-Pad19)*%
X93800699Y-72896357D03*
%TO.P,U1,20,PA10*%
%TO.N,unconnected-(U1-Pad20)*%
X93235014Y-72330672D03*
%TO.P,U1,21,PA11*%
%TO.N,/LED1*%
X92669328Y-71764986D03*
%TO.P,U1,22,PA12*%
%TO.N,/LED2*%
X92103643Y-71199301D03*
%TO.P,U1,23,PA13*%
%TO.N,/SWDIO*%
X91537957Y-70633616D03*
%TO.P,U1,24,PA14*%
%TO.N,/SWCLK*%
X90972272Y-70067930D03*
D26*
%TO.P,U1,25,PA15*%
%TO.N,/LED4*%
X89027728Y-70067930D03*
%TO.P,U1,26,PB3*%
%TO.N,/SPI_SCK*%
X88462043Y-70633616D03*
%TO.P,U1,27,PB4*%
%TO.N,/SPI_MISO*%
X87896357Y-71199301D03*
%TO.P,U1,28,PB5*%
%TO.N,/LED3*%
X87330672Y-71764986D03*
%TO.P,U1,29,PB6*%
%TO.N,/LED8*%
X86764986Y-72330672D03*
%TO.P,U1,30,PB7*%
%TO.N,/LED7*%
X86199301Y-72896357D03*
%TO.P,U1,31,BOOT0*%
%TO.N,Net-(R1-Pad1)*%
X85633616Y-73462043D03*
%TO.P,U1,32,VSS*%
%TO.N,GND*%
X85067930Y-74027728D03*
%TD*%
D14*
%TO.P,R12,1*%
%TO.N,/LED5*%
X98750000Y-70500000D03*
%TO.P,R12,2*%
%TO.N,Net-(D6-Pad2)*%
X100750000Y-70500000D03*
%TD*%
%TO.P,R17,1*%
%TO.N,Net-(D11-Pad1)*%
X67000000Y-106250000D03*
%TO.P,R17,2*%
%TO.N,/LED11*%
X69000000Y-106250000D03*
%TD*%
D27*
%TO.P,D2,1,K*%
%TO.N,/LED2*%
X91100000Y-58975000D03*
%TO.P,D2,2,A*%
%TO.N,Net-(D2-Pad2)*%
X91100000Y-61025000D03*
%TD*%
D10*
%TO.P,D14,1,K*%
%TO.N,/LED14*%
X118775000Y-108500000D03*
%TO.P,D14,2,A*%
%TO.N,Net-(D14-Pad2)*%
X116725000Y-108500000D03*
%TD*%
D28*
%TO.P,R7,1*%
%TO.N,/LED1*%
X91100000Y-64900000D03*
%TO.P,R7,2*%
%TO.N,Net-(D2-Pad2)*%
X91100000Y-62900000D03*
%TD*%
D23*
%TO.P,C1,1*%
%TO.N,+3V3*%
X85287500Y-79500000D03*
%TO.P,C1,2*%
%TO.N,GND*%
X83212500Y-79500000D03*
%TD*%
D29*
%TO.P,J2,1*%
%TO.N,+3V3*%
X97200000Y-61760406D03*
%TO.P,J2,2*%
%TO.N,GND*%
X97981890Y-62761179D03*
%TO.P,J2,3*%
%TO.N,/SWCLK*%
X98763780Y-63761953D03*
%TO.P,J2,4*%
%TO.N,/SWDIO*%
X99545670Y-64762727D03*
%TD*%
D12*
%TO.P,D13,1,K*%
%TO.N,Net-(D13-Pad1)*%
X114975000Y-106250000D03*
%TO.P,D13,2,A*%
%TO.N,/LED14*%
X117025000Y-106250000D03*
%TD*%
D30*
%TO.P,D1,1,K*%
%TO.N,Net-(D1-Pad1)*%
X88900000Y-61025000D03*
%TO.P,D1,2,A*%
%TO.N,/LED2*%
X88900000Y-58975000D03*
%TD*%
D14*
%TO.P,R13,1*%
%TO.N,Net-(D7-Pad1)*%
X73000000Y-87250000D03*
%TO.P,R13,2*%
%TO.N,/LED7*%
X75000000Y-87250000D03*
%TD*%
D31*
%TO.P,C2,1*%
%TO.N,+3V3*%
X96562500Y-75000000D03*
%TO.P,C2,2*%
%TO.N,GND*%
X98637500Y-75000000D03*
%TD*%
D10*
%TO.P,D10,1,K*%
%TO.N,/LED10*%
X112775000Y-89500000D03*
%TO.P,D10,2,A*%
%TO.N,Net-(D10-Pad2)*%
X110725000Y-89500000D03*
%TD*%
%TO.P,D7,1,K*%
%TO.N,Net-(D7-Pad1)*%
X71025000Y-87250000D03*
%TO.P,D7,2,A*%
%TO.N,/LED8*%
X68975000Y-87250000D03*
%TD*%
D13*
%TO.P,R10,1*%
%TO.N,Net-(D5-Pad1)*%
X99250000Y-68250000D03*
%TO.P,R10,2*%
%TO.N,/LED5*%
X97250000Y-68250000D03*
%TD*%
D32*
%TO.N,+3V3*%
X92400000Y-74200000D03*
X95200000Y-71600000D03*
X98800000Y-81200000D03*
%TO.N,GND*%
X98600000Y-76400000D03*
%TO.N,+3V3*%
X102400000Y-75800000D03*
X97600000Y-72000000D03*
%TO.N,GND*%
X82400000Y-73600000D03*
X76400000Y-79800000D03*
X84250000Y-80750000D03*
%TO.N,+3V3*%
X103375000Y-80875000D03*
X73500000Y-97250000D03*
X71500000Y-95750000D03*
%TO.N,/VBATT*%
X101750000Y-96000000D03*
X80000000Y-88500000D03*
%TO.N,GND*%
X96600000Y-63900000D03*
X81500000Y-99000000D03*
X94000000Y-75100000D03*
X96200000Y-102200000D03*
X82000000Y-103750000D03*
X86000000Y-74900000D03*
X84500000Y-103750000D03*
%TO.N,+3V3*%
X94500000Y-65500000D03*
X90000000Y-78000000D03*
X90000000Y-81500000D03*
X92000000Y-102000000D03*
X85000000Y-68250000D03*
X105250000Y-103250000D03*
X104750000Y-89250000D03*
X95000000Y-101000000D03*
X95750000Y-70250000D03*
X71500000Y-101500000D03*
X74000000Y-104000000D03*
X85000000Y-65500000D03*
X108500000Y-99500000D03*
%TO.N,/NRST*%
X88250000Y-76250000D03*
%TO.N,/LED1*%
X89000000Y-68000000D03*
X89000000Y-73250000D03*
%TO.N,/LED2*%
X90250000Y-72000000D03*
X90250000Y-68750000D03*
%TD*%
D33*
%TO.N,/LED5*%
X100400000Y-72200000D02*
X98750000Y-70500000D01*
X100400000Y-77200000D02*
X100400000Y-72200000D01*
X98600000Y-79000000D02*
X100400000Y-77200000D01*
X96600000Y-79000000D02*
X98600000Y-79000000D01*
X94366384Y-76537957D02*
X96600000Y-79000000D01*
%TO.N,GND*%
X98637500Y-75000000D02*
X98600000Y-76400000D01*
%TO.N,+3V3*%
X94932070Y-74027728D02*
X95800000Y-74800000D01*
X95800000Y-74800000D02*
X96562500Y-75000000D01*
%TO.N,GND*%
X81212500Y-75000000D02*
X82400000Y-73600000D01*
%TO.N,Net-(R1-Pad1)*%
X78400000Y-75600000D02*
X78629320Y-77022854D01*
X80600000Y-72800000D02*
X78400000Y-75600000D01*
X85000000Y-72800000D02*
X80600000Y-72800000D01*
X85633616Y-73462043D02*
X85000000Y-72800000D01*
%TO.N,GND*%
X77370680Y-78577146D02*
X76400000Y-79800000D01*
%TO.N,/LED3*%
X81250000Y-70500000D02*
X82750000Y-68250000D01*
%TO.N,GND*%
X83212500Y-79500000D02*
X84250000Y-80750000D01*
%TO.N,/LED7*%
X70500000Y-85750000D02*
X75000000Y-85750000D01*
X70500000Y-84750000D02*
X70500000Y-85750000D01*
X80250000Y-72250000D02*
X70500000Y-84750000D01*
X75000000Y-85750000D02*
X75000000Y-87250000D01*
X85250000Y-72250000D02*
X80250000Y-72250000D01*
X86199301Y-72896357D02*
X85250000Y-72250000D01*
%TO.N,/LED8*%
X69250000Y-86000000D02*
X68975000Y-87250000D01*
X80000000Y-71750000D02*
X69500000Y-85000000D01*
X86250000Y-71750000D02*
X80000000Y-71750000D01*
X69500000Y-85000000D02*
X69250000Y-86000000D01*
X86764986Y-72330672D02*
X86250000Y-71750000D01*
%TO.N,GND*%
X86000000Y-74900000D02*
X85067930Y-74027728D01*
%TO.N,+3V3*%
X85287500Y-79500000D02*
X86000000Y-79500000D01*
X86000000Y-79500000D02*
X87330672Y-78235014D01*
%TO.N,/LED12*%
X62975000Y-106025000D02*
X62975000Y-106250000D01*
X74000000Y-92000000D02*
X74000000Y-95000000D01*
X77250000Y-87750000D02*
X77250000Y-88750000D01*
X77250000Y-88750000D02*
X74000000Y-92000000D01*
X80750000Y-86000000D02*
X79000000Y-86000000D01*
X79000000Y-86000000D02*
X77250000Y-87750000D01*
X87896357Y-78800699D02*
X80750000Y-86000000D01*
X74000000Y-95000000D02*
X62975000Y-106025000D01*
%TO.N,/LED11*%
X74000000Y-99750000D02*
X74000000Y-101250000D01*
X74750000Y-99000000D02*
X74000000Y-99750000D01*
X74750000Y-92250000D02*
X74750000Y-99000000D01*
X79250000Y-86750000D02*
X78000000Y-88000000D01*
X78000000Y-88000000D02*
X78000000Y-89000000D01*
X74000000Y-101250000D02*
X69000000Y-106250000D01*
X81250000Y-86750000D02*
X79250000Y-86750000D01*
X78000000Y-89000000D02*
X74750000Y-92250000D01*
X88462043Y-79366384D02*
X81250000Y-86750000D01*
%TO.N,+3V3*%
X89000000Y-77500000D02*
X90000000Y-78000000D01*
X88000000Y-77500000D02*
X89000000Y-77500000D01*
X87330672Y-78235014D02*
X88000000Y-77500000D01*
%TO.N,/VBATT*%
X100424999Y-97325001D02*
X94670001Y-97325001D01*
X101750000Y-93250000D02*
X101750000Y-96000000D01*
X101750000Y-96000000D02*
X100424999Y-97325001D01*
X94670001Y-97325001D02*
X94595000Y-97250000D01*
X80000000Y-88500000D02*
X97000000Y-88500000D01*
X97000000Y-88500000D02*
X101750000Y-93250000D01*
%TO.N,GND*%
X82000000Y-102200000D02*
X82000000Y-103750000D01*
X94932070Y-75972272D02*
X94872272Y-75972272D01*
X97738821Y-62761179D02*
X96600000Y-63900000D01*
X98000000Y-102200000D02*
X96200000Y-102200000D01*
X84900000Y-97300000D02*
X83200000Y-97300000D01*
X94872272Y-75972272D02*
X94000000Y-75100000D01*
X86500000Y-104250000D02*
X86000000Y-103750000D01*
X97981890Y-62761179D02*
X97738821Y-62761179D01*
X83200000Y-97300000D02*
X81500000Y-99000000D01*
X86000000Y-103750000D02*
X84500000Y-103750000D01*
%TO.N,Net-(D4-Pad2)*%
X77275000Y-70500000D02*
X79250000Y-70500000D01*
%TO.N,Net-(J1-Pad1)*%
X84900000Y-92700000D02*
X93500000Y-101300000D01*
X93500000Y-101300000D02*
X93500000Y-104350000D01*
%TO.N,/NRST*%
X86830672Y-77669328D02*
X88250000Y-76250000D01*
X86764986Y-77669328D02*
X86830672Y-77669328D01*
%TO.N,/SWDIO*%
X92600000Y-69400000D02*
X94400000Y-69400000D01*
X99037273Y-64762727D02*
X99545670Y-64762727D01*
X94400000Y-69400000D02*
X99037273Y-64762727D01*
X91537957Y-70633616D02*
X91537957Y-70462043D01*
X91537957Y-70462043D02*
X92600000Y-69400000D01*
%TO.N,/SWCLK*%
X92189722Y-68850480D02*
X93675253Y-68850480D01*
X90972272Y-70067930D02*
X92189722Y-68850480D01*
X93675253Y-68850480D02*
X98763780Y-63761953D01*
%TO.N,/VREG*%
X78600000Y-95000000D02*
X82100000Y-91500000D01*
X82100000Y-91500000D02*
X92000000Y-91500000D01*
X93250000Y-92750000D02*
X94595000Y-92750000D01*
X78600000Y-95000000D02*
X84900000Y-95000000D01*
X92000000Y-91500000D02*
X93250000Y-92750000D01*
%TO.N,Net-(D6-Pad2)*%
X102725000Y-70500000D02*
X100750000Y-70500000D01*
%TO.N,Net-(R11-Pad1)*%
X90500000Y-94250000D02*
X94595000Y-94250000D01*
X89750000Y-93500000D02*
X90500000Y-94250000D01*
%TO.N,Net-(D13-Pad1)*%
X114975000Y-106250000D02*
X113000000Y-106250000D01*
%TO.N,Net-(D14-Pad2)*%
X114750000Y-108500000D02*
X116725000Y-108500000D01*
%TO.N,Net-(D1-Pad1)*%
X88900000Y-61025000D02*
X88900000Y-62900000D01*
%TO.N,Net-(D5-Pad1)*%
X101225000Y-68250000D02*
X99250000Y-68250000D01*
%TO.N,Net-(D7-Pad1)*%
X73000000Y-87250000D02*
X71025000Y-87250000D01*
%TO.N,Net-(D8-Pad2)*%
X69275000Y-89500000D02*
X71250000Y-89500000D01*
%TO.N,Net-(D9-Pad1)*%
X107000000Y-87250000D02*
X108975000Y-87250000D01*
%TO.N,Net-(D10-Pad2)*%
X108750000Y-89500000D02*
X110725000Y-89500000D01*
%TO.N,Net-(D11-Pad1)*%
X65025000Y-106250000D02*
X67000000Y-106250000D01*
%TO.N,Net-(D12-Pad2)*%
X63525000Y-108500000D02*
X65500000Y-108500000D01*
%TO.N,/LED11*%
X67500000Y-108500000D02*
X69000000Y-107000000D01*
X69000000Y-107000000D02*
X69000000Y-106250000D01*
%TO.N,Net-(D2-Pad2)*%
X91100000Y-61025000D02*
X91100000Y-62900000D01*
%TO.N,Net-(D3-Pad1)*%
X78775000Y-68250000D02*
X80750000Y-68250000D01*
%TO.N,/LED13*%
X111000000Y-106750000D02*
X111000000Y-106250000D01*
X111000000Y-106250000D02*
X103750000Y-99000000D01*
X103750000Y-99000000D02*
X103750000Y-91578427D01*
X103750000Y-91578427D02*
X91537957Y-79366384D01*
X112750000Y-108500000D02*
X111000000Y-106750000D01*
%TO.N,/LED3*%
X81250000Y-70500000D02*
X86065686Y-70500000D01*
X86065686Y-70500000D02*
X87330672Y-71764986D01*
%TO.N,/LED1*%
X89000000Y-68000000D02*
X89000000Y-65000000D01*
X91184314Y-73250000D02*
X92669328Y-71764986D01*
X89000000Y-73250000D02*
X91184314Y-73250000D01*
X88900000Y-64900000D02*
X91100000Y-64900000D01*
X89000000Y-65000000D02*
X88900000Y-64900000D01*
%TO.N,/SW_RIGHT*%
X103125000Y-102200000D02*
X103125000Y-92495000D01*
X103125000Y-92495000D02*
X90972272Y-80342272D01*
X90972272Y-80342272D02*
X90972272Y-79932070D01*
X100000000Y-102200000D02*
X103125000Y-102200000D01*
%TO.N,/LED5*%
X98750000Y-70000000D02*
X98750000Y-70500000D01*
X97250000Y-68500000D02*
X98750000Y-70000000D01*
%TO.N,/LED7*%
X74000000Y-89500000D02*
X75000000Y-88500000D01*
X73250000Y-89500000D02*
X74000000Y-89500000D01*
X75000000Y-88500000D02*
X75000000Y-87250000D01*
%TO.N,/LED9*%
X101684314Y-87250000D02*
X92669328Y-78235014D01*
X106750000Y-89000000D02*
X105000000Y-87250000D01*
X105000000Y-87250000D02*
X101684314Y-87250000D01*
X106750000Y-89500000D02*
X106750000Y-89000000D01*
%TO.N,/SW_LEFT*%
X78750000Y-88500000D02*
X79750000Y-87500000D01*
X75500000Y-97750000D02*
X75500000Y-92750000D01*
X76875000Y-102200000D02*
X76875000Y-99125000D01*
X76875000Y-99125000D02*
X75500000Y-97750000D01*
X79750000Y-87500000D02*
X81459798Y-87500000D01*
X78750000Y-89500000D02*
X78750000Y-88500000D01*
X81459798Y-87500000D02*
X89027728Y-79932070D01*
X76875000Y-102200000D02*
X80000000Y-102200000D01*
X75500000Y-92750000D02*
X78750000Y-89500000D01*
%TO.N,/LED12*%
X62975000Y-107000000D02*
X62975000Y-106250000D01*
X61475000Y-108500000D02*
X62975000Y-107000000D01*
%TO.N,/LED14*%
X104500000Y-91197056D02*
X92103643Y-78800699D01*
X118775000Y-108500000D02*
X118775000Y-108000000D01*
X110250000Y-104250000D02*
X104500000Y-98500000D01*
X104500000Y-98500000D02*
X104500000Y-91197056D01*
X118775000Y-108000000D02*
X117025000Y-106250000D01*
X115025000Y-104250000D02*
X110250000Y-104250000D01*
X117025000Y-106250000D02*
X115025000Y-104250000D01*
%TO.N,/LED10*%
X111025000Y-86025000D02*
X110500000Y-85500000D01*
X111025000Y-87250000D02*
X111025000Y-86025000D01*
X111025000Y-87250000D02*
X111025000Y-87750000D01*
X101065686Y-85500000D02*
X93235014Y-77669328D01*
X110500000Y-85500000D02*
X101065686Y-85500000D01*
X111025000Y-87750000D02*
X112775000Y-89500000D01*
%TO.N,/LED6*%
X101525000Y-71525000D02*
X101500000Y-71500000D01*
X101125000Y-77625000D02*
X99000000Y-79750000D01*
X101000000Y-72000000D02*
X101000000Y-75000000D01*
X104775000Y-70000000D02*
X104775000Y-70500000D01*
X96447056Y-79750000D02*
X93800699Y-77103643D01*
X101500000Y-71500000D02*
X101000000Y-72000000D01*
X99000000Y-79750000D02*
X96447056Y-79750000D01*
X103750000Y-71525000D02*
X101525000Y-71525000D01*
X104775000Y-70500000D02*
X103750000Y-71525000D01*
X101000000Y-75000000D02*
X101125000Y-75125000D01*
X101125000Y-75125000D02*
X101125000Y-77625000D01*
X103275000Y-68500000D02*
X104775000Y-70000000D01*
%TO.N,/LED2*%
X90250000Y-68750000D02*
X92125000Y-66875000D01*
X92125000Y-66875000D02*
X92125000Y-60000000D01*
X91302944Y-72000000D02*
X92103643Y-71199301D01*
X92125000Y-60000000D02*
X91100000Y-58975000D01*
X88900000Y-58975000D02*
X91100000Y-58975000D01*
X90250000Y-72000000D02*
X91302944Y-72000000D01*
%TO.N,/LED4*%
X77750000Y-67000000D02*
X85959798Y-67000000D01*
X76725000Y-68500000D02*
X75225000Y-70000000D01*
X75225000Y-70000000D02*
X75225000Y-70500000D01*
X76725000Y-68025000D02*
X77750000Y-67000000D01*
X76725000Y-68500000D02*
X76725000Y-68025000D01*
X85959798Y-67000000D02*
X89027728Y-70067930D01*
%TO.N,/LED8*%
X67225000Y-89500000D02*
X67250000Y-89000000D01*
X67250000Y-89000000D02*
X68975000Y-87250000D01*
%TD*%
%TA.AperFunction,Conductor*%
%TO.N,+3V3*%
G36*
X96753527Y-89153502D02*
G01*
X96774501Y-89170405D01*
X97730501Y-90126405D01*
X97764527Y-90188717D01*
X97759462Y-90259532D01*
X97716915Y-90316368D01*
X97650395Y-90341179D01*
X97641406Y-90341500D01*
X97006866Y-90341500D01*
X96944684Y-90348255D01*
X96808295Y-90399385D01*
X96691739Y-90486739D01*
X96604385Y-90603295D01*
X96553255Y-90739684D01*
X96546500Y-90801866D01*
X96546500Y-91898134D01*
X96553255Y-91960316D01*
X96604385Y-92096705D01*
X96691739Y-92213261D01*
X96808295Y-92300615D01*
X96944684Y-92351745D01*
X97006866Y-92358500D01*
X97903134Y-92358500D01*
X97965316Y-92351745D01*
X98101705Y-92300615D01*
X98218261Y-92213261D01*
X98305615Y-92096705D01*
X98356745Y-91960316D01*
X98363500Y-91898134D01*
X98363500Y-91063594D01*
X98383502Y-90995473D01*
X98437158Y-90948980D01*
X98507432Y-90938876D01*
X98572012Y-90968370D01*
X98578595Y-90974499D01*
X101079595Y-93475499D01*
X101113621Y-93537811D01*
X101116500Y-93564594D01*
X101116500Y-95297476D01*
X101096498Y-95365597D01*
X101084142Y-95381779D01*
X101010960Y-95463056D01*
X100915473Y-95628444D01*
X100856458Y-95810072D01*
X100855768Y-95816633D01*
X100855768Y-95816635D01*
X100839093Y-95975292D01*
X100812080Y-96040949D01*
X100802878Y-96051217D01*
X100199499Y-96654596D01*
X100137187Y-96688622D01*
X100110404Y-96691501D01*
X97437566Y-96691501D01*
X97369445Y-96671499D01*
X97322952Y-96617843D01*
X97311739Y-96558906D01*
X97312770Y-96539246D01*
X97317293Y-96452936D01*
X97288175Y-96260401D01*
X97285972Y-96254415D01*
X97285971Y-96254409D01*
X97223140Y-96083640D01*
X97223138Y-96083635D01*
X97220937Y-96077654D01*
X97151422Y-95965538D01*
X97121688Y-95917582D01*
X97121687Y-95917581D01*
X97118326Y-95912160D01*
X96984534Y-95770678D01*
X96960716Y-95754000D01*
X96830259Y-95662654D01*
X96825025Y-95658989D01*
X96766123Y-95633500D01*
X96652175Y-95584190D01*
X96652171Y-95584189D01*
X96646316Y-95581655D01*
X96640069Y-95580350D01*
X96640066Y-95580349D01*
X96460443Y-95542824D01*
X96460438Y-95542823D01*
X96455707Y-95541835D01*
X96449315Y-95541500D01*
X96306337Y-95541500D01*
X96237049Y-95548538D01*
X96167622Y-95555590D01*
X96167621Y-95555590D01*
X96161273Y-95556235D01*
X96104939Y-95573889D01*
X95981549Y-95612556D01*
X95981544Y-95612558D01*
X95975459Y-95614465D01*
X95920579Y-95644886D01*
X95810729Y-95705777D01*
X95810726Y-95705779D01*
X95805150Y-95708870D01*
X95800309Y-95713019D01*
X95800305Y-95713022D01*
X95679418Y-95816635D01*
X95657302Y-95835591D01*
X95537954Y-95989453D01*
X95535138Y-95995176D01*
X95535136Y-95995179D01*
X95491631Y-96083594D01*
X95451982Y-96164171D01*
X95450373Y-96170347D01*
X95450371Y-96170353D01*
X95417315Y-96297260D01*
X95380788Y-96358140D01*
X95317146Y-96389606D01*
X95295384Y-96391500D01*
X93796866Y-96391500D01*
X93734684Y-96398255D01*
X93598295Y-96449385D01*
X93481739Y-96536739D01*
X93394385Y-96653295D01*
X93343255Y-96789684D01*
X93336500Y-96851866D01*
X93336500Y-97648134D01*
X93343255Y-97710316D01*
X93394385Y-97846705D01*
X93481739Y-97963261D01*
X93598295Y-98050615D01*
X93734684Y-98101745D01*
X93796866Y-98108500D01*
X94210500Y-98108500D01*
X94278621Y-98128502D01*
X94325114Y-98182158D01*
X94336500Y-98234500D01*
X94336500Y-99198134D01*
X94343255Y-99260316D01*
X94394385Y-99396705D01*
X94481739Y-99513261D01*
X94598295Y-99600615D01*
X94734684Y-99651745D01*
X94796866Y-99658500D01*
X95693134Y-99658500D01*
X95755316Y-99651745D01*
X95891705Y-99600615D01*
X96008261Y-99513261D01*
X96095615Y-99396705D01*
X96146745Y-99260316D01*
X96153500Y-99198134D01*
X96153500Y-98101866D01*
X96153091Y-98098103D01*
X96153107Y-98098017D01*
X96152947Y-98095072D01*
X96153641Y-98095034D01*
X96165622Y-98028222D01*
X96213945Y-97976208D01*
X96278355Y-97958501D01*
X96421645Y-97958501D01*
X96489766Y-97978503D01*
X96536259Y-98032159D01*
X96546414Y-98095037D01*
X96547053Y-98095072D01*
X96546894Y-98098010D01*
X96546909Y-98098103D01*
X96546500Y-98101866D01*
X96546500Y-99198134D01*
X96553255Y-99260316D01*
X96604385Y-99396705D01*
X96691739Y-99513261D01*
X96808295Y-99600615D01*
X96944684Y-99651745D01*
X97006866Y-99658500D01*
X97903134Y-99658500D01*
X97965316Y-99651745D01*
X98101705Y-99600615D01*
X98218261Y-99513261D01*
X98305615Y-99396705D01*
X98356745Y-99260316D01*
X98363500Y-99198134D01*
X98363500Y-98101866D01*
X98363091Y-98098103D01*
X98363107Y-98098017D01*
X98362947Y-98095072D01*
X98363641Y-98095034D01*
X98375622Y-98028222D01*
X98423945Y-97976208D01*
X98488355Y-97958501D01*
X100346232Y-97958501D01*
X100357415Y-97959028D01*
X100364908Y-97960703D01*
X100372834Y-97960454D01*
X100372835Y-97960454D01*
X100432985Y-97958563D01*
X100436944Y-97958501D01*
X100464855Y-97958501D01*
X100468790Y-97958004D01*
X100468855Y-97957996D01*
X100480692Y-97957063D01*
X100512950Y-97956049D01*
X100516969Y-97955923D01*
X100524888Y-97955674D01*
X100544342Y-97950022D01*
X100563699Y-97946014D01*
X100575929Y-97944469D01*
X100575930Y-97944469D01*
X100583796Y-97943475D01*
X100591167Y-97940556D01*
X100591169Y-97940556D01*
X100624911Y-97927197D01*
X100636141Y-97923352D01*
X100670982Y-97913230D01*
X100670983Y-97913230D01*
X100678592Y-97911019D01*
X100685411Y-97906986D01*
X100685416Y-97906984D01*
X100696027Y-97900708D01*
X100713775Y-97892013D01*
X100732616Y-97884553D01*
X100768386Y-97858565D01*
X100778306Y-97852049D01*
X100809534Y-97833581D01*
X100809537Y-97833579D01*
X100816361Y-97829543D01*
X100830682Y-97815222D01*
X100845716Y-97802381D01*
X100855693Y-97795132D01*
X100862106Y-97790473D01*
X100890297Y-97756396D01*
X100898287Y-97747617D01*
X101700499Y-96945405D01*
X101762811Y-96911379D01*
X101789594Y-96908500D01*
X101845487Y-96908500D01*
X101851939Y-96907128D01*
X101851944Y-96907128D01*
X101938888Y-96888647D01*
X102032288Y-96868794D01*
X102038319Y-96866109D01*
X102200722Y-96793803D01*
X102200724Y-96793802D01*
X102206752Y-96791118D01*
X102291439Y-96729589D01*
X102358307Y-96705731D01*
X102427458Y-96721811D01*
X102476938Y-96772725D01*
X102491500Y-96831525D01*
X102491500Y-100575507D01*
X102471498Y-100643628D01*
X102417842Y-100690121D01*
X102396237Y-100697543D01*
X102389684Y-100698255D01*
X102382289Y-100701027D01*
X102382286Y-100701028D01*
X102267978Y-100743880D01*
X102253295Y-100749385D01*
X102136739Y-100836739D01*
X102049385Y-100953295D01*
X101998255Y-101089684D01*
X101991500Y-101151866D01*
X101991500Y-101440500D01*
X101971498Y-101508621D01*
X101917842Y-101555114D01*
X101865500Y-101566500D01*
X101179197Y-101566500D01*
X101111076Y-101546498D01*
X101064583Y-101492842D01*
X101059674Y-101480377D01*
X101043867Y-101432998D01*
X101043866Y-101432996D01*
X101041550Y-101426054D01*
X101012289Y-101378768D01*
X100952332Y-101281880D01*
X100948478Y-101275652D01*
X100823303Y-101150695D01*
X100795945Y-101133831D01*
X100678968Y-101061725D01*
X100678966Y-101061724D01*
X100672738Y-101057885D01*
X100559820Y-101020432D01*
X100511389Y-101004368D01*
X100511387Y-101004368D01*
X100504861Y-101002203D01*
X100498025Y-101001503D01*
X100498022Y-101001502D01*
X100454969Y-100997091D01*
X100400400Y-100991500D01*
X99599600Y-100991500D01*
X99596354Y-100991837D01*
X99596350Y-100991837D01*
X99500692Y-101001762D01*
X99500688Y-101001763D01*
X99493834Y-101002474D01*
X99487298Y-101004655D01*
X99487296Y-101004655D01*
X99440007Y-101020432D01*
X99326054Y-101058450D01*
X99175652Y-101151522D01*
X99107169Y-101220125D01*
X99089216Y-101238109D01*
X99026934Y-101272188D01*
X98956114Y-101267185D01*
X98911025Y-101238264D01*
X98828483Y-101155866D01*
X98823303Y-101150695D01*
X98795945Y-101133831D01*
X98678968Y-101061725D01*
X98678966Y-101061724D01*
X98672738Y-101057885D01*
X98559820Y-101020432D01*
X98511389Y-101004368D01*
X98511387Y-101004368D01*
X98504861Y-101002203D01*
X98498025Y-101001503D01*
X98498022Y-101001502D01*
X98454969Y-100997091D01*
X98400400Y-100991500D01*
X97599600Y-100991500D01*
X97596354Y-100991837D01*
X97596350Y-100991837D01*
X97500692Y-101001762D01*
X97500688Y-101001763D01*
X97493834Y-101002474D01*
X97487298Y-101004655D01*
X97487296Y-101004655D01*
X97440007Y-101020432D01*
X97326054Y-101058450D01*
X97175652Y-101151522D01*
X97050695Y-101276697D01*
X97046855Y-101282927D01*
X97046854Y-101282928D01*
X96969215Y-101408882D01*
X96957885Y-101427262D01*
X96955581Y-101434209D01*
X96953379Y-101438931D01*
X96906463Y-101492216D01*
X96838186Y-101511678D01*
X96765123Y-101487618D01*
X96662094Y-101412763D01*
X96662093Y-101412762D01*
X96656752Y-101408882D01*
X96650724Y-101406198D01*
X96650722Y-101406197D01*
X96488319Y-101333891D01*
X96488318Y-101333891D01*
X96482288Y-101331206D01*
X96388888Y-101311353D01*
X96301944Y-101292872D01*
X96301939Y-101292872D01*
X96295487Y-101291500D01*
X96104513Y-101291500D01*
X96098061Y-101292872D01*
X96098056Y-101292872D01*
X96011113Y-101311353D01*
X95917712Y-101331206D01*
X95911682Y-101333891D01*
X95911681Y-101333891D01*
X95749278Y-101406197D01*
X95749276Y-101406198D01*
X95743248Y-101408882D01*
X95737907Y-101412762D01*
X95737906Y-101412763D01*
X95728181Y-101419829D01*
X95588747Y-101521134D01*
X95584326Y-101526044D01*
X95584325Y-101526045D01*
X95501194Y-101618372D01*
X95460960Y-101663056D01*
X95365473Y-101828444D01*
X95306458Y-102010072D01*
X95286496Y-102200000D01*
X95306458Y-102389928D01*
X95365473Y-102571556D01*
X95460960Y-102736944D01*
X95465378Y-102741851D01*
X95465379Y-102741852D01*
X95556338Y-102842872D01*
X95588747Y-102878866D01*
X95634896Y-102912395D01*
X95708389Y-102965791D01*
X95743248Y-102991118D01*
X95749276Y-102993802D01*
X95749278Y-102993803D01*
X95894863Y-103058621D01*
X95917712Y-103068794D01*
X96011112Y-103088647D01*
X96098056Y-103107128D01*
X96098061Y-103107128D01*
X96104513Y-103108500D01*
X96295487Y-103108500D01*
X96301939Y-103107128D01*
X96301944Y-103107128D01*
X96388888Y-103088647D01*
X96482288Y-103068794D01*
X96505137Y-103058621D01*
X96650722Y-102993803D01*
X96650724Y-102993802D01*
X96656752Y-102991118D01*
X96691612Y-102965791D01*
X96765104Y-102912395D01*
X96831971Y-102888537D01*
X96901123Y-102904617D01*
X96953266Y-102960881D01*
X96956133Y-102967002D01*
X96958450Y-102973946D01*
X97051522Y-103124348D01*
X97176697Y-103249305D01*
X97182927Y-103253145D01*
X97182928Y-103253146D01*
X97320090Y-103337694D01*
X97327262Y-103342115D01*
X97358123Y-103352351D01*
X97488611Y-103395632D01*
X97488613Y-103395632D01*
X97495139Y-103397797D01*
X97501975Y-103398497D01*
X97501978Y-103398498D01*
X97545031Y-103402909D01*
X97599600Y-103408500D01*
X98400400Y-103408500D01*
X98403646Y-103408163D01*
X98403650Y-103408163D01*
X98499308Y-103398238D01*
X98499312Y-103398237D01*
X98506166Y-103397526D01*
X98512702Y-103395345D01*
X98512704Y-103395345D01*
X98644806Y-103351272D01*
X98673946Y-103341550D01*
X98824348Y-103248478D01*
X98910784Y-103161891D01*
X98973066Y-103127812D01*
X99043886Y-103132815D01*
X99088976Y-103161736D01*
X99176697Y-103249305D01*
X99182927Y-103253145D01*
X99182928Y-103253146D01*
X99320090Y-103337694D01*
X99327262Y-103342115D01*
X99358123Y-103352351D01*
X99488611Y-103395632D01*
X99488613Y-103395632D01*
X99495139Y-103397797D01*
X99501975Y-103398497D01*
X99501978Y-103398498D01*
X99545031Y-103402909D01*
X99599600Y-103408500D01*
X100400400Y-103408500D01*
X100403646Y-103408163D01*
X100403650Y-103408163D01*
X100499308Y-103398238D01*
X100499312Y-103398237D01*
X100506166Y-103397526D01*
X100512702Y-103395345D01*
X100512704Y-103395345D01*
X100644806Y-103351272D01*
X100673946Y-103341550D01*
X100824348Y-103248478D01*
X100949305Y-103123303D01*
X100953146Y-103117072D01*
X101038275Y-102978968D01*
X101038276Y-102978966D01*
X101042115Y-102972738D01*
X101059663Y-102919832D01*
X101100094Y-102861473D01*
X101165658Y-102834236D01*
X101179256Y-102833500D01*
X101865500Y-102833500D01*
X101933621Y-102853502D01*
X101980114Y-102907158D01*
X101991500Y-102959500D01*
X101991500Y-103248134D01*
X101998255Y-103310316D01*
X102049385Y-103446705D01*
X102136739Y-103563261D01*
X102253295Y-103650615D01*
X102389684Y-103701745D01*
X102451866Y-103708500D01*
X103798134Y-103708500D01*
X103860316Y-103701745D01*
X103996705Y-103650615D01*
X104113261Y-103563261D01*
X104200615Y-103446705D01*
X104251745Y-103310316D01*
X104258500Y-103248134D01*
X104258500Y-101151866D01*
X104251745Y-101089684D01*
X104200615Y-100953295D01*
X104113261Y-100836739D01*
X103996705Y-100749385D01*
X103982022Y-100743880D01*
X103867714Y-100701028D01*
X103867711Y-100701027D01*
X103860316Y-100698255D01*
X103854547Y-100697628D01*
X103793709Y-100662874D01*
X103760887Y-100599919D01*
X103758500Y-100575507D01*
X103758500Y-100208594D01*
X103778502Y-100140473D01*
X103832158Y-100093980D01*
X103902432Y-100083876D01*
X103967012Y-100113370D01*
X103973595Y-100119499D01*
X109854595Y-106000499D01*
X109888621Y-106062811D01*
X109891500Y-106089594D01*
X109891500Y-106750400D01*
X109891837Y-106753646D01*
X109891837Y-106753650D01*
X109898086Y-106813871D01*
X109902474Y-106856166D01*
X109958450Y-107023946D01*
X110051522Y-107174348D01*
X110176697Y-107299305D01*
X110182927Y-107303145D01*
X110182928Y-107303146D01*
X110320090Y-107387694D01*
X110327262Y-107392115D01*
X110407005Y-107418564D01*
X110488611Y-107445632D01*
X110488613Y-107445632D01*
X110495139Y-107447797D01*
X110501975Y-107448497D01*
X110501978Y-107448498D01*
X110539908Y-107452384D01*
X110599600Y-107458500D01*
X110760405Y-107458500D01*
X110828526Y-107478502D01*
X110849501Y-107495405D01*
X111604596Y-108250501D01*
X111638621Y-108312813D01*
X111641500Y-108339594D01*
X111641500Y-109000400D01*
X111641837Y-109003646D01*
X111641837Y-109003650D01*
X111643248Y-109017244D01*
X111652474Y-109106166D01*
X111654655Y-109112702D01*
X111654655Y-109112704D01*
X111659798Y-109128118D01*
X111708450Y-109273946D01*
X111724077Y-109299198D01*
X111742914Y-109367648D01*
X111721753Y-109435418D01*
X111667313Y-109480989D01*
X111616932Y-109491500D01*
X68632950Y-109491500D01*
X68564829Y-109471498D01*
X68518336Y-109417842D01*
X68508232Y-109347568D01*
X68525690Y-109299384D01*
X68538275Y-109278968D01*
X68538276Y-109278966D01*
X68542115Y-109272738D01*
X68593006Y-109119305D01*
X68595632Y-109111389D01*
X68595632Y-109111387D01*
X68597797Y-109104861D01*
X68601687Y-109066900D01*
X68608172Y-109003598D01*
X68608500Y-109000400D01*
X68608500Y-108339594D01*
X68628502Y-108271473D01*
X68645405Y-108250499D01*
X69392247Y-107503657D01*
X69400537Y-107496113D01*
X69407018Y-107492000D01*
X69412443Y-107486223D01*
X69418552Y-107481169D01*
X69419897Y-107482795D01*
X69471664Y-107452384D01*
X69489291Y-107449277D01*
X69499308Y-107448238D01*
X69499312Y-107448237D01*
X69506166Y-107447526D01*
X69512702Y-107445345D01*
X69512704Y-107445345D01*
X69644806Y-107401272D01*
X69673946Y-107391550D01*
X69824348Y-107298478D01*
X69949305Y-107173303D01*
X69995030Y-107099124D01*
X70038275Y-107028968D01*
X70038276Y-107028966D01*
X70042115Y-107022738D01*
X70097797Y-106854861D01*
X70108500Y-106750400D01*
X70108500Y-106089594D01*
X70128502Y-106021473D01*
X70145405Y-106000499D01*
X74392253Y-101753652D01*
X74400539Y-101746112D01*
X74407018Y-101742000D01*
X74453644Y-101692348D01*
X74456398Y-101689507D01*
X74476135Y-101669770D01*
X74478615Y-101666573D01*
X74486320Y-101657551D01*
X74511159Y-101631100D01*
X74516586Y-101625321D01*
X74520405Y-101618375D01*
X74520407Y-101618372D01*
X74526348Y-101607566D01*
X74537199Y-101591047D01*
X74544758Y-101581301D01*
X74549614Y-101575041D01*
X74552759Y-101567772D01*
X74552762Y-101567768D01*
X74567174Y-101534463D01*
X74572391Y-101523813D01*
X74593695Y-101485060D01*
X74598733Y-101465437D01*
X74605137Y-101446734D01*
X74610033Y-101435420D01*
X74610033Y-101435419D01*
X74613181Y-101428145D01*
X74614420Y-101420322D01*
X74614423Y-101420312D01*
X74620099Y-101384476D01*
X74622505Y-101372856D01*
X74631528Y-101337711D01*
X74631528Y-101337710D01*
X74633500Y-101330030D01*
X74633500Y-101309776D01*
X74635051Y-101290065D01*
X74636980Y-101277886D01*
X74638220Y-101270057D01*
X74634059Y-101226038D01*
X74633500Y-101214181D01*
X74633500Y-100064594D01*
X74653502Y-99996473D01*
X74670405Y-99975499D01*
X75142247Y-99503657D01*
X75150537Y-99496113D01*
X75157018Y-99492000D01*
X75176749Y-99470989D01*
X75203658Y-99442333D01*
X75206413Y-99439491D01*
X75226134Y-99419770D01*
X75228612Y-99416575D01*
X75236318Y-99407553D01*
X75261158Y-99381101D01*
X75266586Y-99375321D01*
X75276346Y-99357568D01*
X75287199Y-99341045D01*
X75294753Y-99331306D01*
X75299613Y-99325041D01*
X75317176Y-99284457D01*
X75322383Y-99273827D01*
X75343695Y-99235060D01*
X75345666Y-99227383D01*
X75345668Y-99227378D01*
X75348732Y-99215442D01*
X75355138Y-99196730D01*
X75355912Y-99194943D01*
X75363181Y-99178145D01*
X75364421Y-99170317D01*
X75364423Y-99170310D01*
X75370099Y-99134476D01*
X75372505Y-99122856D01*
X75381528Y-99087711D01*
X75381528Y-99087710D01*
X75383500Y-99080030D01*
X75383500Y-99059776D01*
X75385051Y-99040065D01*
X75386980Y-99027886D01*
X75388220Y-99020057D01*
X75384059Y-98976038D01*
X75383500Y-98964181D01*
X75383500Y-98833594D01*
X75403502Y-98765473D01*
X75457158Y-98718980D01*
X75527432Y-98708876D01*
X75592012Y-98738370D01*
X75598595Y-98744499D01*
X76204595Y-99350499D01*
X76238621Y-99412811D01*
X76241500Y-99439594D01*
X76241500Y-100575507D01*
X76221498Y-100643628D01*
X76167842Y-100690121D01*
X76146237Y-100697543D01*
X76139684Y-100698255D01*
X76132289Y-100701027D01*
X76132286Y-100701028D01*
X76017978Y-100743880D01*
X76003295Y-100749385D01*
X75886739Y-100836739D01*
X75799385Y-100953295D01*
X75748255Y-101089684D01*
X75741500Y-101151866D01*
X75741500Y-103248134D01*
X75748255Y-103310316D01*
X75799385Y-103446705D01*
X75886739Y-103563261D01*
X76003295Y-103650615D01*
X76139684Y-103701745D01*
X76201866Y-103708500D01*
X77548134Y-103708500D01*
X77610316Y-103701745D01*
X77746705Y-103650615D01*
X77863261Y-103563261D01*
X77950615Y-103446705D01*
X78001745Y-103310316D01*
X78008500Y-103248134D01*
X78008500Y-102959500D01*
X78028502Y-102891379D01*
X78082158Y-102844886D01*
X78134500Y-102833500D01*
X78820803Y-102833500D01*
X78888924Y-102853502D01*
X78935417Y-102907158D01*
X78940326Y-102919623D01*
X78958450Y-102973946D01*
X79051522Y-103124348D01*
X79176697Y-103249305D01*
X79182927Y-103253145D01*
X79182928Y-103253146D01*
X79320090Y-103337694D01*
X79327262Y-103342115D01*
X79358123Y-103352351D01*
X79488611Y-103395632D01*
X79488613Y-103395632D01*
X79495139Y-103397797D01*
X79501975Y-103398497D01*
X79501978Y-103398498D01*
X79545031Y-103402909D01*
X79599600Y-103408500D01*
X80400400Y-103408500D01*
X80403646Y-103408163D01*
X80403650Y-103408163D01*
X80499308Y-103398238D01*
X80499312Y-103398237D01*
X80506166Y-103397526D01*
X80512702Y-103395345D01*
X80512704Y-103395345D01*
X80644806Y-103351272D01*
X80673946Y-103341550D01*
X80824348Y-103248478D01*
X80910784Y-103161891D01*
X80973066Y-103127812D01*
X81043886Y-103132815D01*
X81088974Y-103161736D01*
X81148388Y-103221046D01*
X81182468Y-103283328D01*
X81177465Y-103354148D01*
X81169713Y-103370619D01*
X81168777Y-103372721D01*
X81165473Y-103378444D01*
X81106458Y-103560072D01*
X81105768Y-103566633D01*
X81105768Y-103566635D01*
X81094105Y-103677604D01*
X81086496Y-103750000D01*
X81087186Y-103756565D01*
X81097821Y-103857747D01*
X81106458Y-103939928D01*
X81165473Y-104121556D01*
X81260960Y-104286944D01*
X81265378Y-104291851D01*
X81265379Y-104291852D01*
X81368600Y-104406491D01*
X81388747Y-104428866D01*
X81543248Y-104541118D01*
X81549276Y-104543802D01*
X81549278Y-104543803D01*
X81711681Y-104616109D01*
X81717712Y-104618794D01*
X81811113Y-104638647D01*
X81898056Y-104657128D01*
X81898061Y-104657128D01*
X81904513Y-104658500D01*
X82095487Y-104658500D01*
X82101939Y-104657128D01*
X82101944Y-104657128D01*
X82188888Y-104638647D01*
X82282288Y-104618794D01*
X82288319Y-104616109D01*
X82450722Y-104543803D01*
X82450724Y-104543802D01*
X82456752Y-104541118D01*
X82611253Y-104428866D01*
X82631400Y-104406491D01*
X82734621Y-104291852D01*
X82734622Y-104291851D01*
X82739040Y-104286944D01*
X82834527Y-104121556D01*
X82893542Y-103939928D01*
X82902180Y-103857747D01*
X82912814Y-103756565D01*
X82913504Y-103750000D01*
X82905895Y-103677604D01*
X82894232Y-103566635D01*
X82894232Y-103566633D01*
X82893542Y-103560072D01*
X82834527Y-103378444D01*
X82831223Y-103372721D01*
X82828539Y-103366693D01*
X82829814Y-103366125D01*
X82814817Y-103304297D01*
X82838040Y-103237206D01*
X82851501Y-103221278D01*
X82944134Y-103128483D01*
X82949305Y-103123303D01*
X82953146Y-103117072D01*
X83038275Y-102978968D01*
X83038276Y-102978966D01*
X83042115Y-102972738D01*
X83081664Y-102853502D01*
X83095632Y-102811389D01*
X83095632Y-102811387D01*
X83097797Y-102804861D01*
X83108500Y-102700400D01*
X83108500Y-101699600D01*
X83107748Y-101692349D01*
X83098238Y-101600692D01*
X83098237Y-101600688D01*
X83097526Y-101593834D01*
X83081734Y-101546498D01*
X83043868Y-101433002D01*
X83041550Y-101426054D01*
X82948478Y-101275652D01*
X82823303Y-101150695D01*
X82795945Y-101133831D01*
X82678968Y-101061725D01*
X82678966Y-101061724D01*
X82672738Y-101057885D01*
X82559820Y-101020432D01*
X82511389Y-101004368D01*
X82511387Y-101004368D01*
X82504861Y-101002203D01*
X82498025Y-101001503D01*
X82498022Y-101001502D01*
X82454969Y-100997091D01*
X82400400Y-100991500D01*
X81599600Y-100991500D01*
X81596354Y-100991837D01*
X81596350Y-100991837D01*
X81500692Y-101001762D01*
X81500688Y-101001763D01*
X81493834Y-101002474D01*
X81487298Y-101004655D01*
X81487296Y-101004655D01*
X81440007Y-101020432D01*
X81326054Y-101058450D01*
X81175652Y-101151522D01*
X81107169Y-101220125D01*
X81089216Y-101238109D01*
X81026934Y-101272188D01*
X80956114Y-101267185D01*
X80911025Y-101238264D01*
X80828483Y-101155866D01*
X80823303Y-101150695D01*
X80795945Y-101133831D01*
X80678968Y-101061725D01*
X80678966Y-101061724D01*
X80672738Y-101057885D01*
X80559820Y-101020432D01*
X80511389Y-101004368D01*
X80511387Y-101004368D01*
X80504861Y-101002203D01*
X80498025Y-101001503D01*
X80498022Y-101001502D01*
X80454969Y-100997091D01*
X80400400Y-100991500D01*
X79599600Y-100991500D01*
X79596354Y-100991837D01*
X79596350Y-100991837D01*
X79500692Y-101001762D01*
X79500688Y-101001763D01*
X79493834Y-101002474D01*
X79487298Y-101004655D01*
X79487296Y-101004655D01*
X79440007Y-101020432D01*
X79326054Y-101058450D01*
X79175652Y-101151522D01*
X79050695Y-101276697D01*
X79046855Y-101282927D01*
X79046854Y-101282928D01*
X78969215Y-101408882D01*
X78957885Y-101427262D01*
X78948408Y-101455834D01*
X78940337Y-101480168D01*
X78899906Y-101538527D01*
X78834342Y-101565764D01*
X78820744Y-101566500D01*
X78134500Y-101566500D01*
X78066379Y-101546498D01*
X78019886Y-101492842D01*
X78008500Y-101440500D01*
X78008500Y-101151866D01*
X78001745Y-101089684D01*
X77950615Y-100953295D01*
X77863261Y-100836739D01*
X77746705Y-100749385D01*
X77732022Y-100743880D01*
X77617714Y-100701028D01*
X77617711Y-100701027D01*
X77610316Y-100698255D01*
X77604547Y-100697628D01*
X77543709Y-100662874D01*
X77510887Y-100599919D01*
X77508500Y-100575507D01*
X77508500Y-99203768D01*
X77509027Y-99192585D01*
X77510702Y-99185092D01*
X77510238Y-99170310D01*
X77508562Y-99117002D01*
X77508500Y-99113044D01*
X77508500Y-99085144D01*
X77507996Y-99081153D01*
X77507063Y-99069311D01*
X77506764Y-99059776D01*
X77505674Y-99025111D01*
X77500021Y-99005652D01*
X77496012Y-98986293D01*
X77495732Y-98984074D01*
X77493474Y-98966203D01*
X77490558Y-98958837D01*
X77490556Y-98958831D01*
X77477200Y-98925098D01*
X77473355Y-98913868D01*
X77463230Y-98879017D01*
X77463230Y-98879016D01*
X77461019Y-98871407D01*
X77450705Y-98853966D01*
X77442008Y-98836213D01*
X77437472Y-98824758D01*
X77434552Y-98817383D01*
X77408563Y-98781612D01*
X77402047Y-98771692D01*
X77383578Y-98740463D01*
X77379542Y-98733638D01*
X77365221Y-98719317D01*
X77352380Y-98704283D01*
X77345131Y-98694306D01*
X77340472Y-98687893D01*
X77306395Y-98659702D01*
X77297616Y-98651712D01*
X76170405Y-97524500D01*
X76136379Y-97462188D01*
X76133500Y-97435405D01*
X76133500Y-96948134D01*
X77091500Y-96948134D01*
X77098255Y-97010316D01*
X77149385Y-97146705D01*
X77236739Y-97263261D01*
X77353295Y-97350615D01*
X77489684Y-97401745D01*
X77551866Y-97408500D01*
X79648134Y-97408500D01*
X79710316Y-97401745D01*
X79846705Y-97350615D01*
X79963261Y-97263261D01*
X80050615Y-97146705D01*
X80101745Y-97010316D01*
X80108500Y-96948134D01*
X80108500Y-95759500D01*
X80128502Y-95691379D01*
X80182158Y-95644886D01*
X80234500Y-95633500D01*
X83265500Y-95633500D01*
X83333621Y-95653502D01*
X83380114Y-95707158D01*
X83391500Y-95759500D01*
X83391500Y-95798134D01*
X83398255Y-95860316D01*
X83449385Y-95996705D01*
X83454770Y-96003890D01*
X83454771Y-96003892D01*
X83507640Y-96074435D01*
X83532488Y-96140942D01*
X83517435Y-96210324D01*
X83507640Y-96225565D01*
X83449385Y-96303295D01*
X83398255Y-96439684D01*
X83391500Y-96501866D01*
X83391500Y-96539246D01*
X83371498Y-96607367D01*
X83317842Y-96653860D01*
X83260069Y-96663601D01*
X83260091Y-96664298D01*
X83254985Y-96664458D01*
X83254981Y-96664459D01*
X83252168Y-96664547D01*
X83252167Y-96664547D01*
X83192014Y-96666438D01*
X83188055Y-96666500D01*
X83160144Y-96666500D01*
X83156210Y-96666997D01*
X83156209Y-96666997D01*
X83156144Y-96667005D01*
X83144307Y-96667938D01*
X83112049Y-96668952D01*
X83108030Y-96669078D01*
X83100111Y-96669327D01*
X83080657Y-96674979D01*
X83061300Y-96678987D01*
X83049070Y-96680532D01*
X83049069Y-96680532D01*
X83041203Y-96681526D01*
X83033832Y-96684445D01*
X83033830Y-96684445D01*
X83000088Y-96697804D01*
X82988858Y-96701649D01*
X82954017Y-96711771D01*
X82954016Y-96711771D01*
X82946407Y-96713982D01*
X82939588Y-96718015D01*
X82939583Y-96718017D01*
X82928972Y-96724293D01*
X82911224Y-96732988D01*
X82892383Y-96740448D01*
X82885967Y-96745110D01*
X82885966Y-96745110D01*
X82856613Y-96766436D01*
X82846693Y-96772952D01*
X82815465Y-96791420D01*
X82815462Y-96791422D01*
X82808638Y-96795458D01*
X82794317Y-96809779D01*
X82779284Y-96822619D01*
X82762893Y-96834528D01*
X82757842Y-96840634D01*
X82734702Y-96868605D01*
X82726712Y-96877384D01*
X81549500Y-98054595D01*
X81487188Y-98088621D01*
X81460405Y-98091500D01*
X81404513Y-98091500D01*
X81398061Y-98092872D01*
X81398056Y-98092872D01*
X81311113Y-98111353D01*
X81217712Y-98131206D01*
X81211682Y-98133891D01*
X81211681Y-98133891D01*
X81049278Y-98206197D01*
X81049276Y-98206198D01*
X81043248Y-98208882D01*
X80888747Y-98321134D01*
X80884326Y-98326044D01*
X80884325Y-98326045D01*
X80800951Y-98418642D01*
X80760960Y-98463056D01*
X80665473Y-98628444D01*
X80606458Y-98810072D01*
X80605768Y-98816633D01*
X80605768Y-98816635D01*
X80599212Y-98879017D01*
X80586496Y-99000000D01*
X80587186Y-99006565D01*
X80605220Y-99178145D01*
X80606458Y-99189928D01*
X80665473Y-99371556D01*
X80760960Y-99536944D01*
X80765378Y-99541851D01*
X80765379Y-99541852D01*
X80842176Y-99627144D01*
X80888747Y-99678866D01*
X80904380Y-99690224D01*
X81035955Y-99785819D01*
X81043248Y-99791118D01*
X81049276Y-99793802D01*
X81049278Y-99793803D01*
X81211681Y-99866109D01*
X81217712Y-99868794D01*
X81311112Y-99888647D01*
X81398056Y-99907128D01*
X81398061Y-99907128D01*
X81404513Y-99908500D01*
X81595487Y-99908500D01*
X81601939Y-99907128D01*
X81601944Y-99907128D01*
X81688888Y-99888647D01*
X81782288Y-99868794D01*
X81788319Y-99866109D01*
X81950722Y-99793803D01*
X81950724Y-99793802D01*
X81956752Y-99791118D01*
X81964046Y-99785819D01*
X82095620Y-99690224D01*
X82111253Y-99678866D01*
X82157824Y-99627144D01*
X82234621Y-99541852D01*
X82234622Y-99541851D01*
X82239040Y-99536944D01*
X82334527Y-99371556D01*
X82393542Y-99189928D01*
X82394781Y-99178145D01*
X82410907Y-99024707D01*
X82437920Y-98959050D01*
X82447122Y-98948782D01*
X82900675Y-98495229D01*
X83215522Y-98180383D01*
X83277832Y-98146358D01*
X83348647Y-98151423D01*
X83405483Y-98193970D01*
X83422597Y-98225249D01*
X83441061Y-98274500D01*
X83449385Y-98296705D01*
X83536739Y-98413261D01*
X83653295Y-98500615D01*
X83789684Y-98551745D01*
X83851866Y-98558500D01*
X85948134Y-98558500D01*
X86010316Y-98551745D01*
X86146705Y-98500615D01*
X86263261Y-98413261D01*
X86350615Y-98296705D01*
X86401745Y-98160316D01*
X86408500Y-98098134D01*
X86408500Y-96501866D01*
X86401745Y-96439684D01*
X86350615Y-96303295D01*
X86292360Y-96225565D01*
X86267512Y-96159058D01*
X86282565Y-96089676D01*
X86292360Y-96074435D01*
X86345229Y-96003892D01*
X86345230Y-96003890D01*
X86350615Y-95996705D01*
X86401745Y-95860316D01*
X86408500Y-95798134D01*
X86408500Y-95408594D01*
X86428502Y-95340473D01*
X86482158Y-95293980D01*
X86552432Y-95283876D01*
X86617012Y-95313370D01*
X86623595Y-95319499D01*
X92829595Y-101525499D01*
X92863621Y-101587811D01*
X92866500Y-101614594D01*
X92866500Y-102000874D01*
X92846498Y-102068995D01*
X92792842Y-102115488D01*
X92784730Y-102118856D01*
X92715861Y-102144674D01*
X92703295Y-102149385D01*
X92586739Y-102236739D01*
X92499385Y-102353295D01*
X92448255Y-102489684D01*
X92441500Y-102551866D01*
X92441500Y-105148134D01*
X92448255Y-105210316D01*
X92499385Y-105346705D01*
X92504771Y-105353891D01*
X92507218Y-105358361D01*
X92522388Y-105427718D01*
X92497653Y-105494266D01*
X92440866Y-105536878D01*
X92382656Y-105544087D01*
X92363092Y-105541893D01*
X92363089Y-105541893D01*
X92359587Y-105541500D01*
X92247763Y-105541500D01*
X92244707Y-105541800D01*
X92244700Y-105541800D01*
X92172811Y-105548849D01*
X92108096Y-105555195D01*
X92038349Y-105541936D01*
X91986842Y-105493073D01*
X91969929Y-105424121D01*
X91992053Y-105362380D01*
X91990921Y-105361760D01*
X91994841Y-105354600D01*
X91994972Y-105354235D01*
X91995228Y-105353893D01*
X91995229Y-105353891D01*
X92000615Y-105346705D01*
X92051745Y-105210316D01*
X92058500Y-105148134D01*
X92058500Y-102551866D01*
X92051745Y-102489684D01*
X92000615Y-102353295D01*
X91913261Y-102236739D01*
X91796705Y-102149385D01*
X91660316Y-102098255D01*
X91598134Y-102091500D01*
X90401866Y-102091500D01*
X90339684Y-102098255D01*
X90203295Y-102149385D01*
X90086739Y-102236739D01*
X90085813Y-102237974D01*
X90026783Y-102270208D01*
X89955968Y-102265143D01*
X89914645Y-102238586D01*
X89913261Y-102236739D01*
X89796705Y-102149385D01*
X89660316Y-102098255D01*
X89598134Y-102091500D01*
X88401866Y-102091500D01*
X88339684Y-102098255D01*
X88203295Y-102149385D01*
X88086739Y-102236739D01*
X87999385Y-102353295D01*
X87948255Y-102489684D01*
X87941500Y-102551866D01*
X87941500Y-105148134D01*
X87948255Y-105210316D01*
X87999385Y-105346705D01*
X88005302Y-105354600D01*
X88005954Y-105355470D01*
X88006639Y-105357303D01*
X88009079Y-105361760D01*
X88008436Y-105362112D01*
X88030802Y-105421976D01*
X88015749Y-105491359D01*
X87965575Y-105541589D01*
X87891084Y-105556250D01*
X87759587Y-105541500D01*
X87647763Y-105541500D01*
X87644704Y-105541800D01*
X87644682Y-105541801D01*
X87615377Y-105544675D01*
X87545629Y-105531417D01*
X87494122Y-105482555D01*
X87477208Y-105413603D01*
X87492560Y-105358768D01*
X87495233Y-105353887D01*
X87500615Y-105346705D01*
X87503767Y-105338299D01*
X87548971Y-105217715D01*
X87551745Y-105210316D01*
X87558500Y-105148134D01*
X87558500Y-102551866D01*
X87551745Y-102489684D01*
X87500615Y-102353295D01*
X87413261Y-102236739D01*
X87296705Y-102149385D01*
X87160316Y-102098255D01*
X87098134Y-102091500D01*
X85901866Y-102091500D01*
X85839684Y-102098255D01*
X85703295Y-102149385D01*
X85586739Y-102236739D01*
X85499385Y-102353295D01*
X85448255Y-102489684D01*
X85441500Y-102551866D01*
X85441500Y-102990500D01*
X85421498Y-103058621D01*
X85367842Y-103105114D01*
X85315500Y-103116500D01*
X85208200Y-103116500D01*
X85140079Y-103096498D01*
X85120853Y-103080157D01*
X85120580Y-103080460D01*
X85115668Y-103076037D01*
X85111253Y-103071134D01*
X85069881Y-103041075D01*
X84962094Y-102962763D01*
X84962093Y-102962762D01*
X84956752Y-102958882D01*
X84950724Y-102956198D01*
X84950722Y-102956197D01*
X84788319Y-102883891D01*
X84788318Y-102883891D01*
X84782288Y-102881206D01*
X84688887Y-102861353D01*
X84601944Y-102842872D01*
X84601939Y-102842872D01*
X84595487Y-102841500D01*
X84404513Y-102841500D01*
X84398061Y-102842872D01*
X84398056Y-102842872D01*
X84311113Y-102861353D01*
X84217712Y-102881206D01*
X84211682Y-102883891D01*
X84211681Y-102883891D01*
X84049278Y-102956197D01*
X84049276Y-102956198D01*
X84043248Y-102958882D01*
X84037907Y-102962762D01*
X84037906Y-102962763D01*
X84033736Y-102965793D01*
X83888747Y-103071134D01*
X83884326Y-103076044D01*
X83884325Y-103076045D01*
X83855103Y-103108500D01*
X83760960Y-103213056D01*
X83708282Y-103304297D01*
X83685436Y-103343868D01*
X83665473Y-103378444D01*
X83606458Y-103560072D01*
X83605768Y-103566633D01*
X83605768Y-103566635D01*
X83594105Y-103677604D01*
X83586496Y-103750000D01*
X83587186Y-103756565D01*
X83597821Y-103857747D01*
X83606458Y-103939928D01*
X83665473Y-104121556D01*
X83668776Y-104127278D01*
X83668777Y-104127279D01*
X83760960Y-104286944D01*
X83758512Y-104288357D01*
X83778186Y-104343536D01*
X83762090Y-104412684D01*
X83710570Y-104462463D01*
X83554318Y-104543803D01*
X83520136Y-104561597D01*
X83516003Y-104564700D01*
X83516000Y-104564702D01*
X83332480Y-104702493D01*
X83328345Y-104705598D01*
X83324773Y-104709336D01*
X83202689Y-104837090D01*
X83162648Y-104878990D01*
X83027495Y-105077117D01*
X82926516Y-105294656D01*
X82862424Y-105525768D01*
X82853574Y-105608579D01*
X82845711Y-105682158D01*
X82841500Y-105721557D01*
X82841500Y-107460803D01*
X82841712Y-107463376D01*
X82841712Y-107463387D01*
X82855729Y-107633876D01*
X82855730Y-107633882D01*
X82856153Y-107639027D01*
X82914580Y-107871636D01*
X82916636Y-107876366D01*
X82916639Y-107876373D01*
X82970220Y-107999600D01*
X83010213Y-108091578D01*
X83013017Y-108095912D01*
X83013019Y-108095916D01*
X83137675Y-108288604D01*
X83140485Y-108292947D01*
X83143964Y-108296770D01*
X83143966Y-108296773D01*
X83226186Y-108387131D01*
X83301896Y-108470335D01*
X83305947Y-108473534D01*
X83305951Y-108473538D01*
X83440913Y-108580124D01*
X83490112Y-108618979D01*
X83700078Y-108734887D01*
X83787905Y-108765988D01*
X83921280Y-108813219D01*
X83921284Y-108813220D01*
X83926155Y-108814945D01*
X83931248Y-108815852D01*
X83931251Y-108815853D01*
X84157184Y-108856098D01*
X84157190Y-108856099D01*
X84162273Y-108857004D01*
X84249540Y-108858070D01*
X84396919Y-108859871D01*
X84396921Y-108859871D01*
X84402089Y-108859934D01*
X84639163Y-108823657D01*
X84867129Y-108749146D01*
X85079864Y-108638403D01*
X85083997Y-108635300D01*
X85084000Y-108635298D01*
X85267520Y-108497507D01*
X85267523Y-108497505D01*
X85271655Y-108494402D01*
X85398235Y-108361944D01*
X85433781Y-108324747D01*
X85433782Y-108324746D01*
X85437352Y-108321010D01*
X85460277Y-108287404D01*
X85569586Y-108127162D01*
X85572505Y-108122883D01*
X85673484Y-107905344D01*
X85737576Y-107674232D01*
X85750413Y-107554114D01*
X85758144Y-107481778D01*
X85758144Y-107481770D01*
X85758500Y-107478443D01*
X85758500Y-105739197D01*
X85758423Y-105738265D01*
X85775555Y-105669615D01*
X85827258Y-105620960D01*
X85895038Y-105608579D01*
X85895072Y-105607947D01*
X85897716Y-105608090D01*
X85897854Y-105608065D01*
X85898455Y-105608130D01*
X85898465Y-105608131D01*
X85901866Y-105608500D01*
X86887014Y-105608500D01*
X86955135Y-105628502D01*
X87001628Y-105682158D01*
X87011732Y-105752432D01*
X86982238Y-105817012D01*
X86966652Y-105832141D01*
X86950536Y-105845285D01*
X86818217Y-106005230D01*
X86815288Y-106010647D01*
X86815286Y-106010650D01*
X86722416Y-106182410D01*
X86722414Y-106182415D01*
X86719486Y-106187830D01*
X86658102Y-106386129D01*
X86657458Y-106392254D01*
X86657458Y-106392255D01*
X86655926Y-106406836D01*
X86636404Y-106592575D01*
X86638313Y-106613554D01*
X86650475Y-106747183D01*
X86655218Y-106799303D01*
X86656956Y-106805209D01*
X86656957Y-106805213D01*
X86673491Y-106861389D01*
X86713827Y-106998440D01*
X86809999Y-107182400D01*
X86940071Y-107344177D01*
X86944788Y-107348135D01*
X86944790Y-107348137D01*
X86992625Y-107388275D01*
X87099089Y-107477609D01*
X87104481Y-107480573D01*
X87104485Y-107480576D01*
X87275598Y-107574646D01*
X87280995Y-107577613D01*
X87478861Y-107640379D01*
X87484978Y-107641065D01*
X87484982Y-107641066D01*
X87561598Y-107649659D01*
X87640413Y-107658500D01*
X87752237Y-107658500D01*
X87755293Y-107658200D01*
X87755300Y-107658200D01*
X87900466Y-107643966D01*
X87900469Y-107643965D01*
X87906592Y-107643365D01*
X88038546Y-107603526D01*
X88099407Y-107585152D01*
X88099410Y-107585151D01*
X88105315Y-107583368D01*
X88112635Y-107579476D01*
X88283153Y-107488809D01*
X88283155Y-107488808D01*
X88288599Y-107485913D01*
X88404300Y-107391550D01*
X88444689Y-107358610D01*
X88444692Y-107358607D01*
X88449464Y-107354715D01*
X88490534Y-107305071D01*
X88577855Y-107199518D01*
X88581783Y-107194770D01*
X88585876Y-107187201D01*
X88677584Y-107017590D01*
X88677586Y-107017585D01*
X88680514Y-107012170D01*
X88741898Y-106813871D01*
X88743429Y-106799303D01*
X88762952Y-106613554D01*
X88762952Y-106613552D01*
X88763596Y-106607425D01*
X88744782Y-106400697D01*
X88742298Y-106392255D01*
X88687912Y-106207469D01*
X88686173Y-106201560D01*
X88590001Y-106017600D01*
X88576252Y-106000499D01*
X88463788Y-105860623D01*
X88459929Y-105855823D01*
X88430372Y-105831021D01*
X88391046Y-105771913D01*
X88389919Y-105700925D01*
X88427350Y-105640597D01*
X88491454Y-105610083D01*
X88511363Y-105608500D01*
X89598134Y-105608500D01*
X89602139Y-105608065D01*
X89604440Y-105607815D01*
X89660316Y-105601745D01*
X89796705Y-105550615D01*
X89913261Y-105463261D01*
X89914187Y-105462026D01*
X89973217Y-105429792D01*
X90044032Y-105434857D01*
X90085355Y-105461414D01*
X90086739Y-105463261D01*
X90203295Y-105550615D01*
X90339684Y-105601745D01*
X90395560Y-105607815D01*
X90397862Y-105608065D01*
X90401866Y-105608500D01*
X91487014Y-105608500D01*
X91555135Y-105628502D01*
X91601628Y-105682158D01*
X91611732Y-105752432D01*
X91582238Y-105817012D01*
X91566652Y-105832141D01*
X91550536Y-105845285D01*
X91418217Y-106005230D01*
X91415288Y-106010647D01*
X91415286Y-106010650D01*
X91322416Y-106182410D01*
X91322414Y-106182415D01*
X91319486Y-106187830D01*
X91258102Y-106386129D01*
X91257458Y-106392254D01*
X91257458Y-106392255D01*
X91255926Y-106406836D01*
X91236404Y-106592575D01*
X91238313Y-106613554D01*
X91250475Y-106747183D01*
X91255218Y-106799303D01*
X91256956Y-106805209D01*
X91256957Y-106805213D01*
X91273491Y-106861389D01*
X91313827Y-106998440D01*
X91409999Y-107182400D01*
X91540071Y-107344177D01*
X91544788Y-107348135D01*
X91544790Y-107348137D01*
X91592625Y-107388275D01*
X91699089Y-107477609D01*
X91704481Y-107480573D01*
X91704485Y-107480576D01*
X91875598Y-107574646D01*
X91880995Y-107577613D01*
X92078861Y-107640379D01*
X92084978Y-107641065D01*
X92084982Y-107641066D01*
X92161598Y-107649659D01*
X92240413Y-107658500D01*
X92352237Y-107658500D01*
X92355293Y-107658200D01*
X92355300Y-107658200D01*
X92500466Y-107643966D01*
X92500469Y-107643965D01*
X92506592Y-107643365D01*
X92638546Y-107603526D01*
X92699407Y-107585152D01*
X92699410Y-107585151D01*
X92705315Y-107583368D01*
X92712635Y-107579476D01*
X92883153Y-107488809D01*
X92883155Y-107488808D01*
X92888599Y-107485913D01*
X93004300Y-107391550D01*
X93044689Y-107358610D01*
X93044692Y-107358607D01*
X93049464Y-107354715D01*
X93090534Y-107305071D01*
X93177855Y-107199518D01*
X93181783Y-107194770D01*
X93185876Y-107187201D01*
X93277584Y-107017590D01*
X93277586Y-107017585D01*
X93280514Y-107012170D01*
X93341898Y-106813871D01*
X93343429Y-106799303D01*
X93362952Y-106613554D01*
X93362952Y-106613552D01*
X93363596Y-106607425D01*
X93344782Y-106400697D01*
X93342298Y-106392255D01*
X93287912Y-106207469D01*
X93286173Y-106201560D01*
X93190001Y-106017600D01*
X93176252Y-106000499D01*
X93063788Y-105860623D01*
X93059929Y-105855823D01*
X93030372Y-105831021D01*
X92991046Y-105771913D01*
X92989919Y-105700925D01*
X93027350Y-105640597D01*
X93091454Y-105610083D01*
X93111363Y-105608500D01*
X94098134Y-105608500D01*
X94101529Y-105608131D01*
X94101533Y-105608131D01*
X94101900Y-105608091D01*
X94101986Y-105608106D01*
X94104928Y-105607947D01*
X94104966Y-105608641D01*
X94171782Y-105620624D01*
X94223795Y-105668948D01*
X94241500Y-105733355D01*
X94241500Y-107460803D01*
X94241712Y-107463376D01*
X94241712Y-107463387D01*
X94255729Y-107633876D01*
X94255730Y-107633882D01*
X94256153Y-107639027D01*
X94314580Y-107871636D01*
X94316636Y-107876366D01*
X94316639Y-107876373D01*
X94370220Y-107999600D01*
X94410213Y-108091578D01*
X94413017Y-108095912D01*
X94413019Y-108095916D01*
X94537675Y-108288604D01*
X94540485Y-108292947D01*
X94543964Y-108296770D01*
X94543966Y-108296773D01*
X94626186Y-108387131D01*
X94701896Y-108470335D01*
X94705947Y-108473534D01*
X94705951Y-108473538D01*
X94840913Y-108580124D01*
X94890112Y-108618979D01*
X95100078Y-108734887D01*
X95187905Y-108765988D01*
X95321280Y-108813219D01*
X95321284Y-108813220D01*
X95326155Y-108814945D01*
X95331248Y-108815852D01*
X95331251Y-108815853D01*
X95557184Y-108856098D01*
X95557190Y-108856099D01*
X95562273Y-108857004D01*
X95649540Y-108858070D01*
X95796919Y-108859871D01*
X95796921Y-108859871D01*
X95802089Y-108859934D01*
X96039163Y-108823657D01*
X96267129Y-108749146D01*
X96479864Y-108638403D01*
X96483997Y-108635300D01*
X96484000Y-108635298D01*
X96667520Y-108497507D01*
X96667523Y-108497505D01*
X96671655Y-108494402D01*
X96798235Y-108361944D01*
X96833781Y-108324747D01*
X96833782Y-108324746D01*
X96837352Y-108321010D01*
X96860277Y-108287404D01*
X96969586Y-108127162D01*
X96972505Y-108122883D01*
X97073484Y-107905344D01*
X97137576Y-107674232D01*
X97150413Y-107554114D01*
X97158144Y-107481778D01*
X97158144Y-107481770D01*
X97158500Y-107478443D01*
X97158500Y-105739197D01*
X97157326Y-105724914D01*
X97144271Y-105566124D01*
X97144270Y-105566118D01*
X97143847Y-105560973D01*
X97108934Y-105421976D01*
X97086679Y-105333375D01*
X97086678Y-105333371D01*
X97085420Y-105328364D01*
X97083364Y-105323634D01*
X97083361Y-105323627D01*
X96991847Y-105113159D01*
X96991845Y-105113156D01*
X96989787Y-105108422D01*
X96972574Y-105081814D01*
X96862325Y-104911396D01*
X96862323Y-104911393D01*
X96859515Y-104907053D01*
X96850885Y-104897568D01*
X96701582Y-104733487D01*
X96701580Y-104733486D01*
X96698104Y-104729665D01*
X96694053Y-104726466D01*
X96694049Y-104726462D01*
X96513946Y-104584226D01*
X96509888Y-104581021D01*
X96299922Y-104465113D01*
X96151867Y-104412684D01*
X96078720Y-104386781D01*
X96078716Y-104386780D01*
X96073845Y-104385055D01*
X96068752Y-104384148D01*
X96068749Y-104384147D01*
X95842816Y-104343902D01*
X95842810Y-104343901D01*
X95837727Y-104342996D01*
X95750460Y-104341930D01*
X95603081Y-104340129D01*
X95603079Y-104340129D01*
X95597911Y-104340066D01*
X95360837Y-104376343D01*
X95132871Y-104450854D01*
X94920136Y-104561597D01*
X94916003Y-104564700D01*
X94916000Y-104564702D01*
X94760153Y-104681716D01*
X94693668Y-104706622D01*
X94624273Y-104691630D01*
X94573999Y-104641499D01*
X94558500Y-104580956D01*
X94558500Y-102551866D01*
X94551745Y-102489684D01*
X94500615Y-102353295D01*
X94413261Y-102236739D01*
X94296705Y-102149385D01*
X94284139Y-102144674D01*
X94215270Y-102118856D01*
X94158506Y-102076214D01*
X94133806Y-102009652D01*
X94133500Y-102000874D01*
X94133500Y-101378768D01*
X94134027Y-101367585D01*
X94135702Y-101360092D01*
X94133562Y-101292001D01*
X94133500Y-101288044D01*
X94133500Y-101260144D01*
X94132996Y-101256153D01*
X94132063Y-101244311D01*
X94130923Y-101208036D01*
X94130674Y-101200111D01*
X94125021Y-101180652D01*
X94121012Y-101161293D01*
X94120326Y-101155866D01*
X94118474Y-101141203D01*
X94115558Y-101133837D01*
X94115556Y-101133831D01*
X94102200Y-101100098D01*
X94098355Y-101088868D01*
X94088230Y-101054017D01*
X94088230Y-101054016D01*
X94086019Y-101046407D01*
X94075705Y-101028966D01*
X94067008Y-101011213D01*
X94063964Y-101003527D01*
X94059552Y-100992383D01*
X94033563Y-100956612D01*
X94027047Y-100946692D01*
X94026702Y-100946109D01*
X94004542Y-100908638D01*
X93990221Y-100894317D01*
X93977380Y-100879283D01*
X93970131Y-100869306D01*
X93965472Y-100862893D01*
X93931395Y-100834702D01*
X93922616Y-100826712D01*
X89918997Y-96823093D01*
X89884972Y-96760782D01*
X89890037Y-96689967D01*
X89932584Y-96633131D01*
X89999104Y-96608320D01*
X90008093Y-96607999D01*
X90247095Y-96607999D01*
X90253614Y-96607662D01*
X90349206Y-96597743D01*
X90362600Y-96594851D01*
X90516784Y-96543412D01*
X90529962Y-96537239D01*
X90667807Y-96451937D01*
X90679208Y-96442901D01*
X90793739Y-96328171D01*
X90802751Y-96316760D01*
X90887816Y-96178757D01*
X90893963Y-96165576D01*
X90945138Y-96011290D01*
X90948005Y-95997914D01*
X90957672Y-95903562D01*
X90958000Y-95897146D01*
X90958000Y-95772115D01*
X90953525Y-95756876D01*
X90952135Y-95755671D01*
X90944452Y-95754000D01*
X89622000Y-95754000D01*
X89553879Y-95733998D01*
X89507386Y-95680342D01*
X89496000Y-95628000D01*
X89496000Y-95372000D01*
X89516002Y-95303879D01*
X89569658Y-95257386D01*
X89622000Y-95246000D01*
X90939884Y-95246000D01*
X90955123Y-95241525D01*
X90956328Y-95240135D01*
X90957999Y-95232452D01*
X90957999Y-95102905D01*
X90957662Y-95096386D01*
X90949996Y-95022503D01*
X90962861Y-94952682D01*
X91011432Y-94900900D01*
X91075323Y-94883500D01*
X93358934Y-94883500D01*
X93427055Y-94903502D01*
X93459758Y-94933932D01*
X93481739Y-94963261D01*
X93598295Y-95050615D01*
X93734684Y-95101745D01*
X93796866Y-95108500D01*
X95393134Y-95108500D01*
X95455316Y-95101745D01*
X95591705Y-95050615D01*
X95708261Y-94963261D01*
X95795615Y-94846705D01*
X95846745Y-94710316D01*
X95853500Y-94648134D01*
X95853500Y-94519207D01*
X95873502Y-94451086D01*
X95927158Y-94404593D01*
X95997432Y-94394489D01*
X96029538Y-94403569D01*
X96063684Y-94418345D01*
X96069931Y-94419650D01*
X96069934Y-94419651D01*
X96249557Y-94457176D01*
X96249562Y-94457177D01*
X96254293Y-94458165D01*
X96260685Y-94458500D01*
X96403663Y-94458500D01*
X96476653Y-94451086D01*
X96542378Y-94444410D01*
X96542379Y-94444410D01*
X96548727Y-94443765D01*
X96629843Y-94418345D01*
X96728451Y-94387444D01*
X96728456Y-94387442D01*
X96734541Y-94385535D01*
X96844924Y-94324348D01*
X96899271Y-94294223D01*
X96899274Y-94294221D01*
X96904850Y-94291130D01*
X96909691Y-94286981D01*
X96909695Y-94286978D01*
X97047855Y-94168560D01*
X97052698Y-94164409D01*
X97172046Y-94010547D01*
X97175615Y-94003295D01*
X97255200Y-93841556D01*
X97258018Y-93835829D01*
X97294257Y-93696705D01*
X97305492Y-93653575D01*
X97305492Y-93653572D01*
X97307102Y-93647393D01*
X97313374Y-93527723D01*
X97316959Y-93459317D01*
X97316959Y-93459313D01*
X97317293Y-93452936D01*
X97288175Y-93260401D01*
X97285972Y-93254415D01*
X97285971Y-93254409D01*
X97223140Y-93083640D01*
X97223138Y-93083635D01*
X97220937Y-93077654D01*
X97118326Y-92912160D01*
X97108542Y-92901813D01*
X96988919Y-92775315D01*
X96984534Y-92770678D01*
X96825025Y-92658989D01*
X96694891Y-92602675D01*
X96652175Y-92584190D01*
X96652171Y-92584189D01*
X96646316Y-92581655D01*
X96640069Y-92580350D01*
X96640066Y-92580349D01*
X96460443Y-92542824D01*
X96460438Y-92542823D01*
X96455707Y-92541835D01*
X96449315Y-92541500D01*
X96306337Y-92541500D01*
X96253628Y-92546854D01*
X96167622Y-92555590D01*
X96167621Y-92555590D01*
X96161273Y-92556235D01*
X96047564Y-92591869D01*
X96017179Y-92601391D01*
X95946194Y-92602675D01*
X95885783Y-92565378D01*
X95855127Y-92501341D01*
X95853500Y-92481157D01*
X95853500Y-92392275D01*
X95873502Y-92324154D01*
X95903935Y-92291449D01*
X95910005Y-92286900D01*
X96008261Y-92213261D01*
X96095615Y-92096705D01*
X96146745Y-91960316D01*
X96153500Y-91898134D01*
X96153500Y-90801866D01*
X96146745Y-90739684D01*
X96095615Y-90603295D01*
X96008261Y-90486739D01*
X95891705Y-90399385D01*
X95755316Y-90348255D01*
X95693134Y-90341500D01*
X94796866Y-90341500D01*
X94734684Y-90348255D01*
X94598295Y-90399385D01*
X94481739Y-90486739D01*
X94394385Y-90603295D01*
X94343255Y-90739684D01*
X94336500Y-90801866D01*
X94336500Y-91765500D01*
X94316498Y-91833621D01*
X94262842Y-91880114D01*
X94210500Y-91891500D01*
X93796866Y-91891500D01*
X93734684Y-91898255D01*
X93598295Y-91949385D01*
X93557522Y-91979943D01*
X93541091Y-91992257D01*
X93474585Y-92017105D01*
X93405202Y-92002052D01*
X93376431Y-91980526D01*
X92503652Y-91107747D01*
X92496112Y-91099461D01*
X92492000Y-91092982D01*
X92442348Y-91046356D01*
X92439507Y-91043602D01*
X92419770Y-91023865D01*
X92416573Y-91021385D01*
X92407551Y-91013680D01*
X92394116Y-91001064D01*
X92375321Y-90983414D01*
X92368375Y-90979595D01*
X92368372Y-90979593D01*
X92357566Y-90973652D01*
X92341047Y-90962801D01*
X92340583Y-90962441D01*
X92325041Y-90950386D01*
X92317772Y-90947241D01*
X92317768Y-90947238D01*
X92284463Y-90932826D01*
X92273813Y-90927609D01*
X92235060Y-90906305D01*
X92215437Y-90901267D01*
X92196734Y-90894863D01*
X92185420Y-90889967D01*
X92185419Y-90889967D01*
X92178145Y-90886819D01*
X92170322Y-90885580D01*
X92170312Y-90885577D01*
X92134476Y-90879901D01*
X92122856Y-90877495D01*
X92087711Y-90868472D01*
X92087710Y-90868472D01*
X92080030Y-90866500D01*
X92059776Y-90866500D01*
X92040065Y-90864949D01*
X92037534Y-90864548D01*
X92020057Y-90861780D01*
X92012165Y-90862526D01*
X91976039Y-90865941D01*
X91964181Y-90866500D01*
X82178763Y-90866500D01*
X82167579Y-90865973D01*
X82160091Y-90864299D01*
X82152168Y-90864548D01*
X82092033Y-90866438D01*
X82088075Y-90866500D01*
X82060144Y-90866500D01*
X82056229Y-90866995D01*
X82056225Y-90866995D01*
X82056167Y-90867003D01*
X82056138Y-90867006D01*
X82044296Y-90867939D01*
X82000110Y-90869327D01*
X81982744Y-90874372D01*
X81980658Y-90874978D01*
X81961306Y-90878986D01*
X81949068Y-90880532D01*
X81949066Y-90880533D01*
X81941203Y-90881526D01*
X81900086Y-90897806D01*
X81888885Y-90901641D01*
X81846406Y-90913982D01*
X81839587Y-90918015D01*
X81839582Y-90918017D01*
X81828971Y-90924293D01*
X81811221Y-90932990D01*
X81792383Y-90940448D01*
X81785967Y-90945109D01*
X81785966Y-90945110D01*
X81756625Y-90966428D01*
X81746701Y-90972947D01*
X81715460Y-90991422D01*
X81715455Y-90991426D01*
X81708637Y-90995458D01*
X81694313Y-91009782D01*
X81679281Y-91022621D01*
X81662893Y-91034528D01*
X81635043Y-91068193D01*
X81634712Y-91068593D01*
X81626722Y-91077373D01*
X80042847Y-92661248D01*
X79980535Y-92695274D01*
X79909720Y-92690209D01*
X79878188Y-92672980D01*
X79862534Y-92661248D01*
X79846705Y-92649385D01*
X79710316Y-92598255D01*
X79648134Y-92591500D01*
X77551866Y-92591500D01*
X77489684Y-92598255D01*
X77353295Y-92649385D01*
X77236739Y-92736739D01*
X77149385Y-92853295D01*
X77098255Y-92989684D01*
X77091500Y-93051866D01*
X77091500Y-96948134D01*
X76133500Y-96948134D01*
X76133500Y-93064594D01*
X76153502Y-92996473D01*
X76170405Y-92975499D01*
X77641568Y-91504337D01*
X79142255Y-90003650D01*
X79150539Y-89996112D01*
X79157018Y-89992000D01*
X79203644Y-89942348D01*
X79206398Y-89939507D01*
X79226135Y-89919770D01*
X79228615Y-89916573D01*
X79236320Y-89907551D01*
X79261159Y-89881100D01*
X79266586Y-89875321D01*
X79270405Y-89868375D01*
X79270407Y-89868372D01*
X79276348Y-89857566D01*
X79287199Y-89841047D01*
X79294758Y-89831301D01*
X79299614Y-89825041D01*
X79302759Y-89817772D01*
X79302762Y-89817768D01*
X79317174Y-89784463D01*
X79322391Y-89773813D01*
X79343695Y-89735060D01*
X79348733Y-89715437D01*
X79355137Y-89696734D01*
X79360033Y-89685420D01*
X79360033Y-89685419D01*
X79363181Y-89678145D01*
X79364420Y-89670322D01*
X79364423Y-89670312D01*
X79370099Y-89634476D01*
X79372505Y-89622856D01*
X79381528Y-89587711D01*
X79381528Y-89587710D01*
X79383500Y-89580030D01*
X79383500Y-89559776D01*
X79385051Y-89540065D01*
X79386980Y-89527886D01*
X79388220Y-89520057D01*
X79387419Y-89511578D01*
X79384059Y-89476039D01*
X79383500Y-89464181D01*
X79383500Y-89414017D01*
X79403502Y-89345896D01*
X79457158Y-89299403D01*
X79527432Y-89289299D01*
X79560749Y-89298910D01*
X79671098Y-89348040D01*
X79717712Y-89368794D01*
X79811112Y-89388647D01*
X79898056Y-89407128D01*
X79898061Y-89407128D01*
X79904513Y-89408500D01*
X80095487Y-89408500D01*
X80101939Y-89407128D01*
X80101944Y-89407128D01*
X80188888Y-89388647D01*
X80282288Y-89368794D01*
X80288319Y-89366109D01*
X80450722Y-89293803D01*
X80450724Y-89293802D01*
X80456752Y-89291118D01*
X80543372Y-89228185D01*
X80605914Y-89182745D01*
X80611253Y-89178866D01*
X80615668Y-89173963D01*
X80620580Y-89169540D01*
X80621705Y-89170789D01*
X80675014Y-89137949D01*
X80708200Y-89133500D01*
X96685406Y-89133500D01*
X96753527Y-89153502D01*
G37*
%TD.AperFunction*%
%TA.AperFunction,Conductor*%
G36*
X74034532Y-95965538D02*
G01*
X74091368Y-96008085D01*
X74116179Y-96074605D01*
X74116500Y-96083594D01*
X74116500Y-98685405D01*
X74096498Y-98753526D01*
X74079595Y-98774500D01*
X73607747Y-99246348D01*
X73599461Y-99253888D01*
X73592982Y-99258000D01*
X73587557Y-99263777D01*
X73546357Y-99307651D01*
X73543602Y-99310493D01*
X73523865Y-99330230D01*
X73521385Y-99333427D01*
X73513682Y-99342447D01*
X73483414Y-99374679D01*
X73479595Y-99381625D01*
X73479593Y-99381628D01*
X73473652Y-99392434D01*
X73462801Y-99408953D01*
X73450386Y-99424959D01*
X73447241Y-99432228D01*
X73447238Y-99432232D01*
X73432826Y-99465537D01*
X73427609Y-99476187D01*
X73406305Y-99514940D01*
X73404334Y-99522615D01*
X73404334Y-99522616D01*
X73401267Y-99534562D01*
X73394863Y-99553266D01*
X73386819Y-99571855D01*
X73385580Y-99579678D01*
X73385577Y-99579688D01*
X73379901Y-99615524D01*
X73377495Y-99627144D01*
X73366500Y-99669970D01*
X73366500Y-99690224D01*
X73364949Y-99709934D01*
X73361780Y-99729943D01*
X73362526Y-99737835D01*
X73365941Y-99773961D01*
X73366500Y-99785819D01*
X73366500Y-100935406D01*
X73346498Y-101003527D01*
X73329595Y-101024501D01*
X69349500Y-105004595D01*
X69287188Y-105038621D01*
X69260405Y-105041500D01*
X68599600Y-105041500D01*
X68596354Y-105041837D01*
X68596350Y-105041837D01*
X68500692Y-105051762D01*
X68500688Y-105051763D01*
X68493834Y-105052474D01*
X68487298Y-105054655D01*
X68487296Y-105054655D01*
X68355194Y-105098728D01*
X68326054Y-105108450D01*
X68175652Y-105201522D01*
X68170479Y-105206704D01*
X68089216Y-105288109D01*
X68026934Y-105322188D01*
X67956114Y-105317185D01*
X67911025Y-105288264D01*
X67828483Y-105205866D01*
X67823303Y-105200695D01*
X67738034Y-105148134D01*
X67678968Y-105111725D01*
X67678966Y-105111724D01*
X67672738Y-105107885D01*
X67540392Y-105063988D01*
X67511389Y-105054368D01*
X67511387Y-105054368D01*
X67504861Y-105052203D01*
X67498025Y-105051503D01*
X67498022Y-105051502D01*
X67454969Y-105047091D01*
X67400400Y-105041500D01*
X66599600Y-105041500D01*
X66596354Y-105041837D01*
X66596350Y-105041837D01*
X66500692Y-105051762D01*
X66500688Y-105051763D01*
X66493834Y-105052474D01*
X66487298Y-105054655D01*
X66487296Y-105054655D01*
X66355194Y-105098728D01*
X66326054Y-105108450D01*
X66175652Y-105201522D01*
X66170479Y-105206704D01*
X66089216Y-105288109D01*
X66026934Y-105322188D01*
X65956114Y-105317185D01*
X65911025Y-105288264D01*
X65828483Y-105205866D01*
X65823303Y-105200695D01*
X65738034Y-105148134D01*
X65678968Y-105111725D01*
X65678966Y-105111724D01*
X65672738Y-105107885D01*
X65540392Y-105063988D01*
X65511389Y-105054368D01*
X65511387Y-105054368D01*
X65504861Y-105052203D01*
X65498025Y-105051503D01*
X65498022Y-105051502D01*
X65454969Y-105047091D01*
X65400400Y-105041500D01*
X65158594Y-105041500D01*
X65090473Y-105021498D01*
X65043980Y-104967842D01*
X65033876Y-104897568D01*
X65063370Y-104832988D01*
X65069499Y-104826405D01*
X66601235Y-103294669D01*
X67992001Y-103294669D01*
X67992371Y-103301490D01*
X67997895Y-103352352D01*
X68001521Y-103367604D01*
X68046676Y-103488054D01*
X68055214Y-103503649D01*
X68131715Y-103605724D01*
X68144276Y-103618285D01*
X68246351Y-103694786D01*
X68261946Y-103703324D01*
X68382394Y-103748478D01*
X68397649Y-103752105D01*
X68448514Y-103757631D01*
X68455328Y-103758000D01*
X68852885Y-103758000D01*
X68868124Y-103753525D01*
X68869329Y-103752135D01*
X68871000Y-103744452D01*
X68871000Y-103739884D01*
X69379000Y-103739884D01*
X69383475Y-103755123D01*
X69384865Y-103756328D01*
X69392548Y-103757999D01*
X69794669Y-103757999D01*
X69801490Y-103757629D01*
X69852352Y-103752105D01*
X69867604Y-103748479D01*
X69988054Y-103703324D01*
X70003649Y-103694786D01*
X70105724Y-103618285D01*
X70118285Y-103605724D01*
X70194786Y-103503649D01*
X70203324Y-103488054D01*
X70248478Y-103367606D01*
X70252105Y-103352351D01*
X70257631Y-103301486D01*
X70258000Y-103294672D01*
X70258000Y-102472115D01*
X70253525Y-102456876D01*
X70252135Y-102455671D01*
X70244452Y-102454000D01*
X69397115Y-102454000D01*
X69381876Y-102458475D01*
X69380671Y-102459865D01*
X69379000Y-102467548D01*
X69379000Y-103739884D01*
X68871000Y-103739884D01*
X68871000Y-102472115D01*
X68866525Y-102456876D01*
X68865135Y-102455671D01*
X68857452Y-102454000D01*
X68010116Y-102454000D01*
X67994877Y-102458475D01*
X67993672Y-102459865D01*
X67992001Y-102467548D01*
X67992001Y-103294669D01*
X66601235Y-103294669D01*
X67912999Y-101982905D01*
X67975311Y-101948879D01*
X68002094Y-101946000D01*
X70239884Y-101946000D01*
X70255123Y-101941525D01*
X70256328Y-101940135D01*
X70257999Y-101932452D01*
X70257999Y-101105331D01*
X70257629Y-101098510D01*
X70252105Y-101047648D01*
X70248479Y-101032396D01*
X70203324Y-100911946D01*
X70194786Y-100896351D01*
X70118285Y-100794276D01*
X70105724Y-100781715D01*
X70003649Y-100705214D01*
X69988054Y-100696676D01*
X69867606Y-100651522D01*
X69852351Y-100647895D01*
X69801486Y-100642369D01*
X69794672Y-100642000D01*
X69558094Y-100642000D01*
X69489973Y-100621998D01*
X69443480Y-100568342D01*
X69433376Y-100498068D01*
X69462870Y-100433488D01*
X69468999Y-100426905D01*
X73901405Y-95994499D01*
X73963717Y-95960473D01*
X74034532Y-95965538D01*
G37*
%TD.AperFunction*%
%TA.AperFunction,Conductor*%
G36*
X84591511Y-74624445D02*
G01*
X84598094Y-74630573D01*
X84878779Y-74911257D01*
X84912804Y-74973570D01*
X84907740Y-75044385D01*
X84878780Y-75089448D01*
X84721528Y-75246701D01*
X84713917Y-75260639D01*
X84714049Y-75262475D01*
X84718298Y-75269087D01*
X85184957Y-75735746D01*
X85218983Y-75798058D01*
X85213918Y-75868873D01*
X85184958Y-75913934D01*
X84610095Y-76488798D01*
X84586700Y-76516189D01*
X84570581Y-76545509D01*
X84515443Y-76645806D01*
X84509591Y-76656450D01*
X84507622Y-76664120D01*
X84507620Y-76664124D01*
X84490631Y-76730291D01*
X84469785Y-76811481D01*
X84469785Y-76871780D01*
X84449783Y-76939901D01*
X84432880Y-76960875D01*
X84375150Y-77018605D01*
X84368390Y-77030985D01*
X84373171Y-77037371D01*
X84466324Y-77088583D01*
X84516038Y-77138298D01*
X84546552Y-77193803D01*
X84586700Y-77266832D01*
X84610094Y-77294223D01*
X84877350Y-77561478D01*
X84879222Y-77563077D01*
X84879234Y-77563088D01*
X84897328Y-77578542D01*
X84904741Y-77584873D01*
X84910383Y-77587975D01*
X84910385Y-77587976D01*
X85032457Y-77655085D01*
X85082172Y-77704800D01*
X85086521Y-77712711D01*
X85152385Y-77832518D01*
X85175779Y-77859909D01*
X85443035Y-78127164D01*
X85444907Y-78128763D01*
X85444919Y-78128774D01*
X85463013Y-78144228D01*
X85470426Y-78150559D01*
X85476751Y-78154036D01*
X85477059Y-78154346D01*
X85481365Y-78157322D01*
X85480813Y-78158121D01*
X85526811Y-78204378D01*
X85540249Y-78267000D01*
X85541500Y-78267000D01*
X85541500Y-78272830D01*
X85541707Y-78273795D01*
X85541500Y-78275221D01*
X85541500Y-79628000D01*
X85521498Y-79696121D01*
X85467842Y-79742614D01*
X85415500Y-79754000D01*
X85159500Y-79754000D01*
X85091379Y-79733998D01*
X85044886Y-79680342D01*
X85033500Y-79628000D01*
X85033500Y-78285116D01*
X85029025Y-78269877D01*
X85027635Y-78268672D01*
X85019952Y-78267001D01*
X84902905Y-78267001D01*
X84896386Y-78267338D01*
X84800794Y-78277257D01*
X84787400Y-78280149D01*
X84633216Y-78331588D01*
X84620038Y-78337761D01*
X84482193Y-78423063D01*
X84470792Y-78432099D01*
X84356262Y-78546828D01*
X84349206Y-78555762D01*
X84291288Y-78596823D01*
X84220365Y-78600053D01*
X84158954Y-78564426D01*
X84152154Y-78556593D01*
X84148478Y-78550652D01*
X84023303Y-78425695D01*
X83978703Y-78398203D01*
X83878968Y-78336725D01*
X83878966Y-78336724D01*
X83872738Y-78332885D01*
X83792995Y-78306436D01*
X83711389Y-78279368D01*
X83711387Y-78279368D01*
X83704861Y-78277203D01*
X83698025Y-78276503D01*
X83698022Y-78276502D01*
X83654969Y-78272091D01*
X83600400Y-78266500D01*
X82824600Y-78266500D01*
X82821354Y-78266837D01*
X82821350Y-78266837D01*
X82725692Y-78276762D01*
X82725688Y-78276763D01*
X82718834Y-78277474D01*
X82712298Y-78279655D01*
X82712296Y-78279655D01*
X82695928Y-78285116D01*
X82551054Y-78333450D01*
X82400652Y-78426522D01*
X82275695Y-78551697D01*
X82271855Y-78557927D01*
X82271854Y-78557928D01*
X82188687Y-78692850D01*
X82182885Y-78702262D01*
X82172411Y-78733841D01*
X82147799Y-78808045D01*
X82127203Y-78870139D01*
X82126503Y-78876975D01*
X82126502Y-78876978D01*
X82123088Y-78910305D01*
X82116500Y-78974600D01*
X82116500Y-80025400D01*
X82116837Y-80028646D01*
X82116837Y-80028650D01*
X82126479Y-80121574D01*
X82127474Y-80131166D01*
X82129655Y-80137702D01*
X82129655Y-80137704D01*
X82144232Y-80181395D01*
X82183450Y-80298946D01*
X82276522Y-80449348D01*
X82281704Y-80454521D01*
X82328333Y-80501069D01*
X82401697Y-80574305D01*
X82407927Y-80578145D01*
X82407928Y-80578146D01*
X82534727Y-80656306D01*
X82552262Y-80667115D01*
X82632005Y-80693564D01*
X82713611Y-80720632D01*
X82713613Y-80720632D01*
X82720139Y-80722797D01*
X82726975Y-80723497D01*
X82726978Y-80723498D01*
X82759276Y-80726807D01*
X82824600Y-80733500D01*
X83221311Y-80733500D01*
X83289432Y-80753502D01*
X83335925Y-80807158D01*
X83346620Y-80846327D01*
X83356458Y-80939928D01*
X83415473Y-81121556D01*
X83510960Y-81286944D01*
X83638747Y-81428866D01*
X83793248Y-81541118D01*
X83799274Y-81543801D01*
X83799281Y-81543805D01*
X83966400Y-81618210D01*
X84020496Y-81664190D01*
X84041146Y-81732117D01*
X84021794Y-81800425D01*
X84004576Y-81822083D01*
X80523184Y-85329266D01*
X80460997Y-85363521D01*
X80433760Y-85366500D01*
X79078768Y-85366500D01*
X79067585Y-85365973D01*
X79060092Y-85364298D01*
X79052166Y-85364547D01*
X79052165Y-85364547D01*
X78992002Y-85366438D01*
X78988044Y-85366500D01*
X78960144Y-85366500D01*
X78956154Y-85367004D01*
X78944320Y-85367936D01*
X78900111Y-85369326D01*
X78892497Y-85371538D01*
X78892492Y-85371539D01*
X78880659Y-85374977D01*
X78861296Y-85378988D01*
X78841203Y-85381526D01*
X78833836Y-85384443D01*
X78833831Y-85384444D01*
X78800092Y-85397802D01*
X78788865Y-85401646D01*
X78746407Y-85413982D01*
X78739581Y-85418019D01*
X78728972Y-85424293D01*
X78711224Y-85432988D01*
X78692383Y-85440448D01*
X78685967Y-85445110D01*
X78685966Y-85445110D01*
X78656613Y-85466436D01*
X78646693Y-85472952D01*
X78615465Y-85491420D01*
X78615462Y-85491422D01*
X78608638Y-85495458D01*
X78594317Y-85509779D01*
X78579284Y-85522619D01*
X78562893Y-85534528D01*
X78557842Y-85540634D01*
X78534702Y-85568605D01*
X78526712Y-85577384D01*
X76857747Y-87246348D01*
X76849461Y-87253888D01*
X76842982Y-87258000D01*
X76837557Y-87263777D01*
X76796357Y-87307651D01*
X76793602Y-87310493D01*
X76773865Y-87330230D01*
X76771385Y-87333427D01*
X76763682Y-87342447D01*
X76733414Y-87374679D01*
X76729595Y-87381625D01*
X76729593Y-87381628D01*
X76723652Y-87392434D01*
X76712801Y-87408953D01*
X76700386Y-87424959D01*
X76697241Y-87432228D01*
X76697238Y-87432232D01*
X76682826Y-87465537D01*
X76677609Y-87476187D01*
X76656305Y-87514940D01*
X76654334Y-87522615D01*
X76654334Y-87522616D01*
X76651267Y-87534562D01*
X76644863Y-87553266D01*
X76636819Y-87571855D01*
X76635580Y-87579678D01*
X76635577Y-87579688D01*
X76629901Y-87615524D01*
X76627495Y-87627144D01*
X76616500Y-87669970D01*
X76616500Y-87690224D01*
X76614949Y-87709934D01*
X76611780Y-87729943D01*
X76612526Y-87737835D01*
X76615941Y-87773961D01*
X76616500Y-87785819D01*
X76616500Y-88435406D01*
X76596498Y-88503527D01*
X76579595Y-88524501D01*
X75088732Y-90015363D01*
X73607747Y-91496348D01*
X73599461Y-91503888D01*
X73592982Y-91508000D01*
X73587557Y-91513777D01*
X73546357Y-91557651D01*
X73543602Y-91560493D01*
X73523865Y-91580230D01*
X73521385Y-91583427D01*
X73513682Y-91592447D01*
X73483414Y-91624679D01*
X73479595Y-91631625D01*
X73479593Y-91631628D01*
X73473652Y-91642434D01*
X73462801Y-91658953D01*
X73450386Y-91674959D01*
X73447241Y-91682228D01*
X73447238Y-91682232D01*
X73432826Y-91715537D01*
X73427609Y-91726187D01*
X73406305Y-91764940D01*
X73404334Y-91772615D01*
X73404334Y-91772616D01*
X73401267Y-91784562D01*
X73394863Y-91803266D01*
X73386819Y-91821855D01*
X73385580Y-91829678D01*
X73385577Y-91829688D01*
X73379901Y-91865524D01*
X73377495Y-91877144D01*
X73372294Y-91897402D01*
X73366500Y-91919970D01*
X73366500Y-91940224D01*
X73364949Y-91959934D01*
X73361780Y-91979943D01*
X73362526Y-91987835D01*
X73365941Y-92023961D01*
X73366500Y-92035819D01*
X73366500Y-94685406D01*
X73346498Y-94753527D01*
X73329595Y-94774501D01*
X63099500Y-105004595D01*
X63037188Y-105038621D01*
X63010405Y-105041500D01*
X62758541Y-105041500D01*
X62690420Y-105021498D01*
X62643927Y-104967842D01*
X62633823Y-104897568D01*
X62659911Y-104837090D01*
X72592043Y-92343610D01*
X72606706Y-92328076D01*
X72617299Y-92318608D01*
X72620934Y-92315359D01*
X72628894Y-92305653D01*
X72636432Y-92292861D01*
X72640173Y-92286900D01*
X72658455Y-92259500D01*
X72734631Y-92145327D01*
X72738581Y-92136379D01*
X72809943Y-91974690D01*
X72812142Y-91969708D01*
X72814564Y-91959935D01*
X72857005Y-91788665D01*
X72857006Y-91788661D01*
X72858314Y-91783381D01*
X72859611Y-91764940D01*
X72871394Y-91597315D01*
X72871394Y-91597312D01*
X72871775Y-91591891D01*
X72852124Y-91400937D01*
X72814293Y-91266998D01*
X72801426Y-91221445D01*
X72801426Y-91221444D01*
X72799945Y-91216202D01*
X72797584Y-91211288D01*
X72719149Y-91048090D01*
X72719148Y-91048089D01*
X72716791Y-91043184D01*
X72608605Y-90891880D01*
X72585255Y-90824837D01*
X72601858Y-90755809D01*
X72653146Y-90706716D01*
X72722833Y-90693144D01*
X72737512Y-90695396D01*
X72738610Y-90695631D01*
X72745139Y-90697797D01*
X72849600Y-90708500D01*
X73650400Y-90708500D01*
X73653646Y-90708163D01*
X73653650Y-90708163D01*
X73749308Y-90698238D01*
X73749312Y-90698237D01*
X73756166Y-90697526D01*
X73762702Y-90695345D01*
X73762704Y-90695345D01*
X73894806Y-90651272D01*
X73923946Y-90641550D01*
X74074348Y-90548478D01*
X74124506Y-90498233D01*
X74194134Y-90428483D01*
X74199305Y-90423303D01*
X74204108Y-90415511D01*
X74288275Y-90278968D01*
X74288276Y-90278966D01*
X74292115Y-90272738D01*
X74347797Y-90104861D01*
X74349844Y-90084882D01*
X74376685Y-90019155D01*
X74391429Y-90004609D01*
X74391362Y-90004542D01*
X74405683Y-89990221D01*
X74420717Y-89977380D01*
X74437107Y-89965472D01*
X74465298Y-89931395D01*
X74473288Y-89922616D01*
X75392247Y-89003657D01*
X75400537Y-88996113D01*
X75407018Y-88992000D01*
X75453659Y-88942332D01*
X75456413Y-88939491D01*
X75476135Y-88919769D01*
X75478612Y-88916576D01*
X75486317Y-88907555D01*
X75511159Y-88881100D01*
X75516586Y-88875321D01*
X75520407Y-88868371D01*
X75526346Y-88857568D01*
X75537202Y-88841041D01*
X75544757Y-88831302D01*
X75544758Y-88831300D01*
X75549614Y-88825040D01*
X75567174Y-88784460D01*
X75572391Y-88773812D01*
X75589875Y-88742009D01*
X75589876Y-88742007D01*
X75593695Y-88735060D01*
X75598733Y-88715437D01*
X75605137Y-88696734D01*
X75610033Y-88685420D01*
X75610033Y-88685419D01*
X75613181Y-88678145D01*
X75614420Y-88670322D01*
X75614423Y-88670312D01*
X75620099Y-88634476D01*
X75622505Y-88622856D01*
X75631528Y-88587711D01*
X75631528Y-88587710D01*
X75633500Y-88580030D01*
X75633500Y-88559776D01*
X75635051Y-88540065D01*
X75636980Y-88527886D01*
X75638220Y-88520057D01*
X75636077Y-88497390D01*
X75649579Y-88427691D01*
X75695215Y-88378388D01*
X75727435Y-88358450D01*
X75824348Y-88298478D01*
X75834384Y-88288425D01*
X75944134Y-88178483D01*
X75949305Y-88173303D01*
X75961930Y-88152821D01*
X76038275Y-88028968D01*
X76038276Y-88028966D01*
X76042115Y-88022738D01*
X76087609Y-87885577D01*
X76095632Y-87861389D01*
X76095632Y-87861387D01*
X76097797Y-87854861D01*
X76099574Y-87837524D01*
X76108172Y-87753598D01*
X76108500Y-87750400D01*
X76108500Y-86749600D01*
X76097526Y-86643834D01*
X76081734Y-86596498D01*
X76043868Y-86483002D01*
X76041550Y-86476054D01*
X75948478Y-86325652D01*
X75823303Y-86200695D01*
X75817072Y-86196854D01*
X75693384Y-86120611D01*
X75645890Y-86067838D01*
X75633500Y-86013351D01*
X75633500Y-85821793D01*
X75635732Y-85798184D01*
X75635790Y-85797881D01*
X75635790Y-85797877D01*
X75637275Y-85790094D01*
X75633749Y-85734049D01*
X75633500Y-85726138D01*
X75633500Y-85710144D01*
X75631494Y-85694270D01*
X75630751Y-85686402D01*
X75627723Y-85638263D01*
X75627723Y-85638262D01*
X75627225Y-85630350D01*
X75624679Y-85622513D01*
X75619506Y-85599369D01*
X75619468Y-85599065D01*
X75619467Y-85599060D01*
X75618474Y-85591203D01*
X75615558Y-85583838D01*
X75615557Y-85583834D01*
X75597801Y-85538989D01*
X75595129Y-85531570D01*
X75577764Y-85478125D01*
X75573514Y-85471428D01*
X75573350Y-85471169D01*
X75562585Y-85450042D01*
X75562471Y-85449754D01*
X75562468Y-85449749D01*
X75559552Y-85442383D01*
X75554896Y-85435975D01*
X75554893Y-85435969D01*
X75526542Y-85396948D01*
X75522092Y-85390401D01*
X75515830Y-85380533D01*
X75492000Y-85342982D01*
X75485993Y-85337341D01*
X75470312Y-85319554D01*
X75470134Y-85319309D01*
X75470132Y-85319307D01*
X75465472Y-85312893D01*
X75459362Y-85307838D01*
X75422204Y-85277097D01*
X75416270Y-85271866D01*
X75381102Y-85238842D01*
X75381099Y-85238840D01*
X75375321Y-85233414D01*
X75368097Y-85229442D01*
X75348494Y-85216119D01*
X75348254Y-85215920D01*
X75348247Y-85215916D01*
X75342144Y-85210867D01*
X75291324Y-85186953D01*
X75284292Y-85183371D01*
X75235060Y-85156305D01*
X75227385Y-85154335D01*
X75227379Y-85154332D01*
X75227081Y-85154256D01*
X75204772Y-85146224D01*
X75204497Y-85146094D01*
X75204489Y-85146091D01*
X75197318Y-85142717D01*
X75142151Y-85132194D01*
X75134442Y-85130471D01*
X75100449Y-85121743D01*
X75087707Y-85118471D01*
X75087706Y-85118471D01*
X75080030Y-85116500D01*
X75071793Y-85116500D01*
X75048184Y-85114268D01*
X75047881Y-85114210D01*
X75047877Y-85114210D01*
X75040094Y-85112725D01*
X74984049Y-85116251D01*
X74976138Y-85116500D01*
X71275628Y-85116500D01*
X71207507Y-85096498D01*
X71161014Y-85042842D01*
X71150910Y-84972568D01*
X71176277Y-84913006D01*
X73806349Y-81541118D01*
X75265992Y-79669781D01*
X75323660Y-79628370D01*
X75394562Y-79624710D01*
X75456187Y-79659964D01*
X75488970Y-79722938D01*
X75490653Y-79760444D01*
X75486496Y-79800000D01*
X75487186Y-79806565D01*
X75495786Y-79888385D01*
X75506458Y-79989928D01*
X75565473Y-80171556D01*
X75568776Y-80177278D01*
X75568777Y-80177279D01*
X75587303Y-80209366D01*
X75660960Y-80336944D01*
X75665378Y-80341851D01*
X75665379Y-80341852D01*
X75776682Y-80465467D01*
X75788747Y-80478866D01*
X75875896Y-80542184D01*
X75925394Y-80578146D01*
X75943248Y-80591118D01*
X75949276Y-80593802D01*
X75949278Y-80593803D01*
X76075250Y-80649889D01*
X76117712Y-80668794D01*
X76211112Y-80688647D01*
X76298056Y-80707128D01*
X76298061Y-80707128D01*
X76304513Y-80708500D01*
X76495487Y-80708500D01*
X76501939Y-80707128D01*
X76501944Y-80707128D01*
X76588888Y-80688647D01*
X76682288Y-80668794D01*
X76724750Y-80649889D01*
X76850722Y-80593803D01*
X76850724Y-80593802D01*
X76856752Y-80591118D01*
X76874607Y-80578146D01*
X76924104Y-80542184D01*
X77011253Y-80478866D01*
X77023318Y-80465467D01*
X77134621Y-80341852D01*
X77134622Y-80341851D01*
X77139040Y-80336944D01*
X77212697Y-80209366D01*
X77231223Y-80177279D01*
X77231224Y-80177278D01*
X77234527Y-80171556D01*
X77293542Y-79989928D01*
X77293930Y-79986235D01*
X77327150Y-79924706D01*
X77389301Y-79890386D01*
X77432568Y-79888385D01*
X77484878Y-79895040D01*
X77484882Y-79895040D01*
X77492137Y-79895963D01*
X77499412Y-79895192D01*
X77499416Y-79895192D01*
X77590642Y-79885523D01*
X77668022Y-79877322D01*
X77678502Y-79873642D01*
X77806833Y-79828575D01*
X77834902Y-79818718D01*
X77890396Y-79783160D01*
X77978035Y-79727005D01*
X77978039Y-79727002D01*
X77983824Y-79723295D01*
X78037059Y-79669781D01*
X78055621Y-79651121D01*
X78055622Y-79651120D01*
X78057881Y-79648849D01*
X78077429Y-79624710D01*
X78370290Y-79263056D01*
X78561841Y-79026510D01*
X78619873Y-78937409D01*
X78681959Y-78771792D01*
X78682883Y-78764531D01*
X78703356Y-78603595D01*
X78703356Y-78603591D01*
X78704279Y-78596336D01*
X78703508Y-78589061D01*
X78703508Y-78589056D01*
X78691385Y-78474671D01*
X78704096Y-78404822D01*
X78752553Y-78352933D01*
X78803403Y-78336094D01*
X78872330Y-78328788D01*
X78926662Y-78323030D01*
X78936806Y-78319468D01*
X79050993Y-78279368D01*
X79093542Y-78264426D01*
X79150908Y-78227668D01*
X79236675Y-78172713D01*
X79236679Y-78172710D01*
X79242464Y-78169003D01*
X79253290Y-78158121D01*
X79314261Y-78096829D01*
X79314262Y-78096828D01*
X79316521Y-78094557D01*
X79330360Y-78077468D01*
X79528716Y-77832518D01*
X79820481Y-77472218D01*
X79878513Y-77383117D01*
X79920856Y-77270166D01*
X79938029Y-77224356D01*
X79938029Y-77224355D01*
X79940599Y-77217500D01*
X79941523Y-77210239D01*
X79961996Y-77049303D01*
X79961996Y-77049299D01*
X79962919Y-77042044D01*
X79958018Y-76995794D01*
X79945050Y-76873439D01*
X79945049Y-76873435D01*
X79944278Y-76866159D01*
X79922381Y-76803804D01*
X79888100Y-76706185D01*
X79888098Y-76706182D01*
X79885674Y-76699278D01*
X79790251Y-76550357D01*
X79715805Y-76476300D01*
X79670890Y-76439928D01*
X79140354Y-76010308D01*
X79100002Y-75951894D01*
X79095253Y-75932436D01*
X79093751Y-75923113D01*
X79078368Y-75827669D01*
X79087276Y-75757234D01*
X79103687Y-75729776D01*
X79891424Y-74727201D01*
X79949238Y-74685994D01*
X80020153Y-74682585D01*
X80081653Y-74718057D01*
X80114213Y-74781147D01*
X80116500Y-74805046D01*
X80116500Y-75525400D01*
X80116837Y-75528646D01*
X80116837Y-75528650D01*
X80125576Y-75612869D01*
X80127474Y-75631166D01*
X80129655Y-75637702D01*
X80129655Y-75637704D01*
X80142433Y-75676003D01*
X80183450Y-75798946D01*
X80276522Y-75949348D01*
X80401697Y-76074305D01*
X80407927Y-76078145D01*
X80407928Y-76078146D01*
X80545288Y-76162816D01*
X80552262Y-76167115D01*
X80632005Y-76193564D01*
X80713611Y-76220632D01*
X80713613Y-76220632D01*
X80720139Y-76222797D01*
X80726975Y-76223497D01*
X80726978Y-76223498D01*
X80770031Y-76227909D01*
X80824600Y-76233500D01*
X81600400Y-76233500D01*
X81603646Y-76233163D01*
X81603650Y-76233163D01*
X81699308Y-76223238D01*
X81699312Y-76223237D01*
X81706166Y-76222526D01*
X81712702Y-76220345D01*
X81712704Y-76220345D01*
X81844806Y-76176272D01*
X81873946Y-76166550D01*
X82024348Y-76073478D01*
X82149305Y-75948303D01*
X82152102Y-75943765D01*
X82209353Y-75903176D01*
X82280276Y-75899946D01*
X82341687Y-75935572D01*
X82349062Y-75944068D01*
X82357098Y-75954207D01*
X82471829Y-76068739D01*
X82483240Y-76077751D01*
X82621243Y-76162816D01*
X82634424Y-76168963D01*
X82788710Y-76220138D01*
X82802086Y-76223005D01*
X82896438Y-76232672D01*
X82902854Y-76233000D01*
X83015385Y-76233000D01*
X83030624Y-76228525D01*
X83031829Y-76227135D01*
X83033500Y-76219452D01*
X83033500Y-76214884D01*
X83541500Y-76214884D01*
X83545975Y-76230123D01*
X83547365Y-76231328D01*
X83555048Y-76232999D01*
X83672095Y-76232999D01*
X83678614Y-76232662D01*
X83765597Y-76223637D01*
X83835418Y-76236502D01*
X83887200Y-76285073D01*
X83904600Y-76348964D01*
X83904600Y-76397862D01*
X83906571Y-76413469D01*
X83942401Y-76553021D01*
X83948194Y-76567650D01*
X84000057Y-76661988D01*
X84010058Y-76671932D01*
X84017527Y-76669122D01*
X84701565Y-75985084D01*
X84709179Y-75971140D01*
X84709048Y-75969307D01*
X84704797Y-75962692D01*
X84406184Y-75664079D01*
X84372158Y-75601767D01*
X84377223Y-75530952D01*
X84383000Y-75518303D01*
X84383000Y-75272115D01*
X84378525Y-75256876D01*
X84377135Y-75255671D01*
X84369452Y-75254000D01*
X83559615Y-75254000D01*
X83544376Y-75258475D01*
X83543171Y-75259865D01*
X83541500Y-75267548D01*
X83541500Y-76214884D01*
X83033500Y-76214884D01*
X83033500Y-74872000D01*
X83053502Y-74803879D01*
X83107158Y-74757386D01*
X83159500Y-74746000D01*
X84364884Y-74746000D01*
X84380123Y-74741525D01*
X84381328Y-74740135D01*
X84382999Y-74732452D01*
X84382999Y-74719669D01*
X84403001Y-74651548D01*
X84456657Y-74605055D01*
X84526931Y-74594951D01*
X84591511Y-74624445D01*
G37*
%TD.AperFunction*%
%TA.AperFunction,Conductor*%
G36*
X103888924Y-87903502D02*
G01*
X103935417Y-87957158D01*
X103940326Y-87969623D01*
X103950058Y-87998791D01*
X103958450Y-88023946D01*
X103962301Y-88030170D01*
X103962302Y-88030171D01*
X103997506Y-88087059D01*
X104051522Y-88174348D01*
X104176697Y-88299305D01*
X104182927Y-88303145D01*
X104182928Y-88303146D01*
X104304993Y-88378388D01*
X104327262Y-88392115D01*
X104366242Y-88405044D01*
X104488611Y-88445632D01*
X104488613Y-88445632D01*
X104495139Y-88447797D01*
X104501975Y-88448497D01*
X104501978Y-88448498D01*
X104545031Y-88452909D01*
X104599600Y-88458500D01*
X105260406Y-88458500D01*
X105328527Y-88478502D01*
X105349501Y-88495405D01*
X105621487Y-88767391D01*
X105655513Y-88829703D01*
X105655593Y-88882897D01*
X105654368Y-88888613D01*
X105652203Y-88895139D01*
X105641500Y-88999600D01*
X105641500Y-90000400D01*
X105641837Y-90003646D01*
X105641837Y-90003650D01*
X105651629Y-90098021D01*
X105652474Y-90106166D01*
X105654655Y-90112702D01*
X105654655Y-90112704D01*
X105655780Y-90116076D01*
X105708450Y-90273946D01*
X105801522Y-90424348D01*
X105926697Y-90549305D01*
X105932927Y-90553145D01*
X105932928Y-90553146D01*
X106070090Y-90637694D01*
X106077262Y-90642115D01*
X106157005Y-90668564D01*
X106238611Y-90695632D01*
X106238613Y-90695632D01*
X106245139Y-90697797D01*
X106251975Y-90698497D01*
X106251978Y-90698498D01*
X106295031Y-90702909D01*
X106349600Y-90708500D01*
X107150400Y-90708500D01*
X107153646Y-90708163D01*
X107153650Y-90708163D01*
X107249305Y-90698238D01*
X107249306Y-90698238D01*
X107256166Y-90697526D01*
X107262387Y-90695451D01*
X107333064Y-90700613D01*
X107389836Y-90743245D01*
X107414546Y-90809802D01*
X107399351Y-90879154D01*
X107391348Y-90891889D01*
X107302035Y-91016796D01*
X107283180Y-91043166D01*
X107259238Y-91092982D01*
X107213057Y-91189070D01*
X107200023Y-91216189D01*
X107147843Y-91400930D01*
X107128191Y-91591890D01*
X107128572Y-91597311D01*
X107128572Y-91597314D01*
X107132905Y-91658953D01*
X107141652Y-91783386D01*
X107142959Y-91788662D01*
X107142960Y-91788666D01*
X107185401Y-91959935D01*
X107187826Y-91969719D01*
X107208740Y-92017105D01*
X107261383Y-92136379D01*
X107265339Y-92145343D01*
X107268355Y-92149863D01*
X107268362Y-92149875D01*
X107348923Y-92270620D01*
X107354194Y-92279252D01*
X107363384Y-92295756D01*
X107371106Y-92305653D01*
X107374649Y-92308979D01*
X107374650Y-92308980D01*
X107390736Y-92324081D01*
X107403128Y-92337535D01*
X112554511Y-98817383D01*
X117331595Y-104826405D01*
X117340089Y-104837090D01*
X117366824Y-104902861D01*
X117353755Y-104972645D01*
X117305034Y-105024285D01*
X117241459Y-105041500D01*
X116764594Y-105041500D01*
X116696473Y-105021498D01*
X116675499Y-105004595D01*
X116103654Y-104432749D01*
X115528652Y-103857747D01*
X115521112Y-103849461D01*
X115517000Y-103842982D01*
X115467348Y-103796356D01*
X115464507Y-103793602D01*
X115444770Y-103773865D01*
X115441573Y-103771385D01*
X115432551Y-103763680D01*
X115400321Y-103733414D01*
X115393375Y-103729595D01*
X115393372Y-103729593D01*
X115382566Y-103723652D01*
X115366047Y-103712801D01*
X115360026Y-103708131D01*
X115350041Y-103700386D01*
X115342772Y-103697241D01*
X115342768Y-103697238D01*
X115309463Y-103682826D01*
X115298813Y-103677609D01*
X115260060Y-103656305D01*
X115250176Y-103653767D01*
X115240438Y-103651267D01*
X115221734Y-103644863D01*
X115210420Y-103639967D01*
X115210419Y-103639967D01*
X115203145Y-103636819D01*
X115195322Y-103635580D01*
X115195312Y-103635577D01*
X115159476Y-103629901D01*
X115147856Y-103627495D01*
X115112711Y-103618472D01*
X115112710Y-103618472D01*
X115105030Y-103616500D01*
X115084776Y-103616500D01*
X115065065Y-103614949D01*
X115052886Y-103613020D01*
X115045057Y-103611780D01*
X115037165Y-103612526D01*
X115001039Y-103615941D01*
X114989181Y-103616500D01*
X112086970Y-103616500D01*
X112018849Y-103596498D01*
X111972356Y-103542842D01*
X111962252Y-103472568D01*
X111968988Y-103446270D01*
X111998478Y-103367606D01*
X112002105Y-103352351D01*
X112007631Y-103301486D01*
X112008000Y-103294672D01*
X112008000Y-102472115D01*
X112003525Y-102456876D01*
X112002135Y-102455671D01*
X111994452Y-102454000D01*
X109760116Y-102454000D01*
X109744877Y-102458475D01*
X109743672Y-102459865D01*
X109742001Y-102467548D01*
X109742001Y-102541907D01*
X109721999Y-102610028D01*
X109668343Y-102656521D01*
X109598069Y-102666625D01*
X109533489Y-102637131D01*
X109526906Y-102631002D01*
X108823789Y-101927885D01*
X109742000Y-101927885D01*
X109746475Y-101943124D01*
X109747865Y-101944329D01*
X109755548Y-101946000D01*
X110602885Y-101946000D01*
X110618124Y-101941525D01*
X110619329Y-101940135D01*
X110621000Y-101932452D01*
X110621000Y-101927885D01*
X111129000Y-101927885D01*
X111133475Y-101943124D01*
X111134865Y-101944329D01*
X111142548Y-101946000D01*
X111989884Y-101946000D01*
X112005123Y-101941525D01*
X112006328Y-101940135D01*
X112007999Y-101932452D01*
X112007999Y-101105331D01*
X112007629Y-101098510D01*
X112002105Y-101047648D01*
X111998479Y-101032396D01*
X111953324Y-100911946D01*
X111944786Y-100896351D01*
X111868285Y-100794276D01*
X111855724Y-100781715D01*
X111753649Y-100705214D01*
X111738054Y-100696676D01*
X111617606Y-100651522D01*
X111602351Y-100647895D01*
X111551486Y-100642369D01*
X111544672Y-100642000D01*
X111147115Y-100642000D01*
X111131876Y-100646475D01*
X111130671Y-100647865D01*
X111129000Y-100655548D01*
X111129000Y-101927885D01*
X110621000Y-101927885D01*
X110621000Y-100660116D01*
X110616525Y-100644877D01*
X110615135Y-100643672D01*
X110607452Y-100642001D01*
X110205331Y-100642001D01*
X110198510Y-100642371D01*
X110147648Y-100647895D01*
X110132396Y-100651521D01*
X110011946Y-100696676D01*
X109996351Y-100705214D01*
X109894276Y-100781715D01*
X109881715Y-100794276D01*
X109805214Y-100896351D01*
X109796676Y-100911946D01*
X109751522Y-101032394D01*
X109747895Y-101047649D01*
X109742369Y-101098514D01*
X109742000Y-101105328D01*
X109742000Y-101927885D01*
X108823789Y-101927885D01*
X107811368Y-100915463D01*
X105170405Y-98274500D01*
X105136379Y-98212188D01*
X105133500Y-98185405D01*
X105133500Y-91275823D01*
X105134027Y-91264640D01*
X105135702Y-91257147D01*
X105135040Y-91236068D01*
X105133562Y-91189070D01*
X105133500Y-91185111D01*
X105133500Y-91157200D01*
X105132995Y-91153200D01*
X105132062Y-91141357D01*
X105130922Y-91105085D01*
X105130673Y-91097166D01*
X105125022Y-91077714D01*
X105121014Y-91058362D01*
X105119467Y-91046119D01*
X105118474Y-91038259D01*
X105115153Y-91029870D01*
X105102200Y-90997153D01*
X105098355Y-90985926D01*
X105089440Y-90955242D01*
X105086018Y-90943463D01*
X105081984Y-90936641D01*
X105081981Y-90936635D01*
X105075706Y-90926024D01*
X105067010Y-90908274D01*
X105062472Y-90896812D01*
X105062469Y-90896807D01*
X105059552Y-90889439D01*
X105044319Y-90868472D01*
X105033573Y-90853681D01*
X105027057Y-90843763D01*
X105008575Y-90812513D01*
X105004542Y-90805693D01*
X104990218Y-90791369D01*
X104977376Y-90776334D01*
X104965472Y-90759949D01*
X104931406Y-90731767D01*
X104922627Y-90723778D01*
X102297444Y-88098595D01*
X102263418Y-88036283D01*
X102268483Y-87965468D01*
X102311030Y-87908632D01*
X102377550Y-87883821D01*
X102386539Y-87883500D01*
X103820803Y-87883500D01*
X103888924Y-87903502D01*
G37*
%TD.AperFunction*%
%TA.AperFunction,Conductor*%
G36*
X90044032Y-80092613D02*
G01*
X90089095Y-80121574D01*
X90304115Y-80336594D01*
X90338140Y-80398906D01*
X90340957Y-80421729D01*
X90341599Y-80442161D01*
X90345190Y-80454521D01*
X90347250Y-80461611D01*
X90351259Y-80480972D01*
X90351484Y-80482749D01*
X90353798Y-80501069D01*
X90356717Y-80508440D01*
X90356717Y-80508442D01*
X90370076Y-80542184D01*
X90373921Y-80553414D01*
X90386254Y-80595865D01*
X90390287Y-80602684D01*
X90390289Y-80602689D01*
X90396565Y-80613300D01*
X90405260Y-80631048D01*
X90412720Y-80649889D01*
X90417382Y-80656305D01*
X90417382Y-80656306D01*
X90438708Y-80685659D01*
X90445224Y-80695579D01*
X90461736Y-80723498D01*
X90467730Y-80733634D01*
X90482051Y-80747955D01*
X90494891Y-80762988D01*
X90506800Y-80779379D01*
X90512906Y-80784430D01*
X90540877Y-80807570D01*
X90549656Y-80815560D01*
X97509309Y-87775213D01*
X97543334Y-87837524D01*
X97538269Y-87908339D01*
X97495722Y-87965175D01*
X97429202Y-87989986D01*
X97359520Y-87974726D01*
X97357577Y-87973658D01*
X97341047Y-87962801D01*
X97340041Y-87962021D01*
X97325041Y-87950386D01*
X97317772Y-87947241D01*
X97317768Y-87947238D01*
X97284463Y-87932826D01*
X97273813Y-87927609D01*
X97235060Y-87906305D01*
X97215437Y-87901267D01*
X97196734Y-87894863D01*
X97185420Y-87889967D01*
X97185419Y-87889967D01*
X97178145Y-87886819D01*
X97170322Y-87885580D01*
X97170312Y-87885577D01*
X97134476Y-87879901D01*
X97122856Y-87877495D01*
X97087711Y-87868472D01*
X97087710Y-87868472D01*
X97080030Y-87866500D01*
X97059776Y-87866500D01*
X97040065Y-87864949D01*
X97027886Y-87863020D01*
X97020057Y-87861780D01*
X97012165Y-87862526D01*
X96976039Y-87865941D01*
X96964181Y-87866500D01*
X82293392Y-87866500D01*
X82225271Y-87846498D01*
X82178778Y-87792842D01*
X82168674Y-87722568D01*
X82198168Y-87657988D01*
X82204297Y-87651405D01*
X88737361Y-81118341D01*
X88795121Y-81085395D01*
X88848079Y-81071797D01*
X88909235Y-81056095D01*
X89049496Y-80978986D01*
X89076887Y-80955592D01*
X89910904Y-80121574D01*
X89973217Y-80087549D01*
X90044032Y-80092613D01*
G37*
%TD.AperFunction*%
%TA.AperFunction,Conductor*%
G36*
X101842012Y-73934019D02*
G01*
X101858105Y-73950802D01*
X105302111Y-78280149D01*
X108048161Y-81732117D01*
X110378937Y-84662059D01*
X110405692Y-84727821D01*
X110392646Y-84797609D01*
X110343941Y-84849265D01*
X110280332Y-84866500D01*
X101380280Y-84866500D01*
X101312159Y-84846498D01*
X101291185Y-84829595D01*
X97060186Y-80598595D01*
X97026160Y-80536283D01*
X97031225Y-80465467D01*
X97073772Y-80408632D01*
X97140292Y-80383821D01*
X97149281Y-80383500D01*
X98921233Y-80383500D01*
X98932416Y-80384027D01*
X98939909Y-80385702D01*
X98947835Y-80385453D01*
X98947836Y-80385453D01*
X99007986Y-80383562D01*
X99011945Y-80383500D01*
X99039856Y-80383500D01*
X99043791Y-80383003D01*
X99043856Y-80382995D01*
X99055693Y-80382062D01*
X99087951Y-80381048D01*
X99091970Y-80380922D01*
X99099889Y-80380673D01*
X99119343Y-80375021D01*
X99138700Y-80371013D01*
X99150930Y-80369468D01*
X99150931Y-80369468D01*
X99158797Y-80368474D01*
X99166168Y-80365555D01*
X99166170Y-80365555D01*
X99199912Y-80352196D01*
X99211142Y-80348351D01*
X99245983Y-80338229D01*
X99245984Y-80338229D01*
X99253593Y-80336018D01*
X99260412Y-80331985D01*
X99260417Y-80331983D01*
X99271028Y-80325707D01*
X99288776Y-80317012D01*
X99307617Y-80309552D01*
X99343387Y-80283564D01*
X99353307Y-80277048D01*
X99384535Y-80258580D01*
X99384538Y-80258578D01*
X99391362Y-80254542D01*
X99405683Y-80240221D01*
X99420717Y-80227380D01*
X99430694Y-80220131D01*
X99437107Y-80215472D01*
X99465298Y-80181395D01*
X99473288Y-80172616D01*
X101517253Y-78128652D01*
X101525539Y-78121112D01*
X101532018Y-78117000D01*
X101578644Y-78067348D01*
X101581398Y-78064507D01*
X101601135Y-78044770D01*
X101603615Y-78041573D01*
X101611320Y-78032551D01*
X101636159Y-78006100D01*
X101641586Y-78000321D01*
X101645405Y-77993375D01*
X101645407Y-77993372D01*
X101651348Y-77982566D01*
X101662199Y-77966047D01*
X101669758Y-77956301D01*
X101674614Y-77950041D01*
X101677759Y-77942772D01*
X101677762Y-77942768D01*
X101692174Y-77909463D01*
X101697391Y-77898813D01*
X101718695Y-77860060D01*
X101723733Y-77840437D01*
X101730137Y-77821734D01*
X101735033Y-77810420D01*
X101735033Y-77810419D01*
X101738181Y-77803145D01*
X101739420Y-77795322D01*
X101739423Y-77795312D01*
X101745099Y-77759476D01*
X101747505Y-77747856D01*
X101756528Y-77712711D01*
X101756528Y-77712710D01*
X101758500Y-77705030D01*
X101758500Y-77684776D01*
X101760051Y-77665065D01*
X101760565Y-77661823D01*
X101763220Y-77645057D01*
X101759059Y-77601038D01*
X101758500Y-77589181D01*
X101758500Y-75203768D01*
X101759027Y-75192585D01*
X101760702Y-75185092D01*
X101758562Y-75117001D01*
X101758500Y-75113044D01*
X101758500Y-75085144D01*
X101757996Y-75081153D01*
X101757063Y-75069311D01*
X101756496Y-75051249D01*
X101755674Y-75025111D01*
X101753462Y-75017497D01*
X101753461Y-75017492D01*
X101750023Y-75005659D01*
X101746012Y-74986295D01*
X101744467Y-74974064D01*
X101743474Y-74966203D01*
X101740557Y-74958836D01*
X101740556Y-74958831D01*
X101727198Y-74925092D01*
X101723354Y-74913865D01*
X101713230Y-74879022D01*
X101711018Y-74871407D01*
X101700707Y-74853972D01*
X101692012Y-74836224D01*
X101684552Y-74817383D01*
X101658564Y-74781613D01*
X101652057Y-74771709D01*
X101651055Y-74770015D01*
X101633500Y-74705861D01*
X101633500Y-74029243D01*
X101653502Y-73961122D01*
X101707158Y-73914629D01*
X101777432Y-73904525D01*
X101842012Y-73934019D01*
G37*
%TD.AperFunction*%
%TA.AperFunction,Conductor*%
G36*
X88071875Y-72889175D02*
G01*
X88114585Y-72945888D01*
X88119854Y-73016689D01*
X88116492Y-73029192D01*
X88106458Y-73060072D01*
X88105768Y-73066633D01*
X88105768Y-73066635D01*
X88093791Y-73180594D01*
X88086496Y-73250000D01*
X88087186Y-73256565D01*
X88105662Y-73432350D01*
X88106458Y-73439928D01*
X88165473Y-73621556D01*
X88168776Y-73627278D01*
X88168777Y-73627279D01*
X88184422Y-73654376D01*
X88260960Y-73786944D01*
X88265378Y-73791851D01*
X88265379Y-73791852D01*
X88347452Y-73883003D01*
X88388747Y-73928866D01*
X88447505Y-73971556D01*
X88526904Y-74029243D01*
X88543248Y-74041118D01*
X88549276Y-74043802D01*
X88549278Y-74043803D01*
X88668366Y-74096824D01*
X88717712Y-74118794D01*
X88803101Y-74136944D01*
X88898056Y-74157128D01*
X88898061Y-74157128D01*
X88904513Y-74158500D01*
X89095487Y-74158500D01*
X89101939Y-74157128D01*
X89101944Y-74157128D01*
X89196899Y-74136944D01*
X89282288Y-74118794D01*
X89331634Y-74096824D01*
X89450722Y-74043803D01*
X89450724Y-74043802D01*
X89456752Y-74041118D01*
X89473097Y-74029243D01*
X89604161Y-73934019D01*
X89611253Y-73928866D01*
X89615668Y-73923963D01*
X89620580Y-73919540D01*
X89621705Y-73920789D01*
X89675014Y-73887949D01*
X89708200Y-73883500D01*
X91105547Y-73883500D01*
X91116730Y-73884027D01*
X91124223Y-73885702D01*
X91132149Y-73885453D01*
X91132150Y-73885453D01*
X91192300Y-73883562D01*
X91196259Y-73883500D01*
X91224170Y-73883500D01*
X91228105Y-73883003D01*
X91228170Y-73882995D01*
X91240007Y-73882062D01*
X91272265Y-73881048D01*
X91276284Y-73880922D01*
X91284203Y-73880673D01*
X91303657Y-73875021D01*
X91323014Y-73871013D01*
X91335244Y-73869468D01*
X91335245Y-73869468D01*
X91343111Y-73868474D01*
X91350482Y-73865555D01*
X91350484Y-73865555D01*
X91384226Y-73852196D01*
X91395456Y-73848351D01*
X91430297Y-73838229D01*
X91430298Y-73838229D01*
X91437907Y-73836018D01*
X91444726Y-73831985D01*
X91444731Y-73831983D01*
X91455342Y-73825707D01*
X91473090Y-73817012D01*
X91491931Y-73809552D01*
X91527701Y-73783564D01*
X91537621Y-73777048D01*
X91568849Y-73758580D01*
X91568852Y-73758578D01*
X91575676Y-73754542D01*
X91589997Y-73740221D01*
X91605031Y-73727380D01*
X91615008Y-73720131D01*
X91621421Y-73715472D01*
X91649612Y-73681395D01*
X91657602Y-73672616D01*
X92138291Y-73191927D01*
X92200603Y-73157901D01*
X92271418Y-73162966D01*
X92316481Y-73191927D01*
X92476982Y-73352428D01*
X92476995Y-73352440D01*
X92478748Y-73354193D01*
X92480620Y-73355792D01*
X92480632Y-73355803D01*
X92498726Y-73371257D01*
X92506139Y-73377588D01*
X92534330Y-73393086D01*
X92633856Y-73447801D01*
X92683570Y-73497515D01*
X92741087Y-73602138D01*
X92753783Y-73625232D01*
X92777177Y-73652623D01*
X93044433Y-73919878D01*
X93046305Y-73921477D01*
X93046317Y-73921488D01*
X93059502Y-73932749D01*
X93071824Y-73943273D01*
X93077466Y-73946375D01*
X93077468Y-73946376D01*
X93199540Y-74013485D01*
X93249255Y-74063200D01*
X93278342Y-74116109D01*
X93319468Y-74190918D01*
X93342862Y-74218309D01*
X93344623Y-74220070D01*
X93344635Y-74220083D01*
X93378556Y-74254004D01*
X93412582Y-74316316D01*
X93407517Y-74387131D01*
X93383097Y-74427409D01*
X93260960Y-74563056D01*
X93165473Y-74728444D01*
X93106458Y-74910072D01*
X93105768Y-74916633D01*
X93105768Y-74916635D01*
X93089161Y-75074644D01*
X93086496Y-75100000D01*
X93087186Y-75106565D01*
X93105129Y-75277279D01*
X93106458Y-75289928D01*
X93165473Y-75471556D01*
X93168776Y-75477278D01*
X93168777Y-75477279D01*
X93245973Y-75610987D01*
X93260960Y-75636944D01*
X93265378Y-75641851D01*
X93265379Y-75641852D01*
X93296129Y-75676003D01*
X93326846Y-75740011D01*
X93318082Y-75810465D01*
X93312908Y-75821014D01*
X93249255Y-75936800D01*
X93199540Y-75986515D01*
X93140875Y-76018766D01*
X93071824Y-76056727D01*
X93044433Y-76080121D01*
X92777178Y-76347377D01*
X92775579Y-76349249D01*
X92775568Y-76349261D01*
X92761563Y-76365659D01*
X92753783Y-76374768D01*
X92750682Y-76380409D01*
X92683570Y-76502485D01*
X92633856Y-76552199D01*
X92511783Y-76619309D01*
X92506139Y-76622412D01*
X92478748Y-76645806D01*
X92211493Y-76913062D01*
X92209894Y-76914934D01*
X92209883Y-76914946D01*
X92195979Y-76931226D01*
X92188098Y-76940453D01*
X92184997Y-76946094D01*
X92117885Y-77068171D01*
X92068171Y-77117885D01*
X91956004Y-77179549D01*
X91940453Y-77188098D01*
X91913062Y-77211492D01*
X91645807Y-77478748D01*
X91644208Y-77480620D01*
X91644197Y-77480632D01*
X91639633Y-77485976D01*
X91622412Y-77506139D01*
X91619311Y-77511780D01*
X91552199Y-77633856D01*
X91502485Y-77683570D01*
X91385549Y-77747856D01*
X91374768Y-77753783D01*
X91347377Y-77777177D01*
X91080122Y-78044433D01*
X91078523Y-78046305D01*
X91078512Y-78046317D01*
X91063058Y-78064411D01*
X91056727Y-78071824D01*
X91053625Y-78077466D01*
X91053624Y-78077468D01*
X90986515Y-78199540D01*
X90936800Y-78249255D01*
X90886765Y-78276762D01*
X90809082Y-78319468D01*
X90781691Y-78342862D01*
X90514436Y-78610118D01*
X90512837Y-78611990D01*
X90512826Y-78612002D01*
X90497372Y-78630096D01*
X90491041Y-78637509D01*
X90487939Y-78643151D01*
X90487938Y-78643153D01*
X90420828Y-78765227D01*
X90371113Y-78814942D01*
X90243397Y-78885154D01*
X90216006Y-78908548D01*
X90214249Y-78910305D01*
X90214232Y-78910321D01*
X90089094Y-79035459D01*
X90026782Y-79069485D01*
X89955967Y-79064420D01*
X89910904Y-79035459D01*
X89783994Y-78908549D01*
X89756603Y-78885154D01*
X89628887Y-78814942D01*
X89579172Y-78765227D01*
X89512064Y-78643157D01*
X89508959Y-78637509D01*
X89485565Y-78610118D01*
X89218309Y-78342863D01*
X89216437Y-78341264D01*
X89216425Y-78341253D01*
X89195813Y-78323649D01*
X89190918Y-78319468D01*
X89128432Y-78285116D01*
X89063200Y-78249255D01*
X89013485Y-78199540D01*
X88946378Y-78077472D01*
X88943273Y-78071824D01*
X88919879Y-78044433D01*
X88652623Y-77777178D01*
X88650751Y-77775579D01*
X88650739Y-77775568D01*
X88630127Y-77757964D01*
X88625232Y-77753783D01*
X88619597Y-77750685D01*
X88619588Y-77750679D01*
X88496698Y-77683121D01*
X88446984Y-77633408D01*
X88398544Y-77545297D01*
X88388544Y-77535354D01*
X88381075Y-77538164D01*
X88319276Y-77599963D01*
X88256964Y-77633989D01*
X88230181Y-77636868D01*
X88169881Y-77636868D01*
X88121555Y-77649276D01*
X88063216Y-77664255D01*
X87992261Y-77661823D01*
X87933885Y-77621415D01*
X87906622Y-77555862D01*
X87919128Y-77485976D01*
X87942786Y-77453118D01*
X88200501Y-77195404D01*
X88262813Y-77161379D01*
X88289596Y-77158500D01*
X88345487Y-77158500D01*
X88351939Y-77157128D01*
X88351944Y-77157128D01*
X88440529Y-77138298D01*
X88532288Y-77118794D01*
X88538319Y-77116109D01*
X88700722Y-77043803D01*
X88700724Y-77043802D01*
X88706752Y-77041118D01*
X88735611Y-77020151D01*
X88798443Y-76974500D01*
X88861253Y-76928866D01*
X88875483Y-76913062D01*
X88984621Y-76791852D01*
X88984622Y-76791851D01*
X88989040Y-76786944D01*
X89084527Y-76621556D01*
X89143542Y-76439928D01*
X89159208Y-76290879D01*
X89162814Y-76256565D01*
X89163504Y-76250000D01*
X89145834Y-76081875D01*
X89144232Y-76066635D01*
X89144232Y-76066633D01*
X89143542Y-76060072D01*
X89084527Y-75878444D01*
X88989040Y-75713056D01*
X88962594Y-75683684D01*
X88865675Y-75576045D01*
X88865674Y-75576044D01*
X88861253Y-75571134D01*
X88706752Y-75458882D01*
X88700724Y-75456198D01*
X88700722Y-75456197D01*
X88538319Y-75383891D01*
X88538318Y-75383891D01*
X88532288Y-75381206D01*
X88438888Y-75361353D01*
X88351944Y-75342872D01*
X88351939Y-75342872D01*
X88345487Y-75341500D01*
X88154513Y-75341500D01*
X88148061Y-75342872D01*
X88148056Y-75342872D01*
X88061112Y-75361353D01*
X87967712Y-75381206D01*
X87961682Y-75383891D01*
X87961681Y-75383891D01*
X87799278Y-75456197D01*
X87799276Y-75456198D01*
X87793248Y-75458882D01*
X87638747Y-75571134D01*
X87634326Y-75576044D01*
X87634325Y-75576045D01*
X87537407Y-75683684D01*
X87510960Y-75713056D01*
X87415473Y-75878444D01*
X87356458Y-76060072D01*
X87355769Y-76066631D01*
X87355768Y-76066634D01*
X87344036Y-76178260D01*
X87317023Y-76243916D01*
X87258801Y-76284546D01*
X87187856Y-76287249D01*
X87129631Y-76254185D01*
X86957320Y-76081875D01*
X86955567Y-76080122D01*
X86953695Y-76078523D01*
X86953683Y-76078512D01*
X86933071Y-76060908D01*
X86928176Y-76056727D01*
X86859602Y-76019028D01*
X86800460Y-75986515D01*
X86750745Y-75936800D01*
X86683637Y-75814730D01*
X86680532Y-75809082D01*
X86657138Y-75781691D01*
X86655377Y-75779930D01*
X86655365Y-75779917D01*
X86621444Y-75745996D01*
X86587418Y-75683684D01*
X86592483Y-75612869D01*
X86616903Y-75572591D01*
X86734621Y-75441852D01*
X86734622Y-75441851D01*
X86739040Y-75436944D01*
X86834527Y-75271556D01*
X86893542Y-75089928D01*
X86895149Y-75074644D01*
X86912814Y-74906565D01*
X86913504Y-74900000D01*
X86906800Y-74836213D01*
X86894232Y-74716635D01*
X86894232Y-74716633D01*
X86893542Y-74710072D01*
X86834527Y-74528444D01*
X86739040Y-74363056D01*
X86703871Y-74323997D01*
X86673154Y-74259989D01*
X86681918Y-74189535D01*
X86687092Y-74178986D01*
X86750745Y-74063200D01*
X86800460Y-74013485D01*
X86922528Y-73946378D01*
X86928176Y-73943273D01*
X86955567Y-73919879D01*
X87222822Y-73652623D01*
X87224421Y-73650751D01*
X87224432Y-73650739D01*
X87242036Y-73630127D01*
X87246217Y-73625232D01*
X87272495Y-73577432D01*
X87316430Y-73497515D01*
X87366144Y-73447801D01*
X87488217Y-73380691D01*
X87488220Y-73380689D01*
X87493861Y-73377588D01*
X87521252Y-73354194D01*
X87788507Y-73086938D01*
X87790106Y-73085066D01*
X87790117Y-73085054D01*
X87807721Y-73064442D01*
X87811902Y-73059547D01*
X87882115Y-72931829D01*
X87931826Y-72882117D01*
X87935953Y-72879848D01*
X88005283Y-72864557D01*
X88071875Y-72889175D01*
G37*
%TD.AperFunction*%
%TA.AperFunction,Conductor*%
G36*
X96069090Y-68730980D02*
G01*
X96125926Y-68773527D01*
X96150385Y-68836033D01*
X96152474Y-68856166D01*
X96208450Y-69023946D01*
X96301522Y-69174348D01*
X96426697Y-69299305D01*
X96432927Y-69303145D01*
X96432928Y-69303146D01*
X96570090Y-69387694D01*
X96577262Y-69392115D01*
X96657005Y-69418564D01*
X96738611Y-69445632D01*
X96738613Y-69445632D01*
X96745139Y-69447797D01*
X96751975Y-69448497D01*
X96751978Y-69448498D01*
X96795031Y-69452909D01*
X96849600Y-69458500D01*
X97260406Y-69458500D01*
X97328527Y-69478502D01*
X97349501Y-69495405D01*
X97621487Y-69767391D01*
X97655513Y-69829703D01*
X97655593Y-69882897D01*
X97654368Y-69888613D01*
X97652203Y-69895139D01*
X97641500Y-69999600D01*
X97641500Y-71000400D01*
X97641837Y-71003646D01*
X97641837Y-71003650D01*
X97649726Y-71079679D01*
X97652474Y-71106166D01*
X97654655Y-71112702D01*
X97654655Y-71112704D01*
X97683159Y-71198140D01*
X97708450Y-71273946D01*
X97801522Y-71424348D01*
X97926697Y-71549305D01*
X97932927Y-71553145D01*
X97932928Y-71553146D01*
X98063051Y-71633355D01*
X98077262Y-71642115D01*
X98122555Y-71657138D01*
X98238611Y-71695632D01*
X98238613Y-71695632D01*
X98245139Y-71697797D01*
X98251975Y-71698497D01*
X98251978Y-71698498D01*
X98295031Y-71702909D01*
X98349600Y-71708500D01*
X98986833Y-71708500D01*
X99054954Y-71728502D01*
X99077248Y-71746744D01*
X99730915Y-72420219D01*
X99764006Y-72483032D01*
X99766500Y-72507975D01*
X99766500Y-73939521D01*
X99746498Y-74007642D01*
X99692842Y-74054135D01*
X99622568Y-74064239D01*
X99557988Y-74034745D01*
X99551482Y-74028694D01*
X99453483Y-73930866D01*
X99448303Y-73925695D01*
X99442072Y-73921854D01*
X99303968Y-73836725D01*
X99303966Y-73836724D01*
X99297738Y-73832885D01*
X99168226Y-73789928D01*
X99136389Y-73779368D01*
X99136387Y-73779368D01*
X99129861Y-73777203D01*
X99123025Y-73776503D01*
X99123022Y-73776502D01*
X99079969Y-73772091D01*
X99025400Y-73766500D01*
X98249600Y-73766500D01*
X98246354Y-73766837D01*
X98246350Y-73766837D01*
X98150692Y-73776762D01*
X98150688Y-73776763D01*
X98143834Y-73777474D01*
X98137298Y-73779655D01*
X98137296Y-73779655D01*
X98014393Y-73820659D01*
X97976054Y-73833450D01*
X97825652Y-73926522D01*
X97700695Y-74051697D01*
X97697898Y-74056235D01*
X97640647Y-74096824D01*
X97569724Y-74100054D01*
X97508313Y-74064428D01*
X97500938Y-74055932D01*
X97492902Y-74045793D01*
X97378171Y-73931261D01*
X97366760Y-73922249D01*
X97228757Y-73837184D01*
X97215576Y-73831037D01*
X97061290Y-73779862D01*
X97047914Y-73776995D01*
X96953562Y-73767328D01*
X96947145Y-73767000D01*
X96834615Y-73767000D01*
X96819376Y-73771475D01*
X96818171Y-73772865D01*
X96816500Y-73780548D01*
X96816500Y-76214884D01*
X96820975Y-76230123D01*
X96822365Y-76231328D01*
X96830048Y-76232999D01*
X96947095Y-76232999D01*
X96953614Y-76232662D01*
X97049206Y-76222743D01*
X97062600Y-76219851D01*
X97216784Y-76168412D01*
X97229962Y-76162239D01*
X97367807Y-76076937D01*
X97379208Y-76067901D01*
X97493738Y-75953172D01*
X97500794Y-75944238D01*
X97558712Y-75903177D01*
X97629635Y-75899947D01*
X97691046Y-75935574D01*
X97697846Y-75943407D01*
X97701522Y-75949348D01*
X97706704Y-75954521D01*
X97706705Y-75954522D01*
X97714519Y-75962323D01*
X97748597Y-76024606D01*
X97745332Y-76090430D01*
X97721663Y-76163275D01*
X97706458Y-76210072D01*
X97705768Y-76216633D01*
X97705768Y-76216635D01*
X97698575Y-76285073D01*
X97686496Y-76400000D01*
X97687186Y-76406565D01*
X97704117Y-76567650D01*
X97706458Y-76589928D01*
X97765473Y-76771556D01*
X97860960Y-76936944D01*
X97865378Y-76941851D01*
X97865379Y-76941852D01*
X97955592Y-77042044D01*
X97988747Y-77078866D01*
X98054406Y-77126570D01*
X98127325Y-77179549D01*
X98143248Y-77191118D01*
X98149276Y-77193802D01*
X98149278Y-77193803D01*
X98311681Y-77266109D01*
X98317712Y-77268794D01*
X98411112Y-77288647D01*
X98498056Y-77307128D01*
X98498061Y-77307128D01*
X98504513Y-77308500D01*
X98695487Y-77308500D01*
X98701939Y-77307128D01*
X98701944Y-77307128D01*
X98788888Y-77288647D01*
X98882288Y-77268794D01*
X98888319Y-77266109D01*
X99050722Y-77193803D01*
X99050724Y-77193802D01*
X99056752Y-77191118D01*
X99072676Y-77179549D01*
X99145594Y-77126570D01*
X99211253Y-77078866D01*
X99244408Y-77042044D01*
X99334621Y-76941852D01*
X99334622Y-76941851D01*
X99339040Y-76936944D01*
X99434527Y-76771556D01*
X99493542Y-76589928D01*
X99495884Y-76567650D01*
X99512814Y-76406565D01*
X99513504Y-76400000D01*
X99501425Y-76285073D01*
X99494232Y-76216635D01*
X99494232Y-76216633D01*
X99493542Y-76210072D01*
X99478337Y-76163275D01*
X99473043Y-76146982D01*
X99471016Y-76076014D01*
X99503703Y-76019028D01*
X99536160Y-75986515D01*
X99551327Y-75971321D01*
X99613610Y-75937242D01*
X99684430Y-75942245D01*
X99741302Y-75984742D01*
X99766171Y-76051241D01*
X99766500Y-76060339D01*
X99766500Y-76885405D01*
X99746498Y-76953526D01*
X99729595Y-76974500D01*
X98374500Y-78329595D01*
X98312188Y-78363621D01*
X98285405Y-78366500D01*
X96936445Y-78366500D01*
X96868324Y-78346498D01*
X96843126Y-78325161D01*
X96841893Y-78323801D01*
X95742113Y-77111550D01*
X95711156Y-77047658D01*
X95719655Y-76977172D01*
X95746336Y-76937794D01*
X95953838Y-76730291D01*
X95955591Y-76728538D01*
X95957190Y-76726666D01*
X95957201Y-76726654D01*
X95974805Y-76706042D01*
X95978986Y-76701147D01*
X95983404Y-76693112D01*
X96052279Y-76567827D01*
X96052280Y-76567825D01*
X96056095Y-76560885D01*
X96058115Y-76553021D01*
X96093930Y-76413532D01*
X96093930Y-76413531D01*
X96095901Y-76405855D01*
X96095901Y-76359000D01*
X96115903Y-76290879D01*
X96169559Y-76244386D01*
X96221901Y-76233000D01*
X96290385Y-76233000D01*
X96305624Y-76228525D01*
X96306829Y-76227135D01*
X96308500Y-76219452D01*
X96308500Y-75272115D01*
X96304025Y-75256876D01*
X96302635Y-75255671D01*
X96294952Y-75254000D01*
X95485116Y-75254000D01*
X95461729Y-75260867D01*
X95415713Y-75290440D01*
X95344716Y-75290440D01*
X95291119Y-75258640D01*
X95121221Y-75088743D01*
X95087196Y-75026431D01*
X95092260Y-74955615D01*
X95121221Y-74910552D01*
X95290573Y-74741200D01*
X95352885Y-74707174D01*
X95423700Y-74712239D01*
X95462180Y-74735071D01*
X95472864Y-74744328D01*
X95480548Y-74746000D01*
X96290385Y-74746000D01*
X96305624Y-74741525D01*
X96306829Y-74740135D01*
X96308500Y-74732452D01*
X96308500Y-73785116D01*
X96304025Y-73769877D01*
X96302635Y-73768672D01*
X96294952Y-73767001D01*
X96221400Y-73767001D01*
X96153279Y-73746999D01*
X96106786Y-73693343D01*
X96095400Y-73641001D01*
X96095400Y-73602138D01*
X96093429Y-73586531D01*
X96057599Y-73446979D01*
X96051806Y-73432350D01*
X95999943Y-73338012D01*
X95989942Y-73328068D01*
X95982473Y-73330878D01*
X95021165Y-74292186D01*
X94958853Y-74326212D01*
X94888038Y-74321147D01*
X94842975Y-74292186D01*
X94815043Y-74264254D01*
X94781017Y-74201942D01*
X94786082Y-74131127D01*
X94815042Y-74086066D01*
X95389905Y-73511202D01*
X95413300Y-73483811D01*
X95469992Y-73380689D01*
X95486593Y-73350492D01*
X95486594Y-73350489D01*
X95490409Y-73343550D01*
X95492378Y-73335880D01*
X95492380Y-73335876D01*
X95528244Y-73196196D01*
X95528244Y-73196195D01*
X95530215Y-73188519D01*
X95530215Y-73128220D01*
X95550217Y-73060099D01*
X95567120Y-73039125D01*
X95624850Y-72981395D01*
X95631610Y-72969015D01*
X95626829Y-72962629D01*
X95533676Y-72911417D01*
X95483962Y-72861702D01*
X95416405Y-72738816D01*
X95413300Y-72733168D01*
X95389906Y-72705777D01*
X95122650Y-72438522D01*
X95120778Y-72436923D01*
X95120766Y-72436912D01*
X95100154Y-72419308D01*
X95095259Y-72415127D01*
X95033557Y-72381206D01*
X94967543Y-72344915D01*
X94917828Y-72295200D01*
X94850720Y-72173130D01*
X94847615Y-72167482D01*
X94824221Y-72140091D01*
X94556965Y-71872836D01*
X94555093Y-71871237D01*
X94555081Y-71871226D01*
X94534469Y-71853622D01*
X94529574Y-71849441D01*
X94468192Y-71815696D01*
X94401857Y-71779228D01*
X94352143Y-71729514D01*
X94285033Y-71607441D01*
X94285032Y-71607439D01*
X94281930Y-71601797D01*
X94258536Y-71574406D01*
X93991280Y-71307151D01*
X93989408Y-71305552D01*
X93989396Y-71305541D01*
X93968784Y-71287937D01*
X93963889Y-71283756D01*
X93836171Y-71213543D01*
X93786457Y-71163829D01*
X93719347Y-71041755D01*
X93719346Y-71041753D01*
X93716244Y-71036111D01*
X93692850Y-71008720D01*
X93425594Y-70741465D01*
X93423722Y-70739866D01*
X93423710Y-70739855D01*
X93403098Y-70722251D01*
X93398203Y-70718070D01*
X93370012Y-70702572D01*
X93270486Y-70647857D01*
X93220772Y-70598143D01*
X93153662Y-70476070D01*
X93153661Y-70476068D01*
X93150559Y-70470426D01*
X93127165Y-70443035D01*
X92932725Y-70248595D01*
X92898700Y-70186284D01*
X92903764Y-70115468D01*
X92946311Y-70058632D01*
X93012831Y-70033821D01*
X93021820Y-70033500D01*
X94321233Y-70033500D01*
X94332416Y-70034027D01*
X94339909Y-70035702D01*
X94347835Y-70035453D01*
X94347836Y-70035453D01*
X94407986Y-70033562D01*
X94411945Y-70033500D01*
X94439856Y-70033500D01*
X94443791Y-70033003D01*
X94443856Y-70032995D01*
X94455693Y-70032062D01*
X94487951Y-70031048D01*
X94491970Y-70030922D01*
X94499889Y-70030673D01*
X94519343Y-70025021D01*
X94538700Y-70021013D01*
X94550930Y-70019468D01*
X94550931Y-70019468D01*
X94558797Y-70018474D01*
X94566168Y-70015555D01*
X94566170Y-70015555D01*
X94599912Y-70002196D01*
X94611142Y-69998351D01*
X94645983Y-69988229D01*
X94645984Y-69988229D01*
X94653593Y-69986018D01*
X94660412Y-69981985D01*
X94660417Y-69981983D01*
X94671028Y-69975707D01*
X94688776Y-69967012D01*
X94707617Y-69959552D01*
X94743387Y-69933564D01*
X94753307Y-69927048D01*
X94784535Y-69908580D01*
X94784538Y-69908578D01*
X94791362Y-69904542D01*
X94805683Y-69890221D01*
X94820717Y-69877380D01*
X94830694Y-69870131D01*
X94837107Y-69865472D01*
X94865298Y-69831395D01*
X94873288Y-69822616D01*
X95935963Y-68759941D01*
X95998275Y-68725915D01*
X96069090Y-68730980D01*
G37*
%TD.AperFunction*%
%TA.AperFunction,Conductor*%
G36*
X85713325Y-67653502D02*
G01*
X85734299Y-67670405D01*
X87600788Y-69536894D01*
X87634814Y-69599206D01*
X87629749Y-69670021D01*
X87600788Y-69715084D01*
X87438522Y-69877350D01*
X87415127Y-69904741D01*
X87412025Y-69910383D01*
X87412024Y-69910385D01*
X87344915Y-70032457D01*
X87295200Y-70082172D01*
X87167482Y-70152385D01*
X87140091Y-70175779D01*
X87138330Y-70177540D01*
X87138317Y-70177552D01*
X86977825Y-70338044D01*
X86915513Y-70372070D01*
X86844698Y-70367005D01*
X86799635Y-70338044D01*
X86569338Y-70107747D01*
X86561798Y-70099461D01*
X86557686Y-70092982D01*
X86532245Y-70069091D01*
X86508035Y-70046357D01*
X86505193Y-70043602D01*
X86485456Y-70023865D01*
X86482259Y-70021385D01*
X86473237Y-70013680D01*
X86446786Y-69988841D01*
X86441007Y-69983414D01*
X86434061Y-69979595D01*
X86434058Y-69979593D01*
X86423252Y-69973652D01*
X86406733Y-69962801D01*
X86402544Y-69959552D01*
X86390727Y-69950386D01*
X86383458Y-69947241D01*
X86383454Y-69947238D01*
X86350149Y-69932826D01*
X86339499Y-69927609D01*
X86300746Y-69906305D01*
X86281123Y-69901267D01*
X86262420Y-69894863D01*
X86251106Y-69889967D01*
X86251105Y-69889967D01*
X86243831Y-69886819D01*
X86236008Y-69885580D01*
X86235998Y-69885577D01*
X86200162Y-69879901D01*
X86188542Y-69877495D01*
X86153397Y-69868472D01*
X86153396Y-69868472D01*
X86145716Y-69866500D01*
X86125462Y-69866500D01*
X86105751Y-69864949D01*
X86093572Y-69863020D01*
X86085743Y-69861780D01*
X86077851Y-69862526D01*
X86041725Y-69865941D01*
X86029867Y-69866500D01*
X82669139Y-69866500D01*
X82601018Y-69846498D01*
X82554525Y-69792842D01*
X82544421Y-69722568D01*
X82564301Y-69670608D01*
X82668301Y-69514608D01*
X82722730Y-69469023D01*
X82773139Y-69458500D01*
X83150400Y-69458500D01*
X83153646Y-69458163D01*
X83153650Y-69458163D01*
X83249308Y-69448238D01*
X83249312Y-69448237D01*
X83256166Y-69447526D01*
X83262702Y-69445345D01*
X83262704Y-69445345D01*
X83394806Y-69401272D01*
X83423946Y-69391550D01*
X83574348Y-69298478D01*
X83699305Y-69173303D01*
X83703146Y-69167072D01*
X83788275Y-69028968D01*
X83788276Y-69028966D01*
X83792115Y-69022738D01*
X83847797Y-68854861D01*
X83858500Y-68750400D01*
X83858500Y-67759500D01*
X83878502Y-67691379D01*
X83932158Y-67644886D01*
X83984500Y-67633500D01*
X85645204Y-67633500D01*
X85713325Y-67653502D01*
G37*
%TD.AperFunction*%
%TA.AperFunction,Conductor*%
G36*
X90064200Y-50056125D02*
G01*
X90122773Y-50072436D01*
X90154095Y-50085951D01*
X90206144Y-50117375D01*
X90232694Y-50138800D01*
X90261226Y-50169059D01*
X90272969Y-50183519D01*
X90274313Y-50185450D01*
X90278344Y-50193469D01*
X90284466Y-50200037D01*
X90309988Y-50227418D01*
X90316929Y-50235528D01*
X93829749Y-54710458D01*
X98159177Y-60225652D01*
X98274161Y-60372129D01*
X98300491Y-60438063D01*
X98286994Y-60507765D01*
X98237956Y-60559105D01*
X98168946Y-60575783D01*
X98103503Y-60553646D01*
X98070282Y-60530728D01*
X98056935Y-60523721D01*
X97919420Y-60471484D01*
X97904784Y-60467862D01*
X97758782Y-60449936D01*
X97743700Y-60449909D01*
X97597634Y-60467326D01*
X97582993Y-60470895D01*
X97444443Y-60522972D01*
X97432564Y-60528941D01*
X97381933Y-60561508D01*
X97377215Y-60564858D01*
X96901585Y-60936461D01*
X96892329Y-60949371D01*
X96892236Y-60951208D01*
X96895649Y-60958291D01*
X97243777Y-61403873D01*
X97478960Y-61704893D01*
X97505138Y-61770888D01*
X97491481Y-61840558D01*
X97457244Y-61881756D01*
X96194930Y-62867984D01*
X96186096Y-62880307D01*
X96191941Y-62891138D01*
X96200340Y-62900067D01*
X96232446Y-62963389D01*
X96225221Y-63034017D01*
X96180958Y-63089527D01*
X96159810Y-63101508D01*
X96149282Y-63106195D01*
X96149278Y-63106197D01*
X96143248Y-63108882D01*
X95988747Y-63221134D01*
X95984326Y-63226044D01*
X95984325Y-63226045D01*
X95917376Y-63300400D01*
X95860960Y-63363056D01*
X95765473Y-63528444D01*
X95706458Y-63710072D01*
X95705768Y-63716633D01*
X95705768Y-63716635D01*
X95704414Y-63729521D01*
X95686496Y-63900000D01*
X95687186Y-63906565D01*
X95704958Y-64075652D01*
X95706458Y-64089928D01*
X95765473Y-64271556D01*
X95860960Y-64436944D01*
X95865378Y-64441851D01*
X95865379Y-64441852D01*
X95920272Y-64502817D01*
X95988747Y-64578866D01*
X96143248Y-64691118D01*
X96149276Y-64693802D01*
X96149278Y-64693803D01*
X96311681Y-64766109D01*
X96317712Y-64768794D01*
X96411112Y-64788647D01*
X96498056Y-64807128D01*
X96498061Y-64807128D01*
X96504513Y-64808500D01*
X96517139Y-64808500D01*
X96585260Y-64828502D01*
X96631753Y-64882158D01*
X96641857Y-64952432D01*
X96612363Y-65017012D01*
X96606235Y-65023594D01*
X95022081Y-66607747D01*
X93449753Y-68180075D01*
X93387441Y-68214101D01*
X93360658Y-68216980D01*
X92268489Y-68216980D01*
X92257306Y-68216453D01*
X92249813Y-68214778D01*
X92241887Y-68215027D01*
X92241886Y-68215027D01*
X92181736Y-68216918D01*
X92177777Y-68216980D01*
X92149866Y-68216980D01*
X92145932Y-68217477D01*
X92145931Y-68217477D01*
X92145866Y-68217485D01*
X92134029Y-68218418D01*
X92102212Y-68219418D01*
X92097751Y-68219558D01*
X92089832Y-68219807D01*
X92072176Y-68224936D01*
X92070380Y-68225458D01*
X92051028Y-68229466D01*
X92043957Y-68230360D01*
X92030925Y-68232006D01*
X92023556Y-68234923D01*
X92023554Y-68234924D01*
X91989819Y-68248280D01*
X91978605Y-68252121D01*
X91977941Y-68252314D01*
X91906945Y-68252120D01*
X91847324Y-68213573D01*
X91818007Y-68148912D01*
X91828303Y-68078666D01*
X91853678Y-68042226D01*
X92517247Y-67378657D01*
X92525537Y-67371113D01*
X92532018Y-67367000D01*
X92578659Y-67317332D01*
X92581413Y-67314491D01*
X92601134Y-67294770D01*
X92603612Y-67291575D01*
X92611318Y-67282553D01*
X92636158Y-67256101D01*
X92641586Y-67250321D01*
X92651346Y-67232568D01*
X92662199Y-67216045D01*
X92663356Y-67214553D01*
X92674613Y-67200041D01*
X92692176Y-67159457D01*
X92697383Y-67148827D01*
X92718695Y-67110060D01*
X92720666Y-67102383D01*
X92720668Y-67102378D01*
X92723732Y-67090442D01*
X92730138Y-67071730D01*
X92735034Y-67060417D01*
X92738181Y-67053145D01*
X92739967Y-67041872D01*
X92745097Y-67009481D01*
X92747504Y-66997860D01*
X92756528Y-66962711D01*
X92756528Y-66962710D01*
X92758500Y-66955030D01*
X92758500Y-66934769D01*
X92760051Y-66915058D01*
X92760389Y-66912928D01*
X92763219Y-66895057D01*
X92759059Y-66851046D01*
X92758500Y-66839189D01*
X92758500Y-62146639D01*
X95775321Y-62146639D01*
X95792737Y-62292698D01*
X95796311Y-62307356D01*
X95848384Y-62445893D01*
X95854355Y-62457776D01*
X95858095Y-62463591D01*
X95869557Y-62473515D01*
X95880879Y-62468684D01*
X96829190Y-61727783D01*
X96838446Y-61714873D01*
X96838539Y-61713035D01*
X96835127Y-61705954D01*
X96498154Y-61274648D01*
X96485243Y-61265392D01*
X96483405Y-61265299D01*
X96476324Y-61268711D01*
X95997089Y-61643131D01*
X95992706Y-61646890D01*
X95948854Y-61688143D01*
X95940186Y-61698229D01*
X95856139Y-61820062D01*
X95849134Y-61833404D01*
X95796897Y-61970918D01*
X95793274Y-61985556D01*
X95775348Y-62131558D01*
X95775321Y-62146639D01*
X92758500Y-62146639D01*
X92758500Y-60078767D01*
X92759027Y-60067584D01*
X92760702Y-60060091D01*
X92758562Y-59992000D01*
X92758500Y-59988043D01*
X92758500Y-59960144D01*
X92757996Y-59956153D01*
X92757063Y-59944311D01*
X92755923Y-59908036D01*
X92755674Y-59900111D01*
X92753462Y-59892497D01*
X92753461Y-59892492D01*
X92750023Y-59880659D01*
X92746012Y-59861295D01*
X92744467Y-59849064D01*
X92743474Y-59841203D01*
X92740557Y-59833836D01*
X92740556Y-59833831D01*
X92727198Y-59800092D01*
X92723354Y-59788865D01*
X92720639Y-59779521D01*
X92711018Y-59746407D01*
X92700707Y-59728972D01*
X92692012Y-59711224D01*
X92684552Y-59692383D01*
X92658564Y-59656613D01*
X92652048Y-59646693D01*
X92633580Y-59615465D01*
X92633578Y-59615462D01*
X92629542Y-59608638D01*
X92615221Y-59594317D01*
X92602380Y-59579283D01*
X92595131Y-59569306D01*
X92590472Y-59562893D01*
X92556395Y-59534702D01*
X92547616Y-59526712D01*
X92345405Y-59324501D01*
X92311379Y-59262189D01*
X92308500Y-59235406D01*
X92308500Y-58599600D01*
X92297526Y-58493834D01*
X92241550Y-58326054D01*
X92148478Y-58175652D01*
X92023303Y-58050695D01*
X92017072Y-58046854D01*
X91878968Y-57961725D01*
X91878966Y-57961724D01*
X91872738Y-57957885D01*
X91712254Y-57904655D01*
X91711389Y-57904368D01*
X91711387Y-57904368D01*
X91704861Y-57902203D01*
X91698025Y-57901503D01*
X91698022Y-57901502D01*
X91654969Y-57897091D01*
X91600400Y-57891500D01*
X90599600Y-57891500D01*
X90596354Y-57891837D01*
X90596350Y-57891837D01*
X90500692Y-57901762D01*
X90500688Y-57901763D01*
X90493834Y-57902474D01*
X90487298Y-57904655D01*
X90487296Y-57904655D01*
X90355194Y-57948728D01*
X90326054Y-57958450D01*
X90175652Y-58051522D01*
X90170479Y-58056704D01*
X90089216Y-58138109D01*
X90026934Y-58172188D01*
X89956114Y-58167185D01*
X89911025Y-58138264D01*
X89828483Y-58055866D01*
X89823303Y-58050695D01*
X89817072Y-58046854D01*
X89678968Y-57961725D01*
X89678966Y-57961724D01*
X89672738Y-57957885D01*
X89512254Y-57904655D01*
X89511389Y-57904368D01*
X89511387Y-57904368D01*
X89504861Y-57902203D01*
X89498025Y-57901503D01*
X89498022Y-57901502D01*
X89454969Y-57897091D01*
X89400400Y-57891500D01*
X88399600Y-57891500D01*
X88396354Y-57891837D01*
X88396350Y-57891837D01*
X88300692Y-57901762D01*
X88300688Y-57901763D01*
X88293834Y-57902474D01*
X88287298Y-57904655D01*
X88287296Y-57904655D01*
X88155194Y-57948728D01*
X88126054Y-57958450D01*
X87975652Y-58051522D01*
X87850695Y-58176697D01*
X87757885Y-58327262D01*
X87702203Y-58495139D01*
X87691500Y-58599600D01*
X87691500Y-59350400D01*
X87702474Y-59456166D01*
X87758450Y-59623946D01*
X87851522Y-59774348D01*
X87976697Y-59899305D01*
X87980916Y-59901906D01*
X88021417Y-59959030D01*
X88024649Y-60029953D01*
X87989024Y-60091365D01*
X87981470Y-60097922D01*
X87975652Y-60101522D01*
X87850695Y-60226697D01*
X87757885Y-60377262D01*
X87755581Y-60384209D01*
X87707576Y-60528941D01*
X87702203Y-60545139D01*
X87701503Y-60551975D01*
X87701502Y-60551978D01*
X87699063Y-60575783D01*
X87691500Y-60649600D01*
X87691500Y-61400400D01*
X87691837Y-61403646D01*
X87691837Y-61403650D01*
X87699029Y-61472959D01*
X87702474Y-61506166D01*
X87704655Y-61512702D01*
X87704655Y-61512704D01*
X87721819Y-61564149D01*
X87758450Y-61673946D01*
X87851522Y-61824348D01*
X87856704Y-61829521D01*
X87856708Y-61829526D01*
X87888108Y-61860871D01*
X87922188Y-61923153D01*
X87917185Y-61993973D01*
X87888265Y-62039061D01*
X87858178Y-62069201D01*
X87850695Y-62076697D01*
X87846855Y-62082927D01*
X87846854Y-62082928D01*
X87841456Y-62091686D01*
X87757885Y-62227262D01*
X87702203Y-62395139D01*
X87691500Y-62499600D01*
X87691500Y-63300400D01*
X87691837Y-63303646D01*
X87691837Y-63303650D01*
X87700098Y-63383264D01*
X87702474Y-63406166D01*
X87704655Y-63412702D01*
X87704655Y-63412704D01*
X87725341Y-63474707D01*
X87758450Y-63573946D01*
X87851522Y-63724348D01*
X87856704Y-63729521D01*
X87938109Y-63810784D01*
X87972188Y-63873066D01*
X87967185Y-63943886D01*
X87938264Y-63988975D01*
X87850695Y-64076697D01*
X87846855Y-64082927D01*
X87846854Y-64082928D01*
X87765037Y-64215660D01*
X87757885Y-64227262D01*
X87741295Y-64277279D01*
X87708387Y-64376496D01*
X87702203Y-64395139D01*
X87701503Y-64401975D01*
X87701502Y-64401978D01*
X87697920Y-64436944D01*
X87691500Y-64499600D01*
X87691500Y-65300400D01*
X87702474Y-65406166D01*
X87758450Y-65573946D01*
X87851522Y-65724348D01*
X87976697Y-65849305D01*
X88127262Y-65942115D01*
X88280167Y-65992831D01*
X88338527Y-66033261D01*
X88365764Y-66098826D01*
X88366500Y-66112424D01*
X88366500Y-67297476D01*
X88346498Y-67365597D01*
X88334142Y-67381779D01*
X88260960Y-67463056D01*
X88165473Y-67628444D01*
X88106458Y-67810072D01*
X88105768Y-67816633D01*
X88105768Y-67816635D01*
X88092158Y-67946126D01*
X88065145Y-68011783D01*
X88006923Y-68052412D01*
X87935978Y-68055115D01*
X87877753Y-68022050D01*
X86463450Y-66607747D01*
X86455910Y-66599461D01*
X86451798Y-66592982D01*
X86402146Y-66546356D01*
X86399305Y-66543602D01*
X86379568Y-66523865D01*
X86376371Y-66521385D01*
X86367349Y-66513680D01*
X86353920Y-66501069D01*
X86335119Y-66483414D01*
X86328173Y-66479595D01*
X86328170Y-66479593D01*
X86317364Y-66473652D01*
X86300845Y-66462801D01*
X86300381Y-66462441D01*
X86284839Y-66450386D01*
X86277570Y-66447241D01*
X86277566Y-66447238D01*
X86244261Y-66432826D01*
X86233611Y-66427609D01*
X86194858Y-66406305D01*
X86175235Y-66401267D01*
X86156532Y-66394863D01*
X86145218Y-66389967D01*
X86145217Y-66389967D01*
X86137943Y-66386819D01*
X86130120Y-66385580D01*
X86130110Y-66385577D01*
X86094274Y-66379901D01*
X86082654Y-66377495D01*
X86047509Y-66368472D01*
X86047508Y-66368472D01*
X86039828Y-66366500D01*
X86019574Y-66366500D01*
X85999863Y-66364949D01*
X85987684Y-66363020D01*
X85979855Y-66361780D01*
X85950584Y-66364547D01*
X85935837Y-66365941D01*
X85923979Y-66366500D01*
X77828767Y-66366500D01*
X77817584Y-66365973D01*
X77810091Y-66364298D01*
X77802165Y-66364547D01*
X77802164Y-66364547D01*
X77742001Y-66366438D01*
X77738043Y-66366500D01*
X77710144Y-66366500D01*
X77706154Y-66367004D01*
X77694320Y-66367936D01*
X77650111Y-66369326D01*
X77642497Y-66371538D01*
X77642492Y-66371539D01*
X77630659Y-66374977D01*
X77611296Y-66378988D01*
X77591203Y-66381526D01*
X77583836Y-66384443D01*
X77583831Y-66384444D01*
X77550092Y-66397802D01*
X77538865Y-66401646D01*
X77496407Y-66413982D01*
X77489581Y-66418019D01*
X77478972Y-66424293D01*
X77461224Y-66432988D01*
X77442383Y-66440448D01*
X77435967Y-66445110D01*
X77435966Y-66445110D01*
X77406613Y-66466436D01*
X77396693Y-66472952D01*
X77365465Y-66491420D01*
X77365462Y-66491422D01*
X77358638Y-66495458D01*
X77344317Y-66509779D01*
X77329284Y-66522619D01*
X77312893Y-66534528D01*
X77304217Y-66545016D01*
X77284702Y-66568605D01*
X77276712Y-66577384D01*
X76849501Y-67004595D01*
X76787189Y-67038621D01*
X76760406Y-67041500D01*
X76749478Y-67041500D01*
X76681357Y-67021498D01*
X76634864Y-66967842D01*
X76624760Y-66897568D01*
X76650368Y-66837698D01*
X86390621Y-54429733D01*
X87987822Y-54429733D01*
X87997625Y-54710458D01*
X87998387Y-54714781D01*
X87998388Y-54714788D01*
X88022164Y-54849624D01*
X88046402Y-54987087D01*
X88133203Y-55254235D01*
X88256340Y-55506702D01*
X88258795Y-55510341D01*
X88258798Y-55510347D01*
X88331890Y-55618710D01*
X88413415Y-55739576D01*
X88601371Y-55948322D01*
X88816550Y-56128879D01*
X89054764Y-56277731D01*
X89311375Y-56391982D01*
X89581390Y-56469407D01*
X89585740Y-56470018D01*
X89585743Y-56470019D01*
X89688690Y-56484487D01*
X89859552Y-56508500D01*
X90070146Y-56508500D01*
X90072332Y-56508347D01*
X90072336Y-56508347D01*
X90275827Y-56494118D01*
X90275832Y-56494117D01*
X90280212Y-56493811D01*
X90554970Y-56435409D01*
X90559099Y-56433906D01*
X90559103Y-56433905D01*
X90814781Y-56340846D01*
X90814785Y-56340844D01*
X90818926Y-56339337D01*
X91066942Y-56207464D01*
X91171896Y-56131211D01*
X91290629Y-56044947D01*
X91290632Y-56044944D01*
X91294192Y-56042358D01*
X91496252Y-55847231D01*
X91669188Y-55625882D01*
X91671384Y-55622078D01*
X91671389Y-55622071D01*
X91807435Y-55386431D01*
X91809636Y-55382619D01*
X91914862Y-55122176D01*
X91948544Y-54987087D01*
X91981753Y-54853893D01*
X91981754Y-54853888D01*
X91982817Y-54849624D01*
X92012178Y-54570267D01*
X92002375Y-54289542D01*
X91978608Y-54154749D01*
X91954360Y-54017236D01*
X91953598Y-54012913D01*
X91866797Y-53745765D01*
X91743660Y-53493298D01*
X91741205Y-53489659D01*
X91741202Y-53489653D01*
X91660935Y-53370653D01*
X91586585Y-53260424D01*
X91398629Y-53051678D01*
X91183450Y-52871121D01*
X90945236Y-52722269D01*
X90688625Y-52608018D01*
X90418610Y-52530593D01*
X90414260Y-52529982D01*
X90414257Y-52529981D01*
X90311310Y-52515513D01*
X90140448Y-52491500D01*
X89929854Y-52491500D01*
X89927668Y-52491653D01*
X89927664Y-52491653D01*
X89724173Y-52505882D01*
X89724168Y-52505883D01*
X89719788Y-52506189D01*
X89445030Y-52564591D01*
X89440901Y-52566094D01*
X89440897Y-52566095D01*
X89185219Y-52659154D01*
X89185215Y-52659156D01*
X89181074Y-52660663D01*
X88933058Y-52792536D01*
X88929499Y-52795122D01*
X88929497Y-52795123D01*
X88824895Y-52871121D01*
X88705808Y-52957642D01*
X88503748Y-53152769D01*
X88330812Y-53374118D01*
X88328616Y-53377922D01*
X88328611Y-53377929D01*
X88214794Y-53575067D01*
X88190364Y-53617381D01*
X88085138Y-53877824D01*
X88084073Y-53882097D01*
X88084072Y-53882099D01*
X88050379Y-54017236D01*
X88017183Y-54150376D01*
X87987822Y-54429733D01*
X86390621Y-54429733D01*
X89678346Y-50241548D01*
X89687405Y-50231221D01*
X89714360Y-50203683D01*
X89718585Y-50195766D01*
X89723894Y-50188523D01*
X89724149Y-50188710D01*
X89736655Y-50171306D01*
X89767306Y-50138800D01*
X89793856Y-50117375D01*
X89845905Y-50085951D01*
X89877227Y-50072436D01*
X89935800Y-50056125D01*
X89969601Y-50051506D01*
X90030399Y-50051506D01*
X90064200Y-50056125D01*
G37*
%TD.AperFunction*%
%TD*%
M02*
