%TF.GenerationSoftware,KiCad,Pcbnew,(6.0.7)*%
%TF.CreationDate,2022-09-10T12:27:55+10:00*%
%TF.ProjectId,Christmas_2022_PCB,43687269-7374-46d6-9173-5f323032325f,v01*%
%TF.SameCoordinates,Original*%
%TF.FileFunction,Soldermask,Top*%
%TF.FilePolarity,Negative*%
%FSLAX46Y46*%
G04 Gerber Fmt 4.6, Leading zero omitted, Abs format (unit mm)*
G04 Created by KiCad (PCBNEW (6.0.7)) date 2022-09-10 12:27:55*
%MOMM*%
%LPD*%
G01*
G04 APERTURE LIST*
G04 Aperture macros list*
%AMRoundRect*
0 Rectangle with rounded corners*
0 $1 Rounding radius*
0 $2 $3 $4 $5 $6 $7 $8 $9 X,Y pos of 4 corners*
0 Add a 4 corners polygon primitive as box body*
4,1,4,$2,$3,$4,$5,$6,$7,$8,$9,$2,$3,0*
0 Add four circle primitives for the rounded corners*
1,1,$1+$1,$2,$3*
1,1,$1+$1,$4,$5*
1,1,$1+$1,$6,$7*
1,1,$1+$1,$8,$9*
0 Add four rect primitives between the rounded corners*
20,1,$1+$1,$2,$3,$4,$5,0*
20,1,$1+$1,$4,$5,$6,$7,0*
20,1,$1+$1,$6,$7,$8,$9,0*
20,1,$1+$1,$8,$9,$2,$3,0*%
G04 Aperture macros list end*
%ADD10RoundRect,0.250000X0.325000X0.450000X-0.325000X0.450000X-0.325000X-0.450000X0.325000X-0.450000X0*%
%ADD11RoundRect,0.250000X-0.450000X0.350000X-0.450000X-0.350000X0.450000X-0.350000X0.450000X0.350000X0*%
%ADD12RoundRect,0.250000X-0.325000X-0.450000X0.325000X-0.450000X0.325000X0.450000X-0.325000X0.450000X0*%
%ADD13RoundRect,0.250000X0.350000X0.450000X-0.350000X0.450000X-0.350000X-0.450000X0.350000X-0.450000X0*%
%ADD14RoundRect,0.250000X-0.350000X-0.450000X0.350000X-0.450000X0.350000X0.450000X-0.350000X0.450000X0*%
%ADD15R,1.500000X0.700000*%
%ADD16R,0.800000X1.000000*%
%ADD17C,0.900000*%
%ADD18R,1.250000X2.100000*%
%ADD19R,1.250000X2.000000*%
%ADD20R,2.000000X1.500000*%
%ADD21R,2.000000X3.800000*%
%ADD22O,1.900000X3.500000*%
%ADD23R,1.100000X2.500000*%
%ADD24C,1.100000*%
%ADD25RoundRect,0.250000X0.337500X0.475000X-0.337500X0.475000X-0.337500X-0.475000X0.337500X-0.475000X0*%
%ADD26RoundRect,0.250000X-0.129454X0.555195X-0.569978X0.011193X0.129454X-0.555195X0.569978X-0.011193X0*%
%ADD27RoundRect,0.125000X-0.353553X-0.530330X0.530330X0.353553X0.353553X0.530330X-0.530330X-0.353553X0*%
%ADD28RoundRect,0.125000X0.353553X-0.530330X0.530330X-0.353553X-0.353553X0.530330X-0.530330X0.353553X0*%
%ADD29RoundRect,0.250000X-0.450000X0.325000X-0.450000X-0.325000X0.450000X-0.325000X0.450000X0.325000X0*%
%ADD30C,3.000000*%
%ADD31RoundRect,0.250000X0.450000X-0.350000X0.450000X0.350000X-0.450000X0.350000X-0.450000X-0.350000X0*%
%ADD32RoundRect,0.162500X-0.550064X-0.635972X0.750154X0.379869X0.550064X0.635972X-0.750154X-0.379869X0*%
%ADD33RoundRect,0.250000X0.450000X-0.325000X0.450000X0.325000X-0.450000X0.325000X-0.450000X-0.325000X0*%
%ADD34RoundRect,0.250000X-0.337500X-0.475000X0.337500X-0.475000X0.337500X0.475000X-0.337500X0.475000X0*%
G04 APERTURE END LIST*
D10*
%TO.C,D11*%
X65025000Y-106250000D03*
X62975000Y-106250000D03*
%TD*%
D11*
%TO.C,R5*%
X88900000Y-62900000D03*
X88900000Y-64900000D03*
%TD*%
D12*
%TO.C,D5*%
X101225000Y-68250000D03*
X103275000Y-68250000D03*
%TD*%
D13*
%TO.C,R4*%
X82000000Y-102200000D03*
X80000000Y-102200000D03*
%TD*%
%TO.C,R6*%
X81250000Y-70500000D03*
X79250000Y-70500000D03*
%TD*%
%TO.C,R19*%
X113000000Y-106250000D03*
X111000000Y-106250000D03*
%TD*%
D14*
%TO.C,R9*%
X80750000Y-68250000D03*
X82750000Y-68250000D03*
%TD*%
D13*
%TO.C,R18*%
X67500000Y-108500000D03*
X65500000Y-108500000D03*
%TD*%
D14*
%TO.C,R8*%
X98000000Y-102200000D03*
X100000000Y-102200000D03*
%TD*%
D15*
%TO.C,SW3*%
X94595000Y-92750000D03*
X94595000Y-94250000D03*
X94595000Y-97250000D03*
D16*
X97455000Y-98650000D03*
X95245000Y-91350000D03*
X97455000Y-91350000D03*
D17*
X96355000Y-96500000D03*
X96355000Y-93500000D03*
D16*
X95245000Y-98650000D03*
%TD*%
D11*
%TO.C,R11*%
X89750000Y-93500000D03*
X89750000Y-95500000D03*
%TD*%
D10*
%TO.C,D3*%
X78775000Y-68250000D03*
X76725000Y-68250000D03*
%TD*%
D12*
%TO.C,D4*%
X75225000Y-70500000D03*
X77275000Y-70500000D03*
%TD*%
D18*
%TO.C,SW1*%
X69125000Y-102200000D03*
D19*
X76875000Y-102200000D03*
%TD*%
D20*
%TO.C,U2*%
X84900000Y-97300000D03*
X84900000Y-95000000D03*
D21*
X78600000Y-95000000D03*
D20*
X84900000Y-92700000D03*
%TD*%
D13*
%TO.C,R14*%
X73250000Y-89500000D03*
X71250000Y-89500000D03*
%TD*%
D22*
%TO.C,J1*%
X84300000Y-106600000D03*
X95700000Y-106600000D03*
D23*
X86500000Y-103850000D03*
X89000000Y-103850000D03*
X91000000Y-103850000D03*
X93500000Y-103850000D03*
D24*
X87700000Y-106600000D03*
X92300000Y-106600000D03*
%TD*%
D25*
%TO.C,C3*%
X83287500Y-75000000D03*
X81212500Y-75000000D03*
%TD*%
D12*
%TO.C,D8*%
X67225000Y-89500000D03*
X69275000Y-89500000D03*
%TD*%
%TO.C,D9*%
X108975000Y-87250000D03*
X111025000Y-87250000D03*
%TD*%
D10*
%TO.C,D6*%
X104775000Y-70500000D03*
X102725000Y-70500000D03*
%TD*%
D13*
%TO.C,R15*%
X107000000Y-87250000D03*
X105000000Y-87250000D03*
%TD*%
D18*
%TO.C,SW2*%
X110875000Y-102200000D03*
D19*
X103125000Y-102200000D03*
%TD*%
D26*
%TO.C,R1*%
X78629320Y-77022854D03*
X77370680Y-78577146D03*
%TD*%
D14*
%TO.C,R16*%
X106750000Y-89500000D03*
X108750000Y-89500000D03*
%TD*%
%TO.C,R20*%
X112750000Y-108500000D03*
X114750000Y-108500000D03*
%TD*%
D12*
%TO.C,D12*%
X61475000Y-108500000D03*
X63525000Y-108500000D03*
%TD*%
D27*
%TO.C,U1*%
X85067930Y-75972272D03*
X85633616Y-76537957D03*
X86199301Y-77103643D03*
X86764986Y-77669328D03*
X87330672Y-78235014D03*
X87896357Y-78800699D03*
X88462043Y-79366384D03*
X89027728Y-79932070D03*
D28*
X90972272Y-79932070D03*
X91537957Y-79366384D03*
X92103643Y-78800699D03*
X92669328Y-78235014D03*
X93235014Y-77669328D03*
X93800699Y-77103643D03*
X94366384Y-76537957D03*
X94932070Y-75972272D03*
D27*
X94932070Y-74027728D03*
X94366384Y-73462043D03*
X93800699Y-72896357D03*
X93235014Y-72330672D03*
X92669328Y-71764986D03*
X92103643Y-71199301D03*
X91537957Y-70633616D03*
X90972272Y-70067930D03*
D28*
X89027728Y-70067930D03*
X88462043Y-70633616D03*
X87896357Y-71199301D03*
X87330672Y-71764986D03*
X86764986Y-72330672D03*
X86199301Y-72896357D03*
X85633616Y-73462043D03*
X85067930Y-74027728D03*
%TD*%
D14*
%TO.C,R12*%
X98750000Y-70500000D03*
X100750000Y-70500000D03*
%TD*%
%TO.C,R17*%
X67000000Y-106250000D03*
X69000000Y-106250000D03*
%TD*%
D29*
%TO.C,D2*%
X91100000Y-58975000D03*
X91100000Y-61025000D03*
%TD*%
D30*
%TO.C,TH1*%
X90000000Y-54500000D03*
%TD*%
D10*
%TO.C,D14*%
X118775000Y-108500000D03*
X116725000Y-108500000D03*
%TD*%
D31*
%TO.C,R7*%
X91100000Y-64900000D03*
X91100000Y-62900000D03*
%TD*%
D25*
%TO.C,C1*%
X85287500Y-79500000D03*
X83212500Y-79500000D03*
%TD*%
D32*
%TO.C,J2*%
X97200000Y-61760406D03*
X97981890Y-62761179D03*
X98763780Y-63761953D03*
X99545670Y-64762727D03*
%TD*%
D12*
%TO.C,D13*%
X114975000Y-106250000D03*
X117025000Y-106250000D03*
%TD*%
D33*
%TO.C,D1*%
X88900000Y-61025000D03*
X88900000Y-58975000D03*
%TD*%
D14*
%TO.C,R13*%
X73000000Y-87250000D03*
X75000000Y-87250000D03*
%TD*%
D34*
%TO.C,C2*%
X96562500Y-75000000D03*
X98637500Y-75000000D03*
%TD*%
D10*
%TO.C,D10*%
X112775000Y-89500000D03*
X110725000Y-89500000D03*
%TD*%
%TO.C,D7*%
X71025000Y-87250000D03*
X68975000Y-87250000D03*
%TD*%
D13*
%TO.C,R10*%
X99250000Y-68250000D03*
X97250000Y-68250000D03*
%TD*%
M02*
