%TF.GenerationSoftware,KiCad,Pcbnew,(6.0.7)*%
%TF.CreationDate,2022-09-10T12:27:55+10:00*%
%TF.ProjectId,Christmas_2022_PCB,43687269-7374-46d6-9173-5f323032325f,v01*%
%TF.SameCoordinates,Original*%
%TF.FileFunction,Legend,Top*%
%TF.FilePolarity,Positive*%
%FSLAX46Y46*%
G04 Gerber Fmt 4.6, Leading zero omitted, Abs format (unit mm)*
G04 Created by KiCad (PCBNEW (6.0.7)) date 2022-09-10 12:27:55*
%MOMM*%
%LPD*%
G01*
G04 APERTURE LIST*
%ADD10C,0.150000*%
%ADD11C,0.120000*%
G04 APERTURE END LIST*
D10*
X84857142Y-87142857D02*
X85000000Y-87000000D01*
X85285714Y-86857142D01*
X86000000Y-86857142D01*
X86285714Y-87000000D01*
X86428571Y-87142857D01*
X86571428Y-87428571D01*
X86571428Y-87714285D01*
X86428571Y-88142857D01*
X84714285Y-89857142D01*
X86571428Y-89857142D01*
X88428571Y-86857142D02*
X88714285Y-86857142D01*
X89000000Y-87000000D01*
X89142857Y-87142857D01*
X89285714Y-87428571D01*
X89428571Y-88000000D01*
X89428571Y-88714285D01*
X89285714Y-89285714D01*
X89142857Y-89571428D01*
X89000000Y-89714285D01*
X88714285Y-89857142D01*
X88428571Y-89857142D01*
X88142857Y-89714285D01*
X88000000Y-89571428D01*
X87857142Y-89285714D01*
X87714285Y-88714285D01*
X87714285Y-88000000D01*
X87857142Y-87428571D01*
X88000000Y-87142857D01*
X88142857Y-87000000D01*
X88428571Y-86857142D01*
X90571428Y-87142857D02*
X90714285Y-87000000D01*
X91000000Y-86857142D01*
X91714285Y-86857142D01*
X92000000Y-87000000D01*
X92142857Y-87142857D01*
X92285714Y-87428571D01*
X92285714Y-87714285D01*
X92142857Y-88142857D01*
X90428571Y-89857142D01*
X92285714Y-89857142D01*
X93428571Y-87142857D02*
X93571428Y-87000000D01*
X93857142Y-86857142D01*
X94571428Y-86857142D01*
X94857142Y-87000000D01*
X95000000Y-87142857D01*
X95142857Y-87428571D01*
X95142857Y-87714285D01*
X95000000Y-88142857D01*
X93285714Y-89857142D01*
X95142857Y-89857142D01*
X72357142Y-84857142D02*
X72357142Y-82857142D01*
X72357142Y-83142857D02*
X72499999Y-83000000D01*
X72785714Y-82857142D01*
X73214285Y-82857142D01*
X73499999Y-83000000D01*
X73642857Y-83285714D01*
X73642857Y-84857142D01*
X73642857Y-83285714D02*
X73785714Y-83000000D01*
X74071428Y-82857142D01*
X74499999Y-82857142D01*
X74785714Y-83000000D01*
X74928571Y-83285714D01*
X74928571Y-84857142D01*
X77499999Y-84714285D02*
X77214285Y-84857142D01*
X76642857Y-84857142D01*
X76357142Y-84714285D01*
X76214285Y-84428571D01*
X76214285Y-83285714D01*
X76357142Y-83000000D01*
X76642857Y-82857142D01*
X77214285Y-82857142D01*
X77499999Y-83000000D01*
X77642857Y-83285714D01*
X77642857Y-83571428D01*
X76214285Y-83857142D01*
X78928571Y-84857142D02*
X78928571Y-82857142D01*
X78928571Y-83428571D02*
X79071428Y-83142857D01*
X79214285Y-83000000D01*
X79499999Y-82857142D01*
X79785714Y-82857142D01*
X80785714Y-84857142D02*
X80785714Y-82857142D01*
X80785714Y-83428571D02*
X80928571Y-83142857D01*
X81071428Y-83000000D01*
X81357142Y-82857142D01*
X81642857Y-82857142D01*
X82357142Y-82857142D02*
X83071428Y-84857142D01*
X83785714Y-82857142D02*
X83071428Y-84857142D01*
X82785714Y-85571428D01*
X82642857Y-85714285D01*
X82357142Y-85857142D01*
X88500000Y-84714285D02*
X88214285Y-84857142D01*
X87642857Y-84857142D01*
X87357142Y-84714285D01*
X87214285Y-84571428D01*
X87071428Y-84285714D01*
X87071428Y-83428571D01*
X87214285Y-83142857D01*
X87357142Y-83000000D01*
X87642857Y-82857142D01*
X88214285Y-82857142D01*
X88500000Y-83000000D01*
X89785714Y-84857142D02*
X89785714Y-81857142D01*
X91071428Y-84857142D02*
X91071428Y-83285714D01*
X90928571Y-83000000D01*
X90642857Y-82857142D01*
X90214285Y-82857142D01*
X89928571Y-83000000D01*
X89785714Y-83142857D01*
X92499999Y-84857142D02*
X92499999Y-82857142D01*
X92499999Y-83428571D02*
X92642857Y-83142857D01*
X92785714Y-83000000D01*
X93071428Y-82857142D01*
X93357142Y-82857142D01*
X94357142Y-84857142D02*
X94357142Y-82857142D01*
X94357142Y-81857142D02*
X94214285Y-82000000D01*
X94357142Y-82142857D01*
X94500000Y-82000000D01*
X94357142Y-81857142D01*
X94357142Y-82142857D01*
X95642857Y-84714285D02*
X95928571Y-84857142D01*
X96500000Y-84857142D01*
X96785714Y-84714285D01*
X96928571Y-84428571D01*
X96928571Y-84285714D01*
X96785714Y-84000000D01*
X96500000Y-83857142D01*
X96071428Y-83857142D01*
X95785714Y-83714285D01*
X95642857Y-83428571D01*
X95642857Y-83285714D01*
X95785714Y-83000000D01*
X96071428Y-82857142D01*
X96500000Y-82857142D01*
X96785714Y-83000000D01*
X97785714Y-82857142D02*
X98928571Y-82857142D01*
X98214285Y-81857142D02*
X98214285Y-84428571D01*
X98357142Y-84714285D01*
X98642857Y-84857142D01*
X98928571Y-84857142D01*
X99928571Y-84857142D02*
X99928571Y-82857142D01*
X99928571Y-83142857D02*
X100071428Y-83000000D01*
X100357142Y-82857142D01*
X100785714Y-82857142D01*
X101071428Y-83000000D01*
X101214285Y-83285714D01*
X101214285Y-84857142D01*
X101214285Y-83285714D02*
X101357142Y-83000000D01*
X101642857Y-82857142D01*
X102071428Y-82857142D01*
X102357142Y-83000000D01*
X102500000Y-83285714D01*
X102500000Y-84857142D01*
X105214285Y-84857142D02*
X105214285Y-83285714D01*
X105071428Y-83000000D01*
X104785714Y-82857142D01*
X104214285Y-82857142D01*
X103928571Y-83000000D01*
X105214285Y-84714285D02*
X104928571Y-84857142D01*
X104214285Y-84857142D01*
X103928571Y-84714285D01*
X103785714Y-84428571D01*
X103785714Y-84142857D01*
X103928571Y-83857142D01*
X104214285Y-83714285D01*
X104928571Y-83714285D01*
X105214285Y-83571428D01*
X106500000Y-84714285D02*
X106785714Y-84857142D01*
X107357142Y-84857142D01*
X107642857Y-84714285D01*
X107785714Y-84428571D01*
X107785714Y-84285714D01*
X107642857Y-84000000D01*
X107357142Y-83857142D01*
X106928571Y-83857142D01*
X106642857Y-83714285D01*
X106500000Y-83428571D01*
X106500000Y-83285714D01*
X106642857Y-83000000D01*
X106928571Y-82857142D01*
X107357142Y-82857142D01*
X107642857Y-83000000D01*
D11*
%TO.C,D11*%
X65860000Y-107210000D02*
X65860000Y-105290000D01*
X65860000Y-105290000D02*
X63000000Y-105290000D01*
X63000000Y-107210000D02*
X65860000Y-107210000D01*
%TO.C,R5*%
X88165000Y-63672936D02*
X88165000Y-64127064D01*
X89635000Y-63672936D02*
X89635000Y-64127064D01*
%TO.C,D5*%
X100390000Y-69210000D02*
X103250000Y-69210000D01*
X100390000Y-67290000D02*
X100390000Y-69210000D01*
X103250000Y-67290000D02*
X100390000Y-67290000D01*
%TO.C,R4*%
X81227064Y-101465000D02*
X80772936Y-101465000D01*
X81227064Y-102935000D02*
X80772936Y-102935000D01*
%TO.C,R6*%
X80477064Y-71235000D02*
X80022936Y-71235000D01*
X80477064Y-69765000D02*
X80022936Y-69765000D01*
%TO.C,R19*%
X112227064Y-105515000D02*
X111772936Y-105515000D01*
X112227064Y-106985000D02*
X111772936Y-106985000D01*
%TO.C,R9*%
X81522936Y-67515000D02*
X81977064Y-67515000D01*
X81522936Y-68985000D02*
X81977064Y-68985000D01*
%TO.C,R18*%
X66727064Y-107765000D02*
X66272936Y-107765000D01*
X66727064Y-109235000D02*
X66272936Y-109235000D01*
%TO.C,R8*%
X98772936Y-101465000D02*
X99227064Y-101465000D01*
X98772936Y-102935000D02*
X99227064Y-102935000D01*
%TO.C,SW3*%
X97755000Y-97850000D02*
X97755000Y-92150000D01*
X95955000Y-98450000D02*
X96745000Y-98450000D01*
X99045000Y-95100000D02*
X99255000Y-95300000D01*
X96745000Y-91550000D02*
X95955000Y-91550000D01*
X99045000Y-95100000D02*
X97755000Y-95100000D01*
X94905000Y-96600000D02*
X94905000Y-94900000D01*
X99255000Y-96200000D02*
X99255000Y-95300000D01*
X94905000Y-93600000D02*
X94905000Y-93400000D01*
X99045000Y-96400000D02*
X99255000Y-96200000D01*
X97755000Y-96400000D02*
X99045000Y-96400000D01*
%TO.C,R11*%
X89015000Y-94272936D02*
X89015000Y-94727064D01*
X90485000Y-94272936D02*
X90485000Y-94727064D01*
%TO.C,D3*%
X79610000Y-69210000D02*
X79610000Y-67290000D01*
X76750000Y-69210000D02*
X79610000Y-69210000D01*
X79610000Y-67290000D02*
X76750000Y-67290000D01*
%TO.C,D4*%
X74390000Y-71460000D02*
X77250000Y-71460000D01*
X77250000Y-69540000D02*
X74390000Y-69540000D01*
X74390000Y-69540000D02*
X74390000Y-71460000D01*
%TO.C,U2*%
X85850000Y-98410000D02*
X79840000Y-98410000D01*
X83600000Y-91590000D02*
X79840000Y-91590000D01*
X79840000Y-91590000D02*
X79840000Y-92850000D01*
X79840000Y-98410000D02*
X79840000Y-97150000D01*
%TO.C,R14*%
X72477064Y-90235000D02*
X72022936Y-90235000D01*
X72477064Y-88765000D02*
X72022936Y-88765000D01*
%TO.C,J1*%
X94400000Y-105480000D02*
X85600000Y-105480000D01*
X83855000Y-108650000D02*
X83855000Y-109700000D01*
X96145000Y-108650000D02*
X96145000Y-109700000D01*
X94400000Y-105480000D02*
X94400000Y-104725000D01*
%TO.C,C3*%
X82511252Y-75735000D02*
X81988748Y-75735000D01*
X82511252Y-74265000D02*
X81988748Y-74265000D01*
%TO.C,D8*%
X66390000Y-88540000D02*
X66390000Y-90460000D01*
X69250000Y-88540000D02*
X66390000Y-88540000D01*
X66390000Y-90460000D02*
X69250000Y-90460000D01*
%TO.C,D9*%
X111000000Y-86290000D02*
X108140000Y-86290000D01*
X108140000Y-88210000D02*
X111000000Y-88210000D01*
X108140000Y-86290000D02*
X108140000Y-88210000D01*
%TO.C,D6*%
X105610000Y-69540000D02*
X102750000Y-69540000D01*
X105610000Y-71460000D02*
X105610000Y-69540000D01*
X102750000Y-71460000D02*
X105610000Y-71460000D01*
%TO.C,R15*%
X106227064Y-86515000D02*
X105772936Y-86515000D01*
X106227064Y-87985000D02*
X105772936Y-87985000D01*
%TO.C,R1*%
X77571694Y-77160988D02*
X77285902Y-77513911D01*
X78714098Y-78086089D02*
X78428306Y-78439012D01*
%TO.C,R16*%
X107522936Y-90235000D02*
X107977064Y-90235000D01*
X107522936Y-88765000D02*
X107977064Y-88765000D01*
%TO.C,R20*%
X113522936Y-107765000D02*
X113977064Y-107765000D01*
X113522936Y-109235000D02*
X113977064Y-109235000D01*
%TO.C,D12*%
X63500000Y-107540000D02*
X60640000Y-107540000D01*
X60640000Y-107540000D02*
X60640000Y-109460000D01*
X60640000Y-109460000D02*
X63500000Y-109460000D01*
%TO.C,U1*%
X85106821Y-75212132D02*
X84176976Y-76141977D01*
X90000000Y-69894689D02*
X90212132Y-70106821D01*
X89787868Y-70106821D02*
X90000000Y-69894689D01*
X85106821Y-74787868D02*
X84894689Y-75000000D01*
X94893179Y-75212132D02*
X95105311Y-75000000D01*
X90212132Y-79893179D02*
X90000000Y-80105311D01*
X90000000Y-80105311D02*
X89787868Y-79893179D01*
X95105311Y-75000000D02*
X94893179Y-74787868D01*
X84894689Y-75000000D02*
X85106821Y-75212132D01*
%TO.C,R12*%
X99522936Y-69765000D02*
X99977064Y-69765000D01*
X99522936Y-71235000D02*
X99977064Y-71235000D01*
%TO.C,R17*%
X67772936Y-105515000D02*
X68227064Y-105515000D01*
X67772936Y-106985000D02*
X68227064Y-106985000D01*
%TO.C,D2*%
X92060000Y-58140000D02*
X90140000Y-58140000D01*
X92060000Y-61000000D02*
X92060000Y-58140000D01*
X90140000Y-58140000D02*
X90140000Y-61000000D01*
%TO.C,D14*%
X119610000Y-109460000D02*
X119610000Y-107540000D01*
X119610000Y-107540000D02*
X116750000Y-107540000D01*
X116750000Y-109460000D02*
X119610000Y-109460000D01*
%TO.C,R7*%
X91835000Y-64127064D02*
X91835000Y-63672936D01*
X90365000Y-64127064D02*
X90365000Y-63672936D01*
%TO.C,C1*%
X84511252Y-78765000D02*
X83988748Y-78765000D01*
X84511252Y-80235000D02*
X83988748Y-80235000D01*
%TO.C,D13*%
X114140000Y-105290000D02*
X114140000Y-107210000D01*
X117000000Y-105290000D02*
X114140000Y-105290000D01*
X114140000Y-107210000D02*
X117000000Y-107210000D01*
%TO.C,D1*%
X87940000Y-61860000D02*
X89860000Y-61860000D01*
X89860000Y-61860000D02*
X89860000Y-59000000D01*
X87940000Y-59000000D02*
X87940000Y-61860000D01*
%TO.C,R13*%
X73772936Y-87985000D02*
X74227064Y-87985000D01*
X73772936Y-86515000D02*
X74227064Y-86515000D01*
%TO.C,C2*%
X97338748Y-75735000D02*
X97861252Y-75735000D01*
X97338748Y-74265000D02*
X97861252Y-74265000D01*
%TO.C,D10*%
X110750000Y-90460000D02*
X113610000Y-90460000D01*
X113610000Y-88540000D02*
X110750000Y-88540000D01*
X113610000Y-90460000D02*
X113610000Y-88540000D01*
%TO.C,D7*%
X69000000Y-88210000D02*
X71860000Y-88210000D01*
X71860000Y-86290000D02*
X69000000Y-86290000D01*
X71860000Y-88210000D02*
X71860000Y-86290000D01*
%TO.C,R10*%
X98477064Y-68985000D02*
X98022936Y-68985000D01*
X98477064Y-67515000D02*
X98022936Y-67515000D01*
%TD*%
M02*
