M48
; DRILL file {KiCad (6.0.7)} date Sat Sep 10 12:27:57 2022
; FORMAT={-:-/ absolute / metric / decimal}
; #@! TF.CreationDate,2022-09-10T12:27:57+10:00
; #@! TF.GenerationSoftware,Kicad,Pcbnew,(6.0.7)
; #@! TF.FileFunction,Plated,1,2,PTH
FMAT,2
METRIC
; #@! TA.AperFunction,Plated,PTH,ViaDrill
T1C0.400
; #@! TA.AperFunction,Plated,PTH,ComponentDrill
T2C0.900
%
G90
G05
T1
X71.5Y-95.75
X71.5Y-101.5
X73.5Y-97.25
X74.0Y-104.0
X76.4Y-79.8
X80.0Y-88.5
X81.5Y-99.0
X82.0Y-103.75
X82.4Y-73.6
X84.25Y-80.75
X84.5Y-103.75
X85.0Y-65.5
X85.0Y-68.25
X86.0Y-74.9
X88.25Y-76.25
X89.0Y-68.0
X89.0Y-73.25
X90.0Y-78.0
X90.0Y-81.5
X90.25Y-68.75
X90.25Y-72.0
X92.0Y-102.0
X92.4Y-74.2
X94.0Y-75.1
X94.5Y-65.5
X95.0Y-101.0
X95.2Y-71.6
X95.75Y-70.25
X96.2Y-102.2
X96.6Y-63.9
X97.6Y-72.0
X98.6Y-76.4
X98.8Y-81.2
X101.75Y-96.0
X102.4Y-75.8
X103.375Y-80.875
X104.75Y-89.25
X105.25Y-103.25
X108.5Y-99.5
T2
G00X84.3Y-105.8
M15
G01X84.3Y-107.4
M16
G05
G00X95.7Y-105.8
M15
G01X95.7Y-107.4
M16
G05
T0
M30
